<svg width="17" height="20" viewBox="0 0 17 20" fill="none" xmlns="http://www.w3.org/2000/svg">
<path fill-rule="evenodd" clip-rule="evenodd" d="M16.2856 14C16.2856 16.8284 16.2856 18.2426 15.407 19.1213C14.5283 20 13.1141 20 10.2856 20H6.28564C3.45722 20 2.043 20 1.16432 19.1213C0.285645 18.2426 0.285645 16.8284 0.285645 14V6C0.285645 3.17157 0.285645 1.75736 1.16432 0.87868C2.043 0 3.45722 0 6.28564 0H10.2856C10.4543 0 10.5386 0 10.6197 0.00661102C11.0369 0.040614 11.4328 0.204635 11.7519 0.475569C11.8139 0.528245 11.8735 0.587866 11.9928 0.707106L15.5785 4.29289C15.6978 4.41213 15.7574 4.47176 15.8101 4.53378C16.081 4.8528 16.245 5.24878 16.279 5.66595C16.2856 5.74705 16.2856 5.83137 16.2856 6V14ZM10.2856 1V2C10.2856 3.88562 10.2856 4.82843 10.8714 5.41421C11.4572 6 12.4 6 14.2856 6H15.2856V15C15.2856 16.8856 15.2856 17.8284 14.6999 18.4142C14.1141 19 13.1713 19 11.2856 19H5.28564C3.40003 19 2.45722 19 1.87143 18.4142C1.28564 17.8284 1.28564 16.8856 1.28564 15V5C1.28564 3.11438 1.28564 2.17157 1.87143 1.58579C2.45722 1 3.40003 1 5.28564 1H10.2856ZM11.2856 3C11.2856 3.94281 11.2856 4.41421 11.5785 4.70711C11.8714 5 12.3428 5 13.2856 5H14.8856L11.2856 1.4V3Z" fill="#0D0D0D"/>
<path d="M7.78564 7.5C7.78564 7.22386 8.0095 7 8.28564 7C8.56179 7 8.78564 7.22386 8.78564 7.5V13.5C8.78564 13.7761 8.56179 14 8.28564 14C8.0095 14 7.78564 13.7761 7.78564 13.5V7.5Z" fill="#0D0D0D"/>
<path d="M11.2856 10C11.5618 10 11.7856 10.2239 11.7856 10.5C11.7856 10.7761 11.5618 11 11.2856 11H5.28564C5.0095 11 4.78564 10.7761 4.78564 10.5C4.78564 10.2239 5.0095 10 5.28564 10H11.2856Z" fill="#0D0D0D"/>
</svg>
