<svg width="30" height="20" viewBox="0 0 30 20" fill="none" xmlns="http://www.w3.org/2000/svg">
<path d="M0 1.11111C0 0.497462 0.497461 0 1.11111 0H28.8889C29.5025 0 30 0.497462 30 1.11111C30 1.72476 29.5025 2.22222 28.8889 2.22222H1.11111C0.497461 2.22222 0 1.72476 0 1.11111Z" fill="black"/>
<path d="M0 10C0 9.38635 0.497461 8.88889 1.11111 8.88889H20.812C21.4256 8.88889 21.9231 9.38635 21.9231 10C21.9231 10.6137 21.4256 11.1111 20.812 11.1111H1.11111C0.49746 11.1111 0 10.6137 0 10Z" fill="black"/>
<path d="M0 18.8889C0 18.2752 0.497461 17.7778 1.11111 17.7778H28.8889C29.5025 17.7778 30 18.2752 30 18.8889C30 19.5025 29.5025 20 28.8889 20H1.11111C0.497461 20 0 19.5025 0 18.8889Z" fill="black"/>
</svg>
