<svg width="40" height="40" viewBox="0 0 40 40" fill="none" xmlns="http://www.w3.org/2000/svg">
<path d="M28.4182 29.0035C28.1302 29.0035 27.8874 28.782 27.8592 28.4787C27.814 28.0298 27.735 27.5866 27.6108 27.1668C26.8711 24.5428 24.8329 22.8984 22.2978 22.8751L18.9101 22.8459C17.4252 22.8284 16.121 23.359 15.1047 24.362C14.2916 25.1608 13.7101 26.2338 13.4221 27.4641C13.3487 27.779 13.0438 27.9714 12.7389 27.8898C12.434 27.814 12.2477 27.4991 12.3268 27.1843C12.6655 25.7382 13.36 24.4728 14.3311 23.5165C15.5507 22.3153 17.1147 21.6797 18.865 21.6797C18.8875 21.6797 18.9045 21.6797 18.9271 21.6797L22.3147 21.7088C25.3693 21.7322 27.8197 23.7031 28.7005 26.8402C28.8416 27.33 28.9376 27.8432 28.9884 28.3621C29.0223 28.6828 28.7908 28.9686 28.4859 29.0035C28.4577 29.0035 28.4351 29.0035 28.4182 29.0035Z" fill="#DCC38B"/>
<path d="M20.6603 20.5251C20.6491 20.5251 20.6378 20.5251 20.6265 20.5251C19.4126 20.5134 18.3963 20.0177 17.6848 19.0848C17.0468 18.2509 16.7024 17.0905 16.7081 15.8252C16.7194 14.5598 17.0807 13.4053 17.73 12.5831C18.4471 11.6735 19.4577 11.1953 20.6547 11.1953C20.666 11.1953 20.6773 11.1953 20.6942 11.1953C23.0599 11.2128 24.6296 13.1021 24.6126 15.8952C24.59 18.6708 23.0035 20.5251 20.6603 20.5251ZM20.6603 12.3615C19.8134 12.3615 19.102 12.6939 18.6108 13.3237C18.1196 13.9418 17.8486 14.8339 17.8429 15.8369C17.8373 16.8398 18.097 17.7378 18.5769 18.3617C19.0681 19.0031 19.7852 19.3472 20.6434 19.3588C20.6547 19.3588 20.6603 19.3588 20.6716 19.3588C22.7325 19.3588 23.4834 17.4871 23.4947 15.8835C23.506 14.2683 22.7833 12.379 20.6999 12.3615C20.6773 12.3615 20.6716 12.3615 20.6603 12.3615Z" fill="#DCC38B"/>
<path d="M17.9279 39.9998C14.1393 39.9998 10.8025 39.3642 8.9167 38.7869C3.27624 37.1134 0.893589 38.1047 0.871004 38.1164C0.588699 38.2446 0.249929 38.1164 0.125714 37.8248C-0.00414617 37.5332 0.125714 37.1834 0.408019 37.0551C0.515295 37.0026 3.10121 35.8539 9.23288 37.6732C13.7215 39.0435 26.8318 40.8161 33.5676 32.7109C33.5732 32.7051 33.5845 32.6934 33.5902 32.6876C33.3587 32.4252 32.2634 32.0695 30.5865 32.7867C30.0049 32.9908 29.4742 33.2765 28.9152 33.5797C27.4416 34.3786 25.759 35.2766 22.8682 35.0725C22.5577 35.0492 22.3206 34.7693 22.3431 34.4486C22.3657 34.1279 22.6367 33.8946 22.9473 33.9063C25.5275 34.0929 26.9842 33.3057 28.3958 32.5418C28.9943 32.2153 29.5645 31.9121 30.1969 31.6905C32.3198 30.7808 34.0532 31.2298 34.5895 32.1161C34.8718 32.5768 34.7985 33.1133 34.4089 33.4923C30.1404 38.5945 23.5458 39.994 17.9279 39.9998Z" fill="black"/>
<path d="M17.8771 36.0177C15.2064 36.0177 13.14 35.4695 11.7115 34.3674C11.4631 34.175 11.4066 33.8077 11.5929 33.5511C11.7793 33.2945 12.135 33.2362 12.3834 33.4286C14.1055 34.7465 17.1374 35.1546 21.1518 34.6007C21.9253 34.4957 22.4222 34.2042 22.5916 33.761C22.744 33.3587 22.6028 32.9039 22.4052 32.6589C22.3036 32.5248 22.1794 32.449 22.106 32.4665C22.01 32.484 21.9027 32.4782 21.6599 32.5015C20.3218 32.6239 17.1995 32.9039 16.0477 31.1779C12.1293 26.408 8.94491 26.9328 7.5842 27.1544L7.48258 27.1719C6.60179 27.3118 6.0767 27.4401 5.56855 27.5626C4.55789 27.8075 3.68275 28.0174 0.605619 28.2448C0.295083 28.274 0.024073 28.0232 0.0014886 27.7025C-0.0210958 27.3818 0.216036 27.1019 0.526572 27.0786C3.51901 26.857 4.34899 26.6588 5.31447 26.4255C5.81698 26.3031 6.38723 26.1689 7.30755 26.0173L7.40353 25.9998C8.8207 25.7666 12.5923 25.1427 16.9285 30.4431C16.9398 30.4606 16.9567 30.4781 16.968 30.4956C17.7359 31.6851 20.6154 31.4227 21.5583 31.3353C21.7277 31.3178 21.8632 31.3061 21.9535 31.3061C22.4278 31.2361 22.919 31.4636 23.2804 31.9184C23.7885 32.554 23.9297 33.4461 23.6474 34.1925C23.4611 34.6823 22.9077 35.5395 21.3099 35.7611C20.0677 35.936 18.9272 36.0177 17.8771 36.0177Z" fill="black"/>
<path d="M23.2297 33.5807C23.0151 33.5807 22.8062 33.4525 22.7102 33.2309C22.586 32.9393 22.7159 32.5895 22.9982 32.4612L28.5991 29.9188C29.4291 29.5456 30.3212 29.4873 30.9931 29.7672C31.4391 29.948 31.7609 30.2629 31.9303 30.671C32.111 31.1084 32.0884 31.6157 31.8682 32.1055C31.7384 32.397 31.3996 32.5253 31.1173 32.3912C30.835 32.2571 30.7108 31.9072 30.8406 31.6157C30.9027 31.4816 30.9592 31.2891 30.8914 31.1258C30.8463 31.0092 30.739 30.9159 30.5753 30.8518C30.1857 30.6944 29.5985 30.7468 29.0508 30.9917L23.4499 33.5341C23.3821 33.5633 23.3031 33.5807 23.2297 33.5807Z" fill="black"/>
<path d="M25.505 32.5022C25.3807 32.5022 25.2565 32.4614 25.1493 32.3739C24.9065 32.1698 24.867 31.8024 25.0646 31.5517C25.2961 31.2543 25.3808 30.9628 25.2961 30.7587C25.2452 30.642 25.1436 30.5487 24.9799 30.4846C24.5903 30.3272 24.0031 30.3738 23.4554 30.6246L19.5257 32.3914C19.2378 32.5197 18.9047 32.3855 18.7805 32.0881C18.6562 31.7908 18.7861 31.4467 19.074 31.3185L23.0037 29.5516C23.8281 29.1784 24.7258 29.1201 25.3977 29.4C25.8437 29.5808 26.1656 29.8957 26.3349 30.3039C26.589 30.9161 26.4422 31.6392 25.9397 32.2864C25.8324 32.4264 25.6687 32.5022 25.505 32.5022Z" fill="black"/>
<path d="M7.57325 8.80335C6.52872 8.80335 5.74392 8.42433 5.41644 7.88204C5.13414 7.41555 5.20754 6.8791 5.59712 6.50591C12.7338 -2.03664 26.4087 -0.211511 31.0836 1.21127C36.741 2.8848 39.1067 1.89351 39.135 1.88185C39.4173 1.7594 39.7504 1.88768 39.8746 2.18506C39.9988 2.48245 39.8746 2.82066 39.5923 2.94894C39.485 2.99559 36.8991 4.15014 30.7675 2.33084C26.2788 0.960535 13.1685 -0.812111 6.43274 7.29311C6.4271 7.29894 6.4158 7.31059 6.41016 7.31643C6.64165 7.57882 7.73699 7.93452 9.41388 7.2173C9.99543 7.01321 10.5262 6.72748 11.0851 6.42427C12.5644 5.62541 14.2357 4.72743 17.1321 4.93151C17.4426 4.95484 17.6798 5.23473 17.6572 5.55544C17.6346 5.87615 17.3636 6.1094 17.0531 6.09773C14.4728 5.91114 13.0161 6.69832 11.6046 7.45637C11.0061 7.78291 10.4358 8.08613 9.80346 8.30771C8.99043 8.65174 8.23385 8.80335 7.57325 8.80335Z" fill="black"/>
<path d="M31.0216 14.1378C29.1528 14.1378 26.2676 13.4439 23.0775 9.54291C23.0663 9.52542 23.0493 9.50793 23.038 9.49044C22.2702 8.30089 19.3906 8.56328 18.4477 8.65075C18.2727 8.66824 18.1372 8.67991 18.0469 8.67991C17.5726 8.74988 17.0814 8.52247 16.72 8.06764C16.2119 7.43205 16.0707 6.53989 16.353 5.79351C16.5394 5.3037 17.0927 4.44654 18.6905 4.22496C23.0663 3.61852 26.2958 4.09084 28.2833 5.61858C28.5317 5.81101 28.5881 6.17837 28.4018 6.43494C28.2155 6.6915 27.8654 6.74982 27.6114 6.55739C25.8893 5.23957 22.8573 4.83138 18.843 5.38534C18.0694 5.4903 17.5726 5.78186 17.4032 6.22502C17.2508 6.62737 17.3919 7.08219 17.5895 7.32709C17.6912 7.46121 17.8154 7.53702 17.8888 7.51952C17.9848 7.50203 18.092 7.50786 18.3405 7.48453C19.6786 7.36208 22.7952 7.08219 23.9527 8.81402C27.8711 13.5839 31.0555 13.0591 32.4162 12.8375L32.5178 12.82C33.3986 12.68 33.9237 12.5518 34.4319 12.4293C35.4425 12.1844 36.3177 11.9745 39.3948 11.7471C39.711 11.7237 39.9763 11.9686 39.9989 12.2893C40.0215 12.6101 39.7844 12.89 39.4738 12.9133C36.4814 13.1349 35.6514 13.3331 34.6859 13.5664C34.1834 13.6888 33.6132 13.8229 32.6929 13.9746L32.5969 13.992C32.2299 14.0445 31.6879 14.1378 31.0216 14.1378Z" fill="black"/>
<path d="M9.95007 10.3948C9.61131 10.3948 9.28948 10.3365 9.00718 10.2199C8.56114 10.0391 8.23931 9.72424 8.06993 9.31606C7.88925 8.87873 7.91183 8.37142 8.13203 7.88161C8.26189 7.59005 8.60065 7.46178 8.88296 7.59589C9.16526 7.73001 9.28948 8.07987 9.15962 8.37143C9.10316 8.50554 9.04106 8.69796 9.11445 8.86123C9.15962 8.97786 9.2669 9.07115 9.43064 9.13529C9.82586 9.29856 10.4074 9.24609 10.9551 8.99535L16.556 6.45299C16.8383 6.32471 17.1771 6.45883 17.3013 6.75038C17.4255 7.04194 17.2957 7.38597 17.0133 7.52008L11.4124 10.0624C10.9212 10.2899 10.4187 10.3948 9.95007 10.3948Z" fill="black"/>
<path d="M15.5393 10.7692C15.2005 10.7692 14.8787 10.7109 14.5964 10.5943C14.1503 10.4135 13.8285 10.0987 13.6591 9.69048C13.405 9.07821 13.5518 8.35516 14.0543 7.70791C14.252 7.45717 14.6077 7.41635 14.8504 7.62044C15.0932 7.82453 15.1327 8.19189 14.9351 8.44263C14.7036 8.74002 14.619 9.03739 14.7036 9.23565C14.7488 9.35227 14.8561 9.44558 15.0198 9.50972C15.4094 9.66716 15.9966 9.62051 16.5443 9.36977L20.474 7.60294C20.7619 7.47466 21.095 7.60879 21.2192 7.90617C21.3435 8.20356 21.2136 8.54759 20.9257 8.67587L16.996 10.4427C16.5104 10.6584 16.0079 10.7692 15.5393 10.7692Z" fill="black"/>
</svg>
