<svg width="19" height="17" viewBox="0 0 19 17" fill="none" xmlns="http://www.w3.org/2000/svg">
<path d="M0 10.9234L0.0703705 9.76596L0.281482 8.53617L0.562963 7.37872L1.12593 6.36596L1.54815 5.28085L2.04074 4.34043L2.67407 3.25532L3.51852 2.38723L4.29259 1.66383L5.06667 0.795743L6.47407 0.217018L8.02222 0L8.86667 0.651064L9.21852 1.59149V2.6766L8.3037 3.90638L7.17778 5.06383L6.33333 6.00426L5.98148 7.01702L5.7 8.02979L5.91111 9.62128L6.47407 10.8511L7.10741 11.9362L7.31852 12.9489L7.38889 14.034L6.96667 15.0468L6.4037 15.9872L5.41852 16.6383L3.94074 17L2.32222 16.8553L1.40741 16.2043L0.633333 15.3362L0.140741 14.3234L0 12.5872V10.9234ZM9.64074 10.9234L9.99259 9.76596L10.1333 8.60851L10.4148 7.45106L10.7667 6.29362L11.3296 5.20851L11.8222 4.19574L12.4556 3.25532L13.1593 2.45957L14.0037 1.59149L14.8481 0.868083L16.1852 0.144679L17.8037 0L18.6481 0.651064L19 1.51915V2.60426L18.0148 3.83404L16.9593 4.91915L16.1852 6.00426L15.6222 7.01702L15.4111 8.17447L15.6222 9.62128L16.7481 11.9362L17.1 12.9489V14.1064L16.8889 15.1915L16.1148 16.0596L15.3407 16.6383L13.7222 16.9277L12.2444 16.783L11.1889 16.2766L10.5556 15.3362L10.063 14.3957L9.78148 12.5872L9.64074 10.9234Z" fill="#DCC38B"/>
</svg>
