<svg width="22" height="22" viewBox="0 0 22 22" fill="none" xmlns="http://www.w3.org/2000/svg">
<path d="M1.69684 21.5C1.3906 21.5 1.08436 21.3828 0.8499 21.1507C0.383367 20.6842 0.383367 19.9259 0.8499 19.4594L19.4586 0.852262C19.9251 0.385769 20.6836 0.385769 21.1501 0.852262C21.6166 1.31876 21.6166 2.07711 21.1501 2.5436L2.54138 21.1507C2.30931 21.3828 2.00308 21.5 1.69684 21.5Z" fill="white"/>
<path d="M20.3056 21.5C19.9993 21.5 19.6931 21.3828 19.4586 21.1507L0.8499 2.54121C0.383367 2.07472 0.383367 1.31636 0.8499 0.84987C1.31643 0.383377 2.07485 0.383377 2.54138 0.84987L21.1501 19.457C21.6166 19.9235 21.6166 20.6818 21.1501 21.1483C20.918 21.3828 20.6118 21.5 20.3056 21.5Z" fill="white"/>
</svg>
