<svg width="40" height="40" viewBox="0 0 40 40" fill="none" xmlns="http://www.w3.org/2000/svg">
<path d="M37.4231 36.1005H3.64534C3.43793 36.1005 3.26017 35.9814 3.14165 35.8326C3.05276 35.654 3.02313 35.4457 3.14165 35.2671L3.52685 34.5826C3.55648 34.5231 3.58612 34.4933 3.61575 34.4636L5.54168 32.5291L6.312 29.9993C6.34163 29.8803 6.43054 29.7612 6.54906 29.6719L8.86018 28.2434L7.7639 24.8803C7.70464 24.6719 7.76386 24.4041 7.94163 24.2553L10.0454 22.4696L10.6083 19.8803C10.6676 19.6422 10.8453 19.4934 11.0527 19.4339L14.9046 18.6601L15.2009 16.1303C15.2009 16.041 15.2305 15.9815 15.2601 15.922L16.5342 13.6601L16.5046 10.7137C16.5046 10.5351 16.5935 10.3566 16.7416 10.2375L19.4676 8.15421C19.6158 8.03517 19.8231 8.00539 20.0009 8.06491C20.1787 8.12444 20.3269 8.27326 20.3565 8.45183L21.2157 11.3982L22.3417 13.7196L24.5639 15.5053C24.6528 15.5649 24.712 15.6839 24.7416 15.803L26.2824 21.0708L28.0602 23.0053L30.7565 24.6124C30.8157 24.6422 30.875 24.7017 30.9046 24.7315L32.6824 26.9041C32.7713 27.0231 32.8306 27.1422 32.8009 27.291L32.7416 30.2969L33.7787 32.4398L36.9194 33.6897C37.0379 33.7493 37.1565 33.8386 37.2157 33.9576L37.8972 35.2671C37.9861 35.4457 37.9861 35.654 37.8676 35.8326C37.8083 35.9814 37.6305 36.1005 37.4231 36.1005ZM4.71203 34.9398H36.475L36.3268 34.6421L33.1861 33.3921C33.0379 33.3326 32.949 33.2433 32.8898 33.0945L31.7046 30.6243C31.675 30.535 31.6453 30.4457 31.6453 30.3564L31.7046 27.4398L30.1046 25.5351L27.4083 23.9577C27.349 23.9279 27.3194 23.8981 27.2898 23.8386L25.3935 21.7255C25.3343 21.666 25.3046 21.5767 25.275 21.4874L23.7342 16.2791L21.5417 14.5232C21.4824 14.4637 21.4232 14.4042 21.3935 14.3149L20.1787 11.8447C20.1491 11.8149 20.149 11.7851 20.149 11.7554L19.5268 9.553L17.6898 10.9518L17.7194 13.7494C17.7194 13.8387 17.6898 13.9577 17.6305 14.047L16.3268 16.3387L16.0009 19.166C15.9712 19.4041 15.7935 19.6125 15.5564 19.672L11.675 20.4458L11.1416 22.8565C11.112 22.9756 11.0527 23.0946 10.9638 23.1839L9.00833 24.8505L10.1343 28.2731C10.2232 28.541 10.1046 28.8088 9.89722 28.9577L7.3787 30.5053L6.6083 32.9755C6.57867 33.0648 6.51941 33.154 6.46015 33.2136L4.71203 34.9398Z" fill="black"/>
<path d="M19.8225 9.79161C19.4966 9.79161 19.2595 9.52375 19.2595 9.22613V0.56548C19.2595 0.238101 19.5262 0 19.8225 0C20.1485 0 20.3855 0.267863 20.3855 0.56548V9.22613C20.3855 9.52375 20.1188 9.79161 19.8225 9.79161Z" fill="#DCC38B"/>
<path d="M22.0433 6.69683C21.1841 6.69683 20.3248 6.45873 19.4656 5.83374C19.3174 5.71469 19.2285 5.56589 19.2285 5.35756V1.84566C19.2285 1.63733 19.347 1.42901 19.5544 1.33973C19.7618 1.25044 19.9692 1.25043 20.147 1.39924C21.6581 2.53018 23.1692 1.96473 24.8877 1.30997C26.6655 0.655214 28.71 -0.0888504 30.7248 1.39924C30.9026 1.51828 30.9914 1.72663 30.9618 1.93496C30.9322 2.14329 30.8137 2.32186 30.6063 2.41114C30.31 2.53019 29.984 2.73851 29.6285 3.03613C30.0729 3.66113 30.4877 4.37541 30.9026 5.11945C31.0211 5.35754 30.9618 5.65517 30.7841 5.83374C30.5767 6.01231 30.2803 6.0123 30.0729 5.86349C28.5618 4.73255 27.0507 5.29803 25.3322 5.95279C24.2655 6.28017 23.1693 6.69683 22.0433 6.69683ZM20.384 5.05994C21.8063 5.95279 23.2581 5.44683 24.8877 4.82183C26.1618 4.34564 27.5544 3.83972 28.9766 4.10758C28.7692 3.80996 28.5914 3.51234 28.384 3.24448C28.2063 3.00639 28.2359 2.67902 28.4433 2.47069C28.71 2.23259 28.947 1.99448 29.2137 1.81591C27.9692 1.33972 26.6952 1.81592 25.3026 2.35163C23.7915 2.9171 22.1026 3.5421 20.384 2.79806V5.05994Z" fill="#DCC38B"/>
<path d="M22.5773 36.1001C22.4884 36.1001 22.4291 36.0703 22.3402 36.0406L17.2735 33.8382C17.0661 33.7489 16.918 33.5406 16.918 33.3025C16.918 33.0644 17.0661 32.8561 17.2735 32.7668L21.4809 30.9513L19.5254 29.3442C19.4365 29.2846 19.3772 29.1656 19.3476 29.0763L18.7254 26.9632L17.3032 24.8502C17.2143 24.7013 17.1846 24.5228 17.2143 24.374C17.2735 24.2252 17.3624 24.0763 17.5402 24.0168L21.3921 22.2609L18.8736 20.6538C18.6958 20.5347 18.6068 20.3561 18.6068 20.1478L18.7254 17.9455L18.992 15.8323L18.5476 14.255C18.5476 14.2252 18.5179 14.1657 18.5179 14.1359L18.3995 12.0824C18.3995 12.0229 18.3995 11.9336 18.4291 11.8741L19.318 9.0467C19.4069 8.74908 19.7328 8.5705 20.0291 8.65978C20.3254 8.74907 20.5032 9.07645 20.4143 9.37407L19.555 12.0824L19.6735 13.9574L20.1476 15.5943C20.1772 15.6538 20.1772 15.7431 20.1772 15.8323L19.9106 18.0347L19.8217 19.8502L22.9624 21.874C23.1402 21.993 23.2291 22.2014 23.2291 22.4097C23.2291 22.618 23.0809 22.7966 22.9031 22.8859L18.7254 24.7906L19.8217 26.4275C19.8513 26.4871 19.881 26.5168 19.9106 26.5764L20.5328 28.6001L23.0809 30.6834C23.2291 30.8025 23.318 31.0108 23.2883 31.2192C23.2587 31.4275 23.1402 31.5763 22.9328 31.6656L19.0809 33.3322L22.9328 34.9989C23.2291 35.1179 23.3476 35.4751 23.2291 35.7429C23.0217 35.9513 22.8143 36.1001 22.5773 36.1001Z" fill="#DCC38B"/>
<path d="M39.4371 40.0004H0.563006C0.23708 40.0004 0 39.7326 0 39.435V35.5362C0 35.2088 0.26671 34.9707 0.563006 34.9707H39.4371C39.763 34.9707 40 35.2386 40 35.5362V39.435C40 39.7326 39.7334 40.0004 39.4371 40.0004ZM1.12594 38.8397H38.8445V36.1017H1.12594V38.8397Z" fill="black"/>
</svg>
