<svg width="711" height="111" viewBox="0 0 711 111" fill="none" xmlns="http://www.w3.org/2000/svg">
<path d="M5.67285 4.45L4.42285 5.3L3.32285 6.95L2.37285 7.55L1.57285 7.4L0.722852 6.9L0.472852 5.9L0.772852 4.75L1.57285 3.35L3.32285 1.65L4.02285 1.2L4.77285 0.85L5.42285 0.649999L6.22285 0.499998L7.32285 0.449999L8.52285 0.6L9.37285 0.899999L10.5729 1.65L11.5729 2.9L11.8729 3.55L12.4229 5.8L12.3729 6.6L12.4229 7.45V8.25L10.6229 18.5L10.3729 19.25L9.87285 21.65L9.77285 22.5L9.62285 23.25V24.05L9.42285 24.85L9.32285 25.6L9.37285 29.7L9.62285 30.55L10.5729 31.65L11.2729 31.95H12.4729L13.3729 31.8L14.6229 31.25L15.8229 30.4L16.8729 29.3L17.8229 28.1L19.7729 24.6L19.9729 23.85L20.3729 23.2L20.7229 22.35L20.8729 21.55L21.2729 20.85L21.4729 20.1L21.8229 19.3L22.0729 18.45L22.4229 17.7L22.5229 16.85L23.0229 15.2L23.2229 14.4L23.5229 13.65L23.5729 12.85L23.8729 12.05L24.0729 11.2L24.1229 10.35L24.3229 9.5L24.5729 8.75L24.8229 7.9V7.05L25.2229 5.95L25.8229 4.95L26.5729 4.65L27.3729 4.7L28.1229 5.05L28.7729 5.55L28.9729 6.65L27.6229 16.6L27.6729 17.5L27.4229 23.1L27.4729 23.85V24.7L27.6229 25.55L27.5729 26.35L27.7229 27.15L27.7729 27.9L28.0229 28.7L28.0729 29.45L28.7229 31L29.1729 31.7L30.2729 31.95L31.3729 31.85L31.9729 31.55L32.6229 31.05L33.2229 30.45L34.5229 28.4L35.7229 26.1L36.4229 25.1L37.2729 24.4L38.0229 24.6L38.7229 25.1L38.7729 26.25L38.6229 27.35L36.4229 31.6L35.9229 32.25L35.3229 32.8L34.3229 34.05L33.1229 34.95L31.6729 35.6L30.8729 35.85L29.7729 35.95L28.6729 35.9L27.1229 35.4L25.9729 34.35L25.5729 33.75L25.2229 33L25.0729 32.3L24.7729 31.55L24.3729 29.9L24.3229 29.1L24.1729 28.25L24.0229 25.8L24.0729 24.95L24.0229 24.1L23.8229 23.65L23.4729 24L23.1729 24.75L22.9729 25.5L22.5729 26.2L21.9729 27.7L21.5729 28.4L21.2229 29.15L20.7229 29.8L20.3229 30.5L18.9229 32.45L17.7729 33.65L15.7729 35L15.1229 35.35L13.4729 35.85L12.3729 35.95L10.3729 35.85L8.17285 35.3L7.52285 34.95L6.62285 33.95L6.17285 33.35L5.72285 32.35L5.22285 30.55V29.7L5.12285 28.95V28.15L5.32285 25.75L5.47285 24.95L5.82285 21.6L6.17285 20.05L6.32285 18.35L6.92285 15.95L7.22285 13.55L7.62285 11.85L7.72285 11.05L7.97285 9.85L8.07285 8.7L8.27285 7.95L8.32285 7.2L8.17285 6.45L7.77285 5L6.77285 4.5L5.67285 4.45ZM77.9295 24.3L78.7295 24.35L79.3295 24.65L79.7795 25.25V26.3L79.5295 27.35L79.2295 28.05L78.8295 28.6L78.1795 30.05L77.7295 30.6L77.0295 31.85L76.4795 32.55L75.9295 33L75.4795 33.65L73.7795 35.05L73.0295 35.3L72.4295 35.65L70.6295 35.95L69.5795 35.75L69.0295 35.5L68.3795 35.05L67.7795 34.5L67.3795 33.95L66.5295 32.1L66.3295 31.2L66.2795 30.6L66.0795 29.85L65.9795 28.35L65.7795 28.05L65.5795 28.3L64.9295 29.7L64.4795 30.4L64.1795 31.15L63.5295 31.6L63.0795 32.2L61.7795 33.05L60.6295 33.1L59.5295 32.85L58.3795 32.25L57.9795 31.65L57.6295 31.05L57.1295 29.6L56.7795 29L56.6295 28.3L56.3795 27.85L55.8795 29.7L55.5795 30.3L55.4295 31.05L53.9295 33.75L53.0295 34.85L52.1295 35.65L51.1795 36.1L50.0795 36.2L48.9795 36.15L48.3795 36L47.7295 35.65L47.1295 35.25L46.1295 34.25L45.7295 33.35L45.1295 31.4L44.9295 29.85L44.9795 28.3L45.3795 25.5L45.9795 24.55L46.6295 24.3L47.4295 24.55L47.9295 25.1L48.1795 26.25L48.0295 27.25V27.95L47.9795 28.65L48.1295 29.4V30.15L48.4295 31.6L48.8795 32.15L49.7295 32.4L50.6295 32.15L51.0295 31.8L51.3795 31.5L51.8295 30.8L52.3795 29.6L52.7795 28.95L52.9795 28.2L53.2795 27.45L53.4295 26.6L53.9295 25.25L54.5795 22.9L54.8295 21.25L55.2795 19.75L55.6295 17.55L56.0295 16.45L56.5295 15.55L57.2295 15.35L57.9295 15.3L58.5795 15.4L59.1295 15.9L59.4295 16.85L59.4795 18.05L59.3295 18.8L59.3795 19.55L59.1795 21.2L59.2795 21.8L59.1795 23.3L59.3295 24.15V25.05L59.5295 27.15L60.0295 28.55L60.7795 29.15L61.5795 29L62.0795 28.55L62.4795 28.1L62.8295 27.55L63.1295 26.7L63.7795 25.5L64.0795 24.75L64.3795 23.15L64.6295 22.25L64.8795 21.7L65.0295 20.85L65.2795 20.1L65.8295 17.5L66.3795 16.55L67.0295 16.15L67.7795 16.05L68.5795 16.45L69.0795 16.75L69.4295 17.8L69.4795 20.4L69.3795 21.2V22L69.5295 22.75V23.5L69.3795 24.25L69.3295 25.05L69.4295 25.7L69.4795 26.55L69.5295 27.25L69.4795 27.95L69.5295 28.65L69.7295 29.55L69.7795 30.25L69.9795 30.9L70.2795 31.6L71.3295 31.9L72.2295 32L72.8295 31.5L73.4295 31.1L74.0295 30.6L74.4295 30.05L75.6295 28.15L75.9795 27.4L76.4295 26.8L77.2795 24.95L77.9295 24.3ZM83.1643 36.2H82.5143L81.6643 36.05L80.2643 35.5L79.5643 35.1L78.4643 33.95L78.1143 33.3L77.6643 32.7L77.2143 31.25L77.1143 30.55L77.3643 25L77.5643 24.2L77.8643 22L78.1643 21.2L78.4143 19.65L79.5143 16.4L80.1643 15.6L80.8643 15.3L81.6143 15.45L82.4643 15.7L82.8643 16.05L82.9643 17.25L82.8143 18.25L82.5643 19L82.4143 19.8L82.1143 20.45L81.8143 21.3L81.4643 22.85V23.45L81.6143 24L82.1643 23.75L82.7643 23.3L84.9143 22.35L87.3643 22.3L88.0143 22.55L88.8143 22.6L90.1143 23.25L91.6143 24.9L92.4143 27.05L92.4643 29.2L92.2643 30L92.4143 30.9L93.0143 31.2L93.9143 31.1L94.5643 30.8L95.1643 30.35L95.7643 29.7L96.2143 29.05L96.5643 28.4L97.0143 27.75L97.8143 24V22.45L98.0143 21.6L98.2643 18.65L98.4143 17.85V17.3L98.8143 16.15L99.4643 15.35L100.164 15.2L100.764 15.3L101.464 15.5L102.064 16L102.364 16.95V17.95L102.214 18.7V19.45L101.914 21.1V21.7L101.764 22.6V23.25L101.564 24.95V25.6L101.464 26.35L101.314 27L101.364 27.9L101.314 28.65L101.414 29.45V30.3L101.614 30.9L102.064 31.65L102.964 31.85L103.964 31.8L104.614 31.6L105.064 31.15L105.614 30.7L106.714 29.45L109.014 24.9L109.864 24.4H110.564L111.264 24.75L111.614 25.25L111.564 26.45L111.314 27.4L110.264 29.55L109.764 30.3L109.414 30.95L108.964 31.45L108.564 32.15L108.164 32.7L107.064 33.9L106.414 34.35L105.914 34.95L103.114 36L101.964 35.95L100.764 35.75L100.214 35.6L99.5143 35.25L98.9643 34.75L98.3143 33.35L97.5643 32.3H96.9643L95.9143 33.45L94.4643 34.15L93.8643 34.2L93.2143 34.45L91.7143 34.5L91.0643 34.3L90.1643 34.45L89.1143 34.8L86.3143 36.05L85.6143 36.1L84.4143 36.3L83.1643 36.2ZM85.5643 32.55L86.9143 31.85L87.2643 31L87.6643 29.25L88.2143 28.2L88.4643 27.35L88.2143 26.7L87.7643 26.15L87.2643 25.75L86.6143 25.45H85.5643L83.7143 25.55L83.0143 25.95L81.4143 27.5L80.9143 28.4L80.8643 29.45L81.0143 30.3L81.2143 30.85L82.1143 32L82.8143 32.4L84.6643 32.65L85.5643 32.55ZM141.486 24.4L142.136 24.45L142.836 24.85L143.236 25.45L143.286 26.45L142.936 27.4L142.536 28.1L142.236 28.95L141.536 30.3L141.086 30.7L140.636 31.25L140.186 32.05L139.686 32.65L138.486 33.5L137.936 33.85L137.236 34.2L136.436 34.45L133.486 34.4L132.786 34.25L131.886 34.1L128.336 35.85L127.536 36.05L124.636 36L123.986 35.7L123.336 35.65L121.486 34.65L120.936 34.2L119.736 32.45L118.636 29.65L118.336 26.65L118.186 26L118.086 24.3L118.186 23.55L118.086 22.1L118.236 21.45L118.186 19.75L118.336 19.05L118.836 15.15V14.55L119.036 13.75L119.086 13L119.336 12.4L119.486 10.85L120.086 8.55L120.986 5.75L121.386 5.1L121.586 4.45L121.936 3.7L122.836 2.55L123.886 1.55L124.586 1.1L125.236 0.799997L126.286 0.499998L127.286 0.449999L128.086 0.299998L130.186 0.999998L130.736 1.3L131.786 2.35L132.286 3.7L132.486 4.5L132.436 5.1L132.486 5.95V6.6L132.236 7.45L132.186 8.2L132.036 8.95L130.636 12.6L130.236 13.3L129.336 14.45V15.1L129.986 15.45L131.986 15.9L132.736 16.35L133.386 16.65L133.886 17.15L134.836 18.35L135.186 19.1L135.636 20.5L135.986 22.05L136.036 22.6V24.05L135.886 24.9V25.5L135.736 26.4L135.386 27.95L135.086 28.5L134.886 29.25L134.586 29.85V30.6L135.386 31L136.386 30.85L137.686 30.2L138.136 29.6L139.036 28.15L139.286 27.5L139.736 26.8L140.086 26.05L140.736 25.15L141.486 24.4ZM122.536 15.65L122.486 16.55L122.386 17.25L122.586 17.85L123.086 17.7L123.586 17.3L123.986 16.65L124.436 16.2L124.836 15.5L125.286 14.95L126.386 12.95L127.836 9.5L128.236 8.05L128.336 7.2L128.386 5.9L128.236 5.1L127.886 4.55L127.036 4.45L126.136 4.75L124.886 6.8L124.136 9L123.786 9.6L123.736 10.45L123.486 11.1L122.536 15.65ZM127.186 32.1L128.536 31.7L129.036 30.8L129.536 29.15L130.286 28.3L130.886 27.85L131.486 27.15L131.936 25.75L132.086 24.9V22.8L131.886 21.25L131.586 20.6L131.136 20.1L130.636 19.4L129.986 19.2L129.036 19.05L127.886 18.95L126.686 19.35L126.036 19.75L125.336 19.9L124.836 20.3L124.286 20.95L123.786 21.4L123.336 22L122.986 22.75L122.536 23.3L122.036 25.55V26.25L122.136 27L122.636 29.25L123.286 30.75L123.836 31.45L124.436 31.9L126.136 32.2L127.186 32.1ZM173.242 24.3L174.042 24.35L174.642 24.65L175.092 25.25V26.3L174.842 27.35L174.542 28.05L174.142 28.6L173.492 30.05L173.042 30.6L172.342 31.85L171.792 32.55L171.242 33L170.792 33.65L169.092 35.05L168.342 35.3L167.742 35.65L165.942 35.95L164.892 35.75L164.342 35.5L163.692 35.05L163.092 34.5L162.692 33.95L161.842 32.1L161.642 31.2L161.592 30.6L161.392 29.85L161.292 28.35L161.092 28.05L160.892 28.3L160.242 29.7L159.792 30.4L159.492 31.15L158.842 31.6L158.392 32.2L157.092 33.05L155.942 33.1L154.842 32.85L153.692 32.25L153.292 31.65L152.942 31.05L152.442 29.6L152.092 29L151.942 28.3L151.692 27.85L151.192 29.7L150.892 30.3L150.742 31.05L149.242 33.75L148.342 34.85L147.442 35.65L146.492 36.1L145.392 36.2L144.292 36.15L143.692 36L143.042 35.65L142.442 35.25L141.442 34.25L141.042 33.35L140.442 31.4L140.242 29.85L140.292 28.3L140.692 25.5L141.292 24.55L141.942 24.3L142.742 24.55L143.242 25.1L143.492 26.25L143.342 27.25V27.95L143.292 28.65L143.442 29.4V30.15L143.742 31.6L144.192 32.15L145.042 32.4L145.942 32.15L146.342 31.8L146.692 31.5L147.142 30.8L147.692 29.6L148.092 28.95L148.292 28.2L148.592 27.45L148.742 26.6L149.242 25.25L149.892 22.9L150.142 21.25L150.592 19.75L150.942 17.55L151.342 16.45L151.842 15.55L152.542 15.35L153.242 15.3L153.892 15.4L154.442 15.9L154.742 16.85L154.792 18.05L154.642 18.8L154.692 19.55L154.492 21.2L154.592 21.8L154.492 23.3L154.642 24.15V25.05L154.842 27.15L155.342 28.55L156.092 29.15L156.892 29L157.392 28.55L157.792 28.1L158.142 27.55L158.442 26.7L159.092 25.5L159.392 24.75L159.692 23.15L159.942 22.25L160.192 21.7L160.342 20.85L160.592 20.1L161.142 17.5L161.692 16.55L162.342 16.15L163.092 16.05L163.892 16.45L164.392 16.75L164.742 17.8L164.792 20.4L164.692 21.2V22L164.842 22.75V23.5L164.692 24.25L164.642 25.05L164.742 25.7L164.792 26.55L164.842 27.25L164.792 27.95L164.842 28.65L165.042 29.55L165.092 30.25L165.292 30.9L165.592 31.6L166.642 31.9L167.542 32L168.142 31.5L168.742 31.1L169.342 30.6L169.742 30.05L170.942 28.15L171.292 27.4L171.742 26.8L172.592 24.95L173.242 24.3ZM180.877 36.45L180.077 36.35L178.827 36.1L178.177 35.85L177.677 35.6L176.977 35.35L175.427 34.25L174.927 33.75L173.777 32.2L173.627 31.55L173.177 30.95L172.577 28.45V27.85L172.377 26.85L172.527 25.85L172.427 25.15L172.877 23.3L172.927 22.6L173.227 22.05L173.427 21.4L173.727 20.85L174.277 19.6L174.627 19.1L175.577 18.05L176.577 17.2L177.677 16.5L178.227 16.25L178.727 15.95L180.027 15.55L182.427 15.4L183.277 15.45L184.377 15.7L185.327 16.05L186.477 16.75L186.977 17.2L187.527 18L187.927 18.9L188.327 20.2L188.227 21.8L187.977 23.1L187.677 24.05L187.377 24.6L186.927 25.1L186.577 25.6L185.577 26.55L184.477 27.25L182.627 27.9L182.077 28L180.077 28.05L178.777 27.85L177.477 27.35L176.977 27.45L176.727 27.95L176.827 28.55L176.977 29.15L177.327 29.8L177.727 30.25L177.977 30.8L178.477 31.2L178.927 31.7L179.477 32L180.077 32.25L181.277 32.55L183.527 32.5L184.477 32.3L186.327 31.65L187.377 31.05L188.927 29.75L190.127 28.15L191.977 25.1L192.477 24.45H193.127L193.677 24.65L194.227 25L194.577 25.5L194.227 27.25L193.927 27.8L193.727 28.4L193.427 29.05L192.427 30.75L191.977 31.25L191.677 31.85L189.427 34.2L187.077 35.45L185.277 36.05L184.027 36.3L181.777 36.5L180.877 36.45ZM177.777 24.25L178.427 24.45L180.427 24.75L181.827 24.6L182.377 24.4L182.927 24.1L183.477 23.65L184.227 22.6L184.327 21.55L184.277 20.6L184.027 20.05L183.727 19.6L182.527 19.05L181.677 19.1L180.677 19.3L180.177 19.5L178.927 20.2L178.177 21.2L177.827 21.8L177.527 22.35L177.327 23L177.427 23.75L177.777 24.25ZM212.162 24.45L212.912 24.5L213.462 24.8L213.962 25.35L214.012 26.25L213.412 27.85L213.112 28.35L212.912 28.95L211.862 30.65L211.412 31.2L211.162 31.7L210.312 32.7L209.762 33.15L209.062 33.8L208.312 34.4L207.712 34.7L206.612 35.4L204.712 36L202.812 36.35L201.212 36.5L197.662 35.95L197.012 35.75L196.362 35.45L195.912 35.05L195.212 34.7L193.812 33.35L193.512 32.8L193.112 32.3L192.762 31.65L192.612 31.05L192.362 30.4L192.162 29.85L191.912 26.85L192.062 25.3V24.6L192.362 22.75L193.512 20.3L193.812 19.8L194.212 19.3L194.512 18.75L194.912 18.25L196.262 16.95L198.612 15.8L199.762 15.45L200.512 15.35L203.062 15.5L203.662 15.65L204.262 15.85L205.862 16.8L206.262 17.3L206.712 17.7L206.962 18.25L207.162 18.9L207.412 19.5L207.462 20.15L207.112 22.3L206.612 23.05L205.412 23.45H204.812L204.262 23.3L203.712 22.9L203.562 22.05L203.512 21.1L203.362 20.45L203.062 19.9L202.512 19.5L201.562 19.25H200.612L200.112 19.3L199.462 19.55L199.012 19.95L198.412 20.35L198.062 20.85L197.662 21.3L196.962 22.4L196.762 23.05L196.612 23.55L196.412 24.2L196.162 25.5L196.262 28.1L196.562 29.35L196.812 29.95L197.562 31L198.112 31.5L199.112 32.15L199.662 32.4L200.262 32.55L201.212 32.6L202.912 32.5L203.412 32.35L204.162 32.25L205.362 31.75L206.912 30.8L209.262 28.65L209.512 28.1L209.962 27.55L210.362 26.7L210.962 25.9L211.412 25L212.162 24.45ZM244.996 24.4L245.846 24.5L246.396 24.85L246.796 25.35V26.4L246.146 28.2L245.296 29.6L245.096 30.25L244.546 30.95L244.146 31.7L243.146 32.9L241.496 34.55L240.796 34.95L239.446 35.65L238.296 35.9L237.146 35.95L236.346 35.85L235.596 35.55L234.996 35.2L233.996 34.1L233.596 32.6L233.296 31.85V31.1L233.146 30.3V27.9L233.396 26.25V25.5L233.546 23.15L233.746 21.95V20.8L233.396 20.15L232.796 19.7L232.096 19.55L230.996 19.95L229.796 20.5L228.096 22.1L227.596 22.8L227.196 23.55L226.296 27.4L225.996 30.45L226.046 32L226.246 32.75L226.296 34.6L225.946 35.55L225.296 35.9L224.646 36.05L223.896 36L223.096 35.75L222.396 34.8L222.246 33.75L222.096 32.2L222.196 29L222.446 27.4V26.65L222.696 25.85L222.796 24.95L223.296 23.05L223.396 21.9L222.896 21.2L222.346 20.9L221.646 20.85L219.896 21.65L218.896 22.3L217.696 23.5L216.746 24.85L216.146 26.3L215.696 27.05L215.246 29.1L215.046 31.15L215.196 33.65L215.096 34.8L214.646 35.8L213.896 36.1H212.346L211.546 35.85L211.046 34.85L210.846 33.75L211.046 32.2L211.146 26.65L211.296 25.9L211.546 21.15L211.746 20.3L211.946 18L212.196 16.85L212.896 15.95L213.696 15.75L214.546 15.7L215.446 15.95L215.846 16.85L215.996 18.05L215.646 20.5L215.796 21L216.346 20.75L216.696 20.1L217.796 18.9L219.946 17.65L220.696 17.3L223.096 17.05L223.996 17.15L224.746 17.45L225.496 17.9L225.846 18.5L226.496 18.85L227.096 18.7L229.496 16.6L231.046 15.95L231.746 15.75L232.896 15.6L234.046 15.65L234.796 15.8L236.246 16.55L236.746 17L237.246 17.65L237.846 19.05L237.996 19.8L237.946 21.75L237.096 26.85L237.146 27.65L236.946 28.5L237.096 30.9L237.446 31.55L238.346 31.95L239.496 31.85L240.396 31.15L241.146 30.3L243.346 26.9L243.596 26.1L244.246 25.1L244.996 24.4ZM252.556 36.45L251.756 36.35L250.506 36.1L249.856 35.85L249.356 35.6L248.656 35.35L247.106 34.25L246.606 33.75L245.456 32.2L245.306 31.55L244.856 30.95L244.256 28.45V27.85L244.056 26.85L244.206 25.85L244.106 25.15L244.556 23.3L244.606 22.6L244.906 22.05L245.106 21.4L245.406 20.85L245.956 19.6L246.306 19.1L247.256 18.05L248.256 17.2L249.356 16.5L249.906 16.25L250.406 15.95L251.706 15.55L254.106 15.4L254.956 15.45L256.056 15.7L257.006 16.05L258.156 16.75L258.656 17.2L259.206 18L259.606 18.9L260.006 20.2L259.906 21.8L259.656 23.1L259.356 24.05L259.056 24.6L258.606 25.1L258.256 25.6L257.256 26.55L256.156 27.25L254.306 27.9L253.756 28L251.756 28.05L250.456 27.85L249.156 27.35L248.656 27.45L248.406 27.95L248.506 28.55L248.656 29.15L249.006 29.8L249.406 30.25L249.656 30.8L250.156 31.2L250.606 31.7L251.156 32L251.756 32.25L252.956 32.55L255.206 32.5L256.156 32.3L258.006 31.65L259.056 31.05L260.606 29.75L261.806 28.15L263.656 25.1L264.156 24.45H264.806L265.356 24.65L265.906 25L266.256 25.5L265.906 27.25L265.606 27.8L265.406 28.4L265.106 29.05L264.106 30.75L263.656 31.25L263.356 31.85L261.106 34.2L258.756 35.45L256.956 36.05L255.706 36.3L253.456 36.5L252.556 36.45ZM249.456 24.25L250.106 24.45L252.106 24.75L253.506 24.6L254.056 24.4L254.606 24.1L255.156 23.65L255.906 22.6L256.006 21.55L255.956 20.6L255.706 20.05L255.406 19.6L254.206 19.05L253.356 19.1L252.356 19.3L251.856 19.5L250.606 20.2L249.856 21.2L249.506 21.8L249.206 22.35L249.006 23L249.106 23.75L249.456 24.25ZM294.326 24.65L295.026 24.25L295.726 24.3L296.326 24.75L296.826 25.35L296.726 26.35L296.476 27.3L295.426 29.4L293.876 31.85L293.226 32.5L292.176 33.4L291.526 33.85L290.776 34.15L290.076 34.3L289.026 34.35L285.626 34.15L284.676 34.55L282.676 35.6L280.076 36.1H279.276L277.426 35.9L276.026 35.35L274.776 34.4L273.626 32.9L273.026 31.85L272.826 31.15L272.576 30.6L272.376 27.45V26.25L272.626 25.1V24.4L272.926 23.8L273.026 22.9L273.626 21.65L273.826 21L274.226 20.45L274.476 19.65L275.076 19.2L275.476 18.45L277.776 16.55L278.476 16.2L279.076 16.05L279.726 15.7L280.526 15.75L281.176 15.5L282.376 15.4L283.376 15.5L284.626 16.05V15.6L284.326 14.85L283.876 14.35L282.526 12.5L281.426 10.55L280.576 8.4V7.55L280.326 6.9V5.3L280.526 3.8L280.876 3.1L281.326 2.45L281.876 1.9L282.476 1.45L283.776 0.899999L286.076 0.949998L286.876 1.1L287.626 0.999998L289.176 1.1L289.926 0.85L290.976 0.799997L292.076 1.1L292.476 1.8L292.626 2.45L292.376 3.3L291.626 3.85L290.776 4.35L289.326 4.7L288.576 4.75L285.426 4.5L284.526 4.95L284.376 5.5V6.35L284.526 7.2L284.776 7.9L284.926 8.65L285.226 9.45L285.726 10.05L285.976 10.65L287.126 12.65L287.676 13.15L288.076 13.95L288.226 14.7L289.076 16.6L289.226 17.45L289.426 18.15L289.526 19L289.726 19.6L289.876 20.35L289.826 21.25L289.926 21.75L289.826 22.55V23.4L289.476 26.5L288.776 28.7L288.626 29.3L288.326 30.15L288.176 30.9L289.076 31.2L290.126 30.9L291.726 29.4L292.176 28.8L292.626 28.05L293.276 26.65L293.726 26.1L294.326 24.65ZM280.726 32.25L281.376 32.05L281.926 31.6L282.526 30.8L282.776 30.05L282.926 29.35L283.176 28.7L283.776 28.3L284.626 27.8L285.376 26.3L285.626 25.15L285.376 21.5L285.176 20.75L284.726 20.1L284.076 19.6L283.576 19.4L282.376 19.2H281.176L280.526 19.4L278.776 20.65L278.426 21.35L277.976 21.75L277.376 23.15L277.176 23.95L276.826 24.65L276.476 27.5V29.1L276.976 30.6L277.376 31.25L277.826 31.65L278.576 32.1L279.626 32.25H280.726ZM316.106 24.45L316.856 24.6L317.456 25.2V26.35L317.156 27.55L316.856 28.25L316.406 28.95L316.106 29.7L315.206 31L314.506 32.35L314.006 33L313.606 33.65L309.656 38.1L309.256 39.2L309.156 40.8L309.006 41.65L308.556 43.2L308.156 44L307.756 44.7L307.406 45.45L305.756 47.3L305.056 47.65L304.456 48.05L303.656 48.35L302.856 48.55L301.756 48.6L300.556 48.55L299.856 48.3L299.006 47.95L298.506 47.45L297.506 46.3L297.256 45.55L297.156 44.8L297.206 44V43.35L298.156 41.25L298.606 40.65L300.456 39.1L302.556 37.85L303.256 37.5L304.606 36.7L305.306 35.9L305.806 34.8L306.006 33.1L305.856 32.6L305.356 32.8L303.606 34.5L302.956 34.95L301.406 35.65L300.556 35.95L299.456 36.05L298.256 36L297.406 35.8L296.656 35.55L296.056 35.2L295.506 34.8L294.406 33.5L293.856 32.1L293.556 30.5V29.25L293.806 26.45L294.056 25.6L294.706 21.65L294.756 19.65L294.556 18.75L293.406 18.65L292.506 18.35L292.156 17.6L292.606 16.65L293.356 15.8L294.006 15.5L294.856 15.3L295.606 15.25L297.056 15.6L297.856 16.05L298.356 16.6L298.806 17.25L299.006 18.45L298.956 19.55L298.706 20.75L298.606 21.9L298.406 22.7L298.256 24.35L298.056 25.15L297.906 26V26.75L297.756 27.65L297.856 30.75L298.206 31.45L298.656 32L299.806 32.15L301.056 32.1L302.456 31.45L303.006 30.95L303.656 30.45L304.556 29.15L305.706 26.9L306.456 23.05L306.556 21.5L307.356 16.5L307.906 15.65L308.656 15.5L309.456 15.55L310.106 15.75L310.806 16.15L310.956 17.15L311.056 18.25L310.006 29.65L309.806 30.5L309.706 32.15L310.006 32.75L310.506 32.6L312.156 30.05L312.706 29.4L313.306 28.1L313.706 27.4L314.456 25.95L315.156 25.05L316.106 24.45ZM302.906 44.8L303.556 44.35L304.456 43.15L305.106 41.65L305.306 40.9L305.156 40.25L304.606 40.3L303.806 40.7L302.206 41.9L301.456 42.85L301.156 43.65L301.056 44.4L301.906 44.9L302.906 44.8ZM337.71 24.35L338.56 24.65L339.21 25.15V26.2L339.01 27.4L338.51 28.2L338.26 28.9L337.76 29.55L337.46 30.3L337.01 31L336.66 31.65L334.81 34.25L334.21 34.9L333.81 35.55L331.91 37.3L331.26 38.2L330.76 39.95V40.8L329.81 43.9L329.46 44.65L328.96 45.4L328.01 46.65L327.36 47.2L326.66 47.7L326.06 48L325.31 48.3L324.56 48.5L322.11 48.55L320.66 47.9L319.56 46.95L319.11 46.25L318.81 45.55L318.76 44L318.86 43.25L319.81 41.15L321.51 39.45L322.11 39L325.56 37.1L326.31 36.75L327.06 35.95L327.41 34.6L327.61 33.3L327.31 32.8L326.81 32.9L326.36 33.45L325.36 34.15L323.61 35.05L322.21 35.4L321.01 35.5L319.86 35.4L319.11 35.3L318.41 35L317.21 34.2L316.56 33.6L315.31 31.75L314.66 29.45L314.56 28.65L314.61 27.8L314.56 27.1L314.76 26.3L315.06 23.9L315.86 21.6L316.26 20.9L316.61 20.1L317.16 19.45L317.51 18.8L318.81 17.6L319.46 17.15L320.06 16.7L321.61 16.05L323.26 15.7L325.66 15.6L328.11 16.05L328.71 16.4L329.56 16.65L330.36 16.95L331.71 17.85L332.26 18.8L332.41 19.95V21.4L332.21 22.2L332.06 25.4L331.91 26.15V26.9L331.76 27.7L331.66 28.45L331.71 29.25L331.51 30V30.85L331.36 32.35L331.56 32.8L332.01 32.65L332.56 32L332.86 31.45L333.41 30.8L334.26 29.45L334.56 28.75L334.96 28.1L335.41 27.4L335.81 26.75L336.81 25L337.71 24.35ZM323.41 31.45L324.11 31.2L324.71 30.8L325.41 30.25L325.96 29.75L326.76 28.4L327.01 27.65L327.71 26.15L327.96 24.6L328.06 23.8L328.21 22.95L328.31 21.5L327.91 20.45L327.16 19.75L326.46 19.4L325.76 19.3L324.96 19.25L324.11 19.3L322.66 19.85L321.96 20.3L321.36 20.8L320.31 22L319.01 24.95L318.51 27.25L318.71 28.8L318.86 29.55L319.16 30.2L319.66 30.8L320.36 31.3L320.96 31.6H322.16L323.41 31.45ZM324.56 44.85L325.21 44.5L325.71 44L326.16 43.3L327.06 40.95L326.71 40.3H326.16L325.41 40.8L323.91 42.15L323.11 43L322.76 43.7V44.45L323.61 44.95L324.56 44.85ZM345.037 36.45L344.237 36.35L342.987 36.1L342.337 35.85L341.837 35.6L341.137 35.35L339.587 34.25L339.087 33.75L337.937 32.2L337.787 31.55L337.337 30.95L336.737 28.45V27.85L336.537 26.85L336.687 25.85L336.587 25.15L337.037 23.3L337.087 22.6L337.387 22.05L337.587 21.4L337.887 20.85L338.437 19.6L338.787 19.1L339.737 18.05L340.737 17.2L341.837 16.5L342.387 16.25L342.887 15.95L344.187 15.55L346.587 15.4L347.437 15.45L348.537 15.7L349.487 16.05L350.637 16.75L351.137 17.2L351.687 18L352.087 18.9L352.487 20.2L352.387 21.8L352.137 23.1L351.837 24.05L351.537 24.6L351.087 25.1L350.737 25.6L349.737 26.55L348.637 27.25L346.787 27.9L346.237 28L344.237 28.05L342.937 27.85L341.637 27.35L341.137 27.45L340.887 27.95L340.987 28.55L341.137 29.15L341.487 29.8L341.887 30.25L342.137 30.8L342.637 31.2L343.087 31.7L343.637 32L344.237 32.25L345.437 32.55L347.687 32.5L348.637 32.3L350.487 31.65L351.537 31.05L353.087 29.75L354.287 28.15L356.137 25.1L356.637 24.45H357.287L357.837 24.65L358.387 25L358.737 25.5L358.387 27.25L358.087 27.8L357.887 28.4L357.587 29.05L356.587 30.75L356.137 31.25L355.837 31.85L353.587 34.2L351.237 35.45L349.437 36.05L348.187 36.3L345.937 36.5L345.037 36.45ZM341.937 24.25L342.587 24.45L344.587 24.75L345.987 24.6L346.537 24.4L347.087 24.1L347.637 23.65L348.387 22.6L348.487 21.55L348.437 20.6L348.187 20.05L347.887 19.6L346.687 19.05L345.837 19.1L344.837 19.3L344.337 19.5L343.087 20.2L342.337 21.2L341.987 21.8L341.687 22.35L341.487 23L341.587 23.75L341.937 24.25ZM389.772 24.4L390.622 24.5L391.172 24.85L391.572 25.35V26.4L390.922 28.2L390.072 29.6L389.872 30.25L389.322 30.95L388.922 31.7L387.922 32.9L386.272 34.55L385.572 34.95L384.222 35.65L383.072 35.9L381.922 35.95L381.122 35.85L380.372 35.55L379.772 35.2L378.772 34.1L378.372 32.6L378.072 31.85V31.1L377.922 30.3V27.9L378.172 26.25V25.5L378.322 23.15L378.522 21.95V20.8L378.172 20.15L377.572 19.7L376.872 19.55L375.772 19.95L374.572 20.5L372.872 22.1L372.372 22.8L371.972 23.55L371.072 27.4L370.772 30.45L370.822 32L371.022 32.75L371.072 34.6L370.722 35.55L370.072 35.9L369.422 36.05L368.672 36L367.872 35.75L367.172 34.8L367.022 33.75L366.872 32.2L366.972 29L367.222 27.4V26.65L367.472 25.85L367.572 24.95L368.072 23.05L368.172 21.9L367.672 21.2L367.122 20.9L366.422 20.85L364.672 21.65L363.672 22.3L362.472 23.5L361.522 24.85L360.922 26.3L360.472 27.05L360.022 29.1L359.822 31.15L359.972 33.65L359.872 34.8L359.422 35.8L358.672 36.1H357.122L356.322 35.85L355.822 34.85L355.622 33.75L355.822 32.2L355.922 26.65L356.072 25.9L356.322 21.15L356.522 20.3L356.722 18L356.972 16.85L357.672 15.95L358.472 15.75L359.322 15.7L360.222 15.95L360.622 16.85L360.772 18.05L360.422 20.5L360.572 21L361.122 20.75L361.472 20.1L362.572 18.9L364.722 17.65L365.472 17.3L367.872 17.05L368.772 17.15L369.522 17.45L370.272 17.9L370.622 18.5L371.272 18.85L371.872 18.7L374.272 16.6L375.822 15.95L376.522 15.75L377.672 15.6L378.822 15.65L379.572 15.8L381.022 16.55L381.522 17L382.022 17.65L382.622 19.05L382.772 19.8L382.722 21.75L381.872 26.85L381.922 27.65L381.722 28.5L381.872 30.9L382.222 31.55L383.122 31.95L384.272 31.85L385.172 31.15L385.922 30.3L388.122 26.9L388.372 26.1L389.022 25.1L389.772 24.4ZM420.766 24.35L421.616 24.65L422.266 25.15V26.2L422.066 27.4L421.566 28.2L421.316 28.9L420.816 29.55L420.516 30.3L420.066 31L419.716 31.65L417.866 34.25L417.266 34.9L416.866 35.55L414.966 37.3L414.316 38.2L413.816 39.95V40.8L412.866 43.9L412.516 44.65L412.016 45.4L411.066 46.65L410.416 47.2L409.716 47.7L409.116 48L408.366 48.3L407.616 48.5L405.166 48.55L403.716 47.9L402.616 46.95L402.166 46.25L401.866 45.55L401.816 44L401.916 43.25L402.866 41.15L404.566 39.45L405.166 39L408.616 37.1L409.366 36.75L410.116 35.95L410.466 34.6L410.666 33.3L410.366 32.8L409.866 32.9L409.416 33.45L408.416 34.15L406.666 35.05L405.266 35.4L404.066 35.5L402.916 35.4L402.166 35.3L401.466 35L400.266 34.2L399.616 33.6L398.366 31.75L397.716 29.45L397.616 28.65L397.666 27.8L397.616 27.1L397.816 26.3L398.116 23.9L398.916 21.6L399.316 20.9L399.666 20.1L400.216 19.45L400.566 18.8L401.866 17.6L402.516 17.15L403.116 16.7L404.666 16.05L406.316 15.7L408.716 15.6L411.166 16.05L411.766 16.4L412.616 16.65L413.416 16.95L414.766 17.85L415.316 18.8L415.466 19.95V21.4L415.266 22.2L415.116 25.4L414.966 26.15V26.9L414.816 27.7L414.716 28.45L414.766 29.25L414.566 30V30.85L414.416 32.35L414.616 32.8L415.066 32.65L415.616 32L415.916 31.45L416.466 30.8L417.316 29.45L417.616 28.75L418.016 28.1L418.466 27.4L418.866 26.75L419.866 25L420.766 24.35ZM406.466 31.45L407.166 31.2L407.766 30.8L408.466 30.25L409.016 29.75L409.816 28.4L410.066 27.65L410.766 26.15L411.016 24.6L411.116 23.8L411.266 22.95L411.366 21.5L410.966 20.45L410.216 19.75L409.516 19.4L408.816 19.3L408.016 19.25L407.166 19.3L405.716 19.85L405.016 20.3L404.416 20.8L403.366 22L402.066 24.95L401.566 27.25L401.766 28.8L401.916 29.55L402.216 30.2L402.716 30.8L403.416 31.3L404.016 31.6H405.216L406.466 31.45ZM407.616 44.85L408.266 44.5L408.766 44L409.216 43.3L410.116 40.95L409.766 40.3H409.216L408.466 40.8L406.966 42.15L406.166 43L405.816 43.7V44.45L406.666 44.95L407.616 44.85ZM425.944 36.05L425.644 35.95H425.344L424.894 35.9L424.594 35.85L424.194 35.8L423.894 35.7L422.844 35.1L422.594 34.95L421.994 34.55L421.344 33.9L421.094 33.55L420.794 33.05L420.644 32.75L420.494 32.5L420.344 32.2L419.844 30.65L419.794 30.35L419.744 30L419.694 29.7L419.494 27.35V27.05L419.544 26.1L419.594 25.8L419.694 25.4L419.794 25.1L419.844 24.75L419.894 24.45L420.544 22.25L420.644 21.95L420.794 21.7L420.894 21.4L421.744 20L421.894 19.75L422.094 19.4L422.294 19.2L422.944 18.45L423.144 18.25L424.394 17.15L424.644 17L425.844 16.4L426.144 16.3L427.444 15.8L427.744 15.75L430.044 15.7H430.344L430.694 15.75L430.994 15.85L432.294 16.25L432.594 16.3L433.294 16.45L433.544 16.35L433.844 16L434.044 15.8L434.494 15.45L434.744 15.35L435.794 15.4H436.094L436.394 15.45L436.694 15.6L436.794 15.7L436.994 15.95L437.244 16.5L437.344 16.8L437.444 17.4V17.7L437.294 18.75V19.4L437.144 20.3L436.994 21.3V21.6L436.944 23.3L436.894 23.6L436.844 24L436.794 24.3L436.844 25.2L436.794 25.5L436.744 25.9L436.694 26.2L436.744 27.85L436.694 28.15L436.644 28.5L436.594 28.8L436.744 29.75V30.4L436.794 30.7L436.994 31.05L437.144 31.3L437.394 31.55L437.644 31.75L438.144 31.85L438.444 31.9L438.994 31.8L439.294 31.75L439.794 31.45L440.994 30.25L441.194 30L441.494 29.5L441.794 29.15L441.944 28.9L442.094 28.5L442.244 28.25L442.544 27.9L442.694 27.65L443.194 26.7L443.294 26.4L443.394 26.05L443.544 25.8L443.894 25.15L444.644 24.55L444.894 24.45H445.194L445.494 24.5L445.744 24.6L445.994 24.75L446.344 24.95L446.494 25.15L446.644 25.4L446.694 25.7L446.594 26.35L446.544 26.65L446.194 27.7L446.044 28L445.844 28.35L445.694 28.65L445.594 28.9L445.444 29.15L444.894 30.05L444.444 30.8L443.894 31.65L443.744 31.9L443.594 32.2L443.444 32.45L442.344 33.65L442.144 33.85L441.744 34.05L441.294 34.5L441.044 34.7L440.544 35.05L440.244 35.2L439.844 35.45L439.544 35.55L438.244 35.85L437.944 35.9L437.244 35.95H436.944L436.544 35.85L436.244 35.8L435.944 35.65L435.444 35.35L435.244 35.1L434.994 34.85L434.844 34.65L434.594 34.25L434.444 34.05L434.194 33.7L433.894 33.2L433.794 32.9L433.744 32.45L433.644 32.15L433.544 32.05L433.344 31.95L433.094 32.05L432.844 32.2L431.444 34L431.244 34.2L430.394 34.8L430.194 34.95L429.944 35.1L429.644 35.2L428.094 35.85L427.794 35.9L426.244 36.05H425.944ZM428.244 31.9L428.644 31.75L428.944 31.6L429.694 31.15L429.944 30.95L430.094 30.7L430.294 30.5L430.944 29.8L431.144 29.6L431.344 29.2L431.494 28.95L432.394 26.6L432.494 26.3L432.744 25.1L432.794 24.8L432.944 23.75L432.994 23.45L433.094 23.15L433.144 22.85V22.5L433.244 21.9V21.3L433.194 21L433.044 20.5L432.894 20.25L432.544 19.9L432.294 19.75L431.894 19.6L431.594 19.5L430.644 19.35H430.344L429.644 19.4H429.344L428.744 19.5L428.444 19.6L428.094 19.75L427.794 19.9L426.944 20.4L426.694 20.6L426.444 20.85L426.244 21.1L425.644 21.9L425.494 22.15L424.294 24.25L424.194 24.55L423.894 25.5L423.844 25.8L423.744 26.2L423.694 26.5L423.594 26.8L423.544 27.1L423.594 28.85L423.644 29.15L423.744 29.45L423.794 29.75L423.894 30.15L423.994 30.45L424.294 30.95L424.994 31.7L425.194 31.85L425.594 32.1L425.844 32.2H426.044L426.344 32.25L427.944 31.95L428.244 31.9ZM466.611 24.45L467.311 24.5L468.011 24.85L468.511 25.4L468.461 26.5L468.161 27.5L466.561 30.35L465.611 31.7L464.561 32.9L462.761 34.3L462.011 34.65L461.261 34.9L460.011 35.1L458.461 35.05L457.361 34.8H456.411L455.311 35.15L453.961 35.85L452.611 36.35L451.111 36.7L448.711 36.65L447.861 36.9L447.361 37.7L446.961 41.65L446.811 42.4L446.761 43.2L446.411 46.45L446.111 47.5L445.361 48.4L444.511 48.5L443.661 48.45L442.861 48.2L442.461 47.25L442.761 43.8L443.011 43.05L443.111 42.3L443.061 41.5L443.111 40.7L443.311 39.95L443.361 39.2L443.511 38.3L443.611 36.75L443.711 35.95V35.1L443.961 33.55V32.7L444.061 31.9L444.011 31.1L444.111 30.35V29.5L444.211 27.9L444.061 22.3L443.911 21.5V19.85L443.611 18.25L443.561 17.05L443.911 16.1L444.561 15.7L445.361 15.45L446.061 15.5L446.711 15.7L447.361 16.65L447.561 18.75L448.011 19.35L448.461 19.15L450.911 16.95L453.061 15.9L455.461 15.55L457.061 15.7L458.461 16.25L459.111 16.7L460.261 17.8L461.161 19.15L461.461 19.85L461.811 21.8L461.711 24.6L461.361 26.2L461.061 26.95L460.911 27.65L460.561 28.5L460.361 29.25L459.861 29.9L459.561 30.6L459.411 31.35L460.361 31.65L461.411 31.25L462.061 30.85L462.711 30.35L463.111 29.7L463.711 29.1L464.061 28.4L464.561 27.6L465.261 26.15L465.911 25.15L466.611 24.45ZM449.011 32.9L449.811 33L450.761 32.95L452.261 32.6L452.961 32.25L453.661 31.4L454.611 29.5L455.211 29L456.161 28.3L456.811 27.45L457.161 26.65L457.561 25.05L457.661 22.2L457.461 21L457.161 20.35L456.661 19.75L455.911 19.35L455.311 19.2L453.711 19.45L451.661 20.65L450.511 21.85L449.161 23.95L448.411 25.45L448.161 26.55L448.061 30L447.861 31.5L448.311 32.35L449.011 32.9ZM470.035 36L469.235 35.8L468.585 35.55L467.235 34.65L466.785 34.05L466.385 33.4L465.585 31.2L465.485 30.45L465.685 28.1L465.635 27.3L465.785 25.75L466.035 25V24.2L466.185 23.4L466.485 22.7L466.685 21.85L466.785 19.9L466.735 18.9L465.585 18.7L464.585 18.4L464.185 17.7L464.585 16.6L465.235 15.8L466.035 15.45L466.785 15.3L467.585 15.25L468.485 15.35L469.185 15.7L469.835 16.1L470.385 16.55L470.735 17.25L470.885 18.5L470.585 22.15L470.135 24.55L469.935 25.3V26.1L469.735 26.95L469.635 27.75L469.685 28.5V29.75L469.885 30.85L470.135 31.55L470.685 32L471.735 32.15L472.885 32.1L473.635 31.8L474.935 30.95L475.985 29.9L476.385 29.2L476.735 28.5L477.185 27.75L478.135 24.6L478.285 23.4V22.25L478.785 19.1L478.735 18.25L479.235 16.4L479.935 15.6L480.735 15.55L481.535 15.65L482.235 16.05L482.735 17L482.785 18.2L482.685 19L482.485 19.8L482.535 20.5L482.435 21.3L482.235 22.1L481.885 26.75L481.985 27.6L481.835 28.35V29.1L481.935 29.9L482.135 30.7L482.385 31.4L483.235 31.9L484.285 31.8L484.985 31.45L485.535 30.95L486.635 29.65L486.985 28.95L487.535 28.3L487.935 27.6L488.235 26.85L489.235 25.15L489.985 24.45L490.735 24.5L491.335 24.8L491.835 25.35L491.735 26.4L490.735 28.95L490.335 29.65L489.835 30.35L489.535 31.1L488.585 32.45L486.935 34.15L484.885 35.55L484.185 35.8L483.335 35.95L482.085 35.9L481.085 35.65L480.335 35.2L479.785 34.55L479.135 33.05L478.935 32.25L478.485 31.75L478.035 31.95L477.135 33.25L475.185 34.8L474.585 35.2L473.885 35.5L473.135 35.75L470.035 36ZM522.877 24.4L523.727 24.5L524.277 24.85L524.677 25.35V26.4L524.027 28.2L523.177 29.6L522.977 30.25L522.427 30.95L522.027 31.7L521.027 32.9L519.377 34.55L518.677 34.95L517.327 35.65L516.177 35.9L515.027 35.95L514.227 35.85L513.477 35.55L512.877 35.2L511.877 34.1L511.477 32.6L511.177 31.85V31.1L511.027 30.3V27.9L511.277 26.25V25.5L511.427 23.15L511.627 21.95V20.8L511.277 20.15L510.677 19.7L509.977 19.55L508.877 19.95L507.677 20.5L505.977 22.1L505.477 22.8L505.077 23.55L504.177 27.4L503.877 30.45L503.927 32L504.127 32.75L504.177 34.6L503.827 35.55L503.177 35.9L502.527 36.05L501.777 36L500.977 35.75L500.277 34.8L500.127 33.75L499.977 32.2L500.077 29L500.327 27.4V26.65L500.577 25.85L500.677 24.95L501.177 23.05L501.277 21.9L500.777 21.2L500.227 20.9L499.527 20.85L497.777 21.65L496.777 22.3L495.577 23.5L494.627 24.85L494.027 26.3L493.577 27.05L493.127 29.1L492.927 31.15L493.077 33.65L492.977 34.8L492.527 35.8L491.777 36.1H490.227L489.427 35.85L488.927 34.85L488.727 33.75L488.927 32.2L489.027 26.65L489.177 25.9L489.427 21.15L489.627 20.3L489.827 18L490.077 16.85L490.777 15.95L491.577 15.75L492.427 15.7L493.327 15.95L493.727 16.85L493.877 18.05L493.527 20.5L493.677 21L494.227 20.75L494.577 20.1L495.677 18.9L497.827 17.65L498.577 17.3L500.977 17.05L501.877 17.15L502.627 17.45L503.377 17.9L503.727 18.5L504.377 18.85L504.977 18.7L507.377 16.6L508.927 15.95L509.627 15.75L510.777 15.6L511.927 15.65L512.677 15.8L514.127 16.55L514.627 17L515.127 17.65L515.727 19.05L515.877 19.8L515.827 21.75L514.977 26.85L515.027 27.65L514.827 28.5L514.977 30.9L515.327 31.55L516.227 31.95L517.377 31.85L518.277 31.15L519.027 30.3L521.227 26.9L521.477 26.1L522.127 25.1L522.877 24.4ZM543.337 24.65L543.887 24.5L544.537 24.45L545.187 24.7L545.687 25.15L545.737 26.25L545.337 27.45L543.987 30.25L543.487 30.7L543.087 31.3L540.837 33.55L539.437 34.25L537.587 34.45L536.637 34.35H535.787L534.887 34.25L532.687 35.55L531.937 35.85L530.837 36L527.437 36.15L525.087 35.55L524.537 34.95L523.837 34.65L522.887 33.4L522.337 32L521.987 30.35L521.887 29.1L522.037 27.25L521.987 26.6L522.037 25.85L522.687 22.7L522.737 21.85L523.787 18.25L523.887 17.55L524.437 16.4L525.137 15.65L525.887 15.35L526.637 15.4L527.287 15.6L527.837 16.15L527.887 17.2L527.687 18.35L527.387 19L526.637 22L526.387 22.65L526.187 23.5L526.387 24L526.987 23.85L527.587 23.25L528.387 22.95L529.187 22.6L529.837 22.45L532.987 22.5L535.587 23.85L536.137 24.4L536.487 25.05L537.287 26.95L537.337 28.55L537.237 29.35L537.037 30L537.137 30.75L537.937 31.15L538.937 30.9L540.087 30L540.537 29.55L540.987 28.75L541.437 28.2L542.837 25.3L543.337 24.65ZM529.837 32.6L530.437 32.5L531.737 32L532.087 31L532.387 29.9L533.187 28.2L533.387 27.35L533.137 26.75L532.687 26.15L532.087 25.6L531.487 25.4H529.387L528.687 25.6L527.937 26.1L527.287 26.35L526.787 26.85L525.987 28.4L525.837 29.55L525.887 30.35L526.137 30.85L526.637 31.55L527.687 32.45L528.387 32.75H529.037L529.837 32.6ZM572.269 24.45L573.019 24.5L573.569 24.8L574.069 25.35L574.119 26.25L573.519 27.85L573.219 28.35L573.019 28.95L571.969 30.65L571.519 31.2L571.269 31.7L570.419 32.7L569.869 33.15L569.169 33.8L568.419 34.4L567.819 34.7L566.719 35.4L564.819 36L562.919 36.35L561.319 36.5L557.769 35.95L557.119 35.75L556.469 35.45L556.019 35.05L555.319 34.7L553.919 33.35L553.619 32.8L553.219 32.3L552.869 31.65L552.719 31.05L552.469 30.4L552.269 29.85L552.019 26.85L552.169 25.3V24.6L552.469 22.75L553.619 20.3L553.919 19.8L554.319 19.3L554.619 18.75L555.019 18.25L556.369 16.95L558.719 15.8L559.869 15.45L560.619 15.35L563.169 15.5L563.769 15.65L564.369 15.85L565.969 16.8L566.369 17.3L566.819 17.7L567.069 18.25L567.269 18.9L567.519 19.5L567.569 20.15L567.219 22.3L566.719 23.05L565.519 23.45H564.919L564.369 23.3L563.819 22.9L563.669 22.05L563.619 21.1L563.469 20.45L563.169 19.9L562.619 19.5L561.669 19.25H560.719L560.219 19.3L559.569 19.55L559.119 19.95L558.519 20.35L558.169 20.85L557.769 21.3L557.069 22.4L556.869 23.05L556.719 23.55L556.519 24.2L556.269 25.5L556.369 28.1L556.669 29.35L556.919 29.95L557.669 31L558.219 31.5L559.219 32.15L559.769 32.4L560.369 32.55L561.319 32.6L563.019 32.5L563.519 32.35L564.269 32.25L565.469 31.75L567.019 30.8L569.369 28.65L569.619 28.1L570.069 27.55L570.469 26.7L571.069 25.9L571.519 25L572.269 24.45ZM591.904 24.4H592.604L593.204 24.65L593.604 25.15L593.654 26.25L593.354 27.35L592.704 28.85L592.354 29.35L592.054 30.05L590.354 32.55L588.704 34.25L588.154 34.7L587.454 35.05L586.804 35.45L586.104 35.7L585.504 36L584.804 35.95L582.554 36.35L581.704 36.25L581.054 36.1L580.404 35.75L579.654 35.45L579.054 34.95L578.554 34.45L578.154 33.8L577.704 33.2L577.254 31.9L576.904 30.3L576.704 28.2L576.804 27.45L577.004 26.8L577.254 25.45L577.754 24L578.054 23.4L578.254 22.6L578.654 22L579.254 20.65L579.604 20.1L579.704 19.45L578.954 19.2L578.304 19.25L577.604 19.2L576.754 19.35L576.254 20L576.054 20.8L575.804 21.45L575.754 22.2L575.404 23L575.154 23.85L574.004 26.65L573.454 27.6L572.604 28.2L571.904 28.1L571.354 27.75L570.954 27L571.104 25.95L571.404 25L571.804 24.3L572.254 22.75L572.604 22.15L572.804 21.4L573.104 20.8L573.254 19.1L573.504 18.45L573.154 16.15L572.854 15.35L572.904 14.65L573.154 13.9L573.554 13.4L574.304 13.1L575.104 13.2L575.804 13.5L576.204 14.2L577.704 15.65L580.154 15.95H580.954L582.004 15.5L583.054 14.9L583.804 14.55L584.504 14.4L585.304 14.75L585.804 15.1L586.304 15.8V16.4L585.104 18.45L584.604 19L584.054 19.55L583.704 20.3L583.204 20.8L582.804 21.6L582.554 22.3L582.204 22.8L581.654 24.3L581.404 25.1L581.154 25.8L581.104 26.6L580.854 27.45L580.754 28.1L580.804 29.3L581.104 30.45L581.854 31.75L582.504 32.15L583.604 32.35L584.704 32.25L585.354 31.95L586.004 31.75L586.604 31.45L587.804 30.35L588.204 29.75L588.754 29.2L589.204 28.65L591.104 25.05L591.904 24.4ZM597.233 36.05L596.933 35.95H596.633L596.183 35.9L595.883 35.85L595.483 35.8L595.183 35.7L594.133 35.1L593.883 34.95L593.283 34.55L592.633 33.9L592.383 33.55L592.083 33.05L591.933 32.75L591.783 32.5L591.633 32.2L591.133 30.65L591.083 30.35L591.033 30L590.983 29.7L590.783 27.35V27.05L590.833 26.1L590.883 25.8L590.983 25.4L591.083 25.1L591.133 24.75L591.183 24.45L591.833 22.25L591.933 21.95L592.083 21.7L592.183 21.4L593.033 20L593.183 19.75L593.383 19.4L593.583 19.2L594.233 18.45L594.433 18.25L595.683 17.15L595.933 17L597.133 16.4L597.433 16.3L598.733 15.8L599.033 15.75L601.333 15.7H601.633L601.983 15.75L602.283 15.85L603.583 16.25L603.883 16.3L604.583 16.45L604.833 16.35L605.133 16L605.333 15.8L605.783 15.45L606.033 15.35L607.083 15.4H607.383L607.683 15.45L607.983 15.6L608.083 15.7L608.283 15.95L608.533 16.5L608.633 16.8L608.733 17.4V17.7L608.583 18.75V19.4L608.433 20.3L608.283 21.3V21.6L608.233 23.3L608.183 23.6L608.133 24L608.083 24.3L608.133 25.2L608.083 25.5L608.033 25.9L607.983 26.2L608.033 27.85L607.983 28.15L607.933 28.5L607.883 28.8L608.033 29.75V30.4L608.083 30.7L608.283 31.05L608.433 31.3L608.683 31.55L608.933 31.75L609.433 31.85L609.733 31.9L610.283 31.8L610.583 31.75L611.083 31.45L612.283 30.25L612.483 30L612.783 29.5L613.083 29.15L613.233 28.9L613.383 28.5L613.533 28.25L613.833 27.9L613.983 27.65L614.483 26.7L614.583 26.4L614.683 26.05L614.833 25.8L615.183 25.15L615.933 24.55L616.183 24.45H616.483L616.783 24.5L617.033 24.6L617.283 24.75L617.633 24.95L617.783 25.15L617.933 25.4L617.983 25.7L617.883 26.35L617.833 26.65L617.483 27.7L617.333 28L617.133 28.35L616.983 28.65L616.883 28.9L616.733 29.15L616.183 30.05L615.733 30.8L615.183 31.65L615.033 31.9L614.883 32.2L614.733 32.45L613.633 33.65L613.433 33.85L613.033 34.05L612.583 34.5L612.333 34.7L611.833 35.05L611.533 35.2L611.133 35.45L610.833 35.55L609.533 35.85L609.233 35.9L608.533 35.95H608.233L607.833 35.85L607.533 35.8L607.233 35.65L606.733 35.35L606.533 35.1L606.283 34.85L606.133 34.65L605.883 34.25L605.733 34.05L605.483 33.7L605.183 33.2L605.083 32.9L605.033 32.45L604.933 32.15L604.833 32.05L604.633 31.95L604.383 32.05L604.133 32.2L602.733 34L602.533 34.2L601.683 34.8L601.483 34.95L601.233 35.1L600.933 35.2L599.383 35.85L599.083 35.9L597.533 36.05H597.233ZM599.533 31.9L599.933 31.75L600.233 31.6L600.983 31.15L601.233 30.95L601.383 30.7L601.583 30.5L602.233 29.8L602.433 29.6L602.633 29.2L602.783 28.95L603.683 26.6L603.783 26.3L604.033 25.1L604.083 24.8L604.233 23.75L604.283 23.45L604.383 23.15L604.433 22.85V22.5L604.533 21.9V21.3L604.483 21L604.333 20.5L604.183 20.25L603.833 19.9L603.583 19.75L603.183 19.6L602.883 19.5L601.933 19.35H601.633L600.933 19.4H600.633L600.033 19.5L599.733 19.6L599.383 19.75L599.083 19.9L598.233 20.4L597.983 20.6L597.733 20.85L597.533 21.1L596.933 21.9L596.783 22.15L595.583 24.25L595.483 24.55L595.183 25.5L595.133 25.8L595.033 26.2L594.983 26.5L594.883 26.8L594.833 27.1L594.883 28.85L594.933 29.15L595.033 29.45L595.083 29.75L595.183 30.15L595.283 30.45L595.583 30.95L596.283 31.7L596.483 31.85L596.883 32.1L597.133 32.2H597.333L597.633 32.25L599.233 31.95L599.533 31.9ZM635.55 24.45L636.3 24.5L636.85 24.8L637.35 25.35L637.4 26.25L636.8 27.85L636.5 28.35L636.3 28.95L635.25 30.65L634.8 31.2L634.55 31.7L633.7 32.7L633.15 33.15L632.45 33.8L631.7 34.4L631.1 34.7L630 35.4L628.1 36L626.2 36.35L624.6 36.5L621.05 35.95L620.4 35.75L619.75 35.45L619.3 35.05L618.6 34.7L617.2 33.35L616.9 32.8L616.5 32.3L616.15 31.65L616 31.05L615.75 30.4L615.55 29.85L615.3 26.85L615.45 25.3V24.6L615.75 22.75L616.9 20.3L617.2 19.8L617.6 19.3L617.9 18.75L618.3 18.25L619.65 16.95L622 15.8L623.15 15.45L623.9 15.35L626.45 15.5L627.05 15.65L627.65 15.85L629.25 16.8L629.65 17.3L630.1 17.7L630.35 18.25L630.55 18.9L630.8 19.5L630.85 20.15L630.5 22.3L630 23.05L628.8 23.45H628.2L627.65 23.3L627.1 22.9L626.95 22.05L626.9 21.1L626.75 20.45L626.45 19.9L625.9 19.5L624.95 19.25H624L623.5 19.3L622.85 19.55L622.4 19.95L621.8 20.35L621.45 20.85L621.05 21.3L620.35 22.4L620.15 23.05L620 23.55L619.8 24.2L619.55 25.5L619.65 28.1L619.95 29.35L620.2 29.95L620.95 31L621.5 31.5L622.5 32.15L623.05 32.4L623.65 32.55L624.6 32.6L626.3 32.5L626.8 32.35L627.55 32.25L628.75 31.75L630.3 30.8L632.65 28.65L632.9 28.1L633.35 27.55L633.75 26.7L634.35 25.9L634.8 25L635.55 24.45ZM668.385 24.4L669.235 24.5L669.785 24.85L670.185 25.35V26.4L669.535 28.2L668.685 29.6L668.485 30.25L667.935 30.95L667.535 31.7L666.535 32.9L664.885 34.55L664.185 34.95L662.835 35.65L661.685 35.9L660.535 35.95L659.735 35.85L658.985 35.55L658.385 35.2L657.385 34.1L656.985 32.6L656.685 31.85V31.1L656.535 30.3V27.9L656.785 26.25V25.5L656.935 23.15L657.135 21.95V20.8L656.785 20.15L656.185 19.7L655.485 19.55L654.385 19.95L653.185 20.5L651.485 22.1L650.985 22.8L650.585 23.55L649.685 27.4L649.385 30.45L649.435 32L649.635 32.75L649.685 34.6L649.335 35.55L648.685 35.9L648.035 36.05L647.285 36L646.485 35.75L645.785 34.8L645.635 33.75L645.485 32.2L645.585 29L645.835 27.4V26.65L646.085 25.85L646.185 24.95L646.685 23.05L646.785 21.9L646.285 21.2L645.735 20.9L645.035 20.85L643.285 21.65L642.285 22.3L641.085 23.5L640.135 24.85L639.535 26.3L639.085 27.05L638.635 29.1L638.435 31.15L638.585 33.65L638.485 34.8L638.035 35.8L637.285 36.1H635.735L634.935 35.85L634.435 34.85L634.235 33.75L634.435 32.2L634.535 26.65L634.685 25.9L634.935 21.15L635.135 20.3L635.335 18L635.585 16.85L636.285 15.95L637.085 15.75L637.935 15.7L638.835 15.95L639.235 16.85L639.385 18.05L639.035 20.5L639.185 21L639.735 20.75L640.085 20.1L641.185 18.9L643.335 17.65L644.085 17.3L646.485 17.05L647.385 17.15L648.135 17.45L648.885 17.9L649.235 18.5L649.885 18.85L650.485 18.7L652.885 16.6L654.435 15.95L655.135 15.75L656.285 15.6L657.435 15.65L658.185 15.8L659.635 16.55L660.135 17L660.635 17.65L661.235 19.05L661.385 19.8L661.335 21.75L660.485 26.85L660.535 27.65L660.335 28.5L660.485 30.9L660.835 31.55L661.735 31.95L662.885 31.85L663.785 31.15L664.535 30.3L666.735 26.9L666.985 26.1L667.635 25.1L668.385 24.4ZM688.845 24.65L689.395 24.5L690.045 24.45L690.695 24.7L691.195 25.15L691.245 26.25L690.845 27.45L689.495 30.25L688.995 30.7L688.595 31.3L686.345 33.55L684.945 34.25L683.095 34.45L682.145 34.35H681.295L680.395 34.25L678.195 35.55L677.445 35.85L676.345 36L672.945 36.15L670.595 35.55L670.045 34.95L669.345 34.65L668.395 33.4L667.845 32L667.495 30.35L667.395 29.1L667.545 27.25L667.495 26.6L667.545 25.85L668.195 22.7L668.245 21.85L669.295 18.25L669.395 17.55L669.945 16.4L670.645 15.65L671.395 15.35L672.145 15.4L672.795 15.6L673.345 16.15L673.395 17.2L673.195 18.35L672.895 19L672.145 22L671.895 22.65L671.695 23.5L671.895 24L672.495 23.85L673.095 23.25L673.895 22.95L674.695 22.6L675.345 22.45L678.495 22.5L681.095 23.85L681.645 24.4L681.995 25.05L682.795 26.95L682.845 28.55L682.745 29.35L682.545 30L682.645 30.75L683.445 31.15L684.445 30.9L685.595 30L686.045 29.55L686.495 28.75L686.945 28.2L688.345 25.3L688.845 24.65ZM675.345 32.6L675.945 32.5L677.245 32L677.595 31L677.895 29.9L678.695 28.2L678.895 27.35L678.645 26.75L678.195 26.15L677.595 25.6L676.995 25.4H674.895L674.195 25.6L673.445 26.1L672.795 26.35L672.295 26.85L671.495 28.4L671.345 29.55L671.395 30.35L671.645 30.85L672.145 31.55L673.195 32.45L673.895 32.75H674.545L675.345 32.6ZM696.892 36.45L696.092 36.35L694.842 36.1L694.192 35.85L693.692 35.6L692.992 35.35L691.442 34.25L690.942 33.75L689.792 32.2L689.642 31.55L689.192 30.95L688.592 28.45V27.85L688.392 26.85L688.542 25.85L688.442 25.15L688.892 23.3L688.942 22.6L689.242 22.05L689.442 21.4L689.742 20.85L690.292 19.6L690.642 19.1L691.592 18.05L692.592 17.2L693.692 16.5L694.242 16.25L694.742 15.95L696.042 15.55L698.442 15.4L699.292 15.45L700.392 15.7L701.342 16.05L702.492 16.75L702.992 17.2L703.542 18L703.942 18.9L704.342 20.2L704.242 21.8L703.992 23.1L703.692 24.05L703.392 24.6L702.942 25.1L702.592 25.6L701.592 26.55L700.492 27.25L698.642 27.9L698.092 28L696.092 28.05L694.792 27.85L693.492 27.35L692.992 27.45L692.742 27.95L692.842 28.55L692.992 29.15L693.342 29.8L693.742 30.25L693.992 30.8L694.492 31.2L694.942 31.7L695.492 32L696.092 32.25L697.292 32.55L699.542 32.5L700.492 32.3L702.342 31.65L703.392 31.05L704.942 29.75L706.142 28.15L707.992 25.1L708.492 24.45H709.142L709.692 24.65L710.242 25L710.592 25.5L710.242 27.25L709.942 27.8L709.742 28.4L709.442 29.05L708.442 30.75L707.992 31.25L707.692 31.85L705.442 34.2L703.092 35.45L701.292 36.05L700.042 36.3L697.792 36.5L696.892 36.45ZM693.792 24.25L694.442 24.45L696.442 24.75L697.842 24.6L698.392 24.4L698.942 24.1L699.492 23.65L700.242 22.6L700.342 21.55L700.292 20.6L700.042 20.05L699.742 19.6L698.542 19.05L697.692 19.1L696.692 19.3L696.192 19.5L694.942 20.2L694.192 21.2L693.842 21.8L693.542 22.35L693.342 23L693.442 23.75L693.792 24.25ZM240.356 86.3L241.056 86.5L241.756 86.85L242.156 87.35L242.106 88.4L241.556 90.1L241.156 90.75L240.706 91.45L240.406 92.1L239.656 93.35L239.206 93.85L238.806 94.55L238.406 95.1L236.856 96.7L234.906 97.65L233.856 97.9L231.906 97.85L231.256 97.7L230.556 97.35L229.956 96.9L228.706 94.2L228.456 90.45L228.106 89.7L227.506 89.3L226.706 89.4L225.906 89.3L223.756 89.45L222.156 89.4L221.456 89.75L221.106 90.6L220.956 92.1L221.056 92.85L220.856 95.15L220.956 95.75L220.756 96.85L220.356 97.85L219.706 98.05L218.956 98.2L218.206 98.15L217.406 97.85L216.956 96.95L216.756 95.2L216.856 94.45V91.95L216.956 91.2L216.906 90.55L217.406 85.2L217.356 84.45L217.456 83.75L217.406 83L217.606 82.2L217.656 80.7L217.906 78.85L218.456 78L219.156 77.8L219.956 77.75L220.706 77.8L221.406 78.05L221.756 78.85L221.656 81.4L221.556 82.05L221.456 82.85L221.406 84.05L221.256 84.95L221.656 85.7L222.406 85.95H223.156L223.956 85.8L225.406 85.95L226.156 85.8L227.656 85.85L228.506 85.5L229.006 84.75L228.956 83.95L229.106 83.2L229.306 81L229.806 79.15L230.356 78.1L231.056 77.8L231.856 77.65L232.656 77.85L233.206 78.25L233.556 79.55L232.856 85.95L232.556 87.45V88.25L232.456 89.05V90.6L232.356 91.2L232.406 92.7L232.656 93.65L233.656 93.9L234.656 93.95L235.206 93.45L235.806 93.15L237.656 90.7L237.906 90L238.706 88.55L238.956 87.8L240.356 86.3ZM245.719 98.05L245.419 97.95H245.119L244.669 97.9L244.369 97.85L243.969 97.8L243.669 97.7L242.619 97.1L242.369 96.95L241.769 96.55L241.119 95.9L240.869 95.55L240.569 95.05L240.419 94.75L240.269 94.5L240.119 94.2L239.619 92.65L239.569 92.35L239.519 92L239.469 91.7L239.269 89.35V89.05L239.319 88.1L239.369 87.8L239.469 87.4L239.569 87.1L239.619 86.75L239.669 86.45L240.319 84.25L240.419 83.95L240.569 83.7L240.669 83.4L241.519 82L241.669 81.75L241.869 81.4L242.069 81.2L242.719 80.45L242.919 80.25L244.169 79.15L244.419 79L245.619 78.4L245.919 78.3L247.219 77.8L247.519 77.75L249.819 77.7H250.119L250.469 77.75L250.769 77.85L252.069 78.25L252.369 78.3L253.069 78.45L253.319 78.35L253.619 78L253.819 77.8L254.269 77.45L254.519 77.35L255.569 77.4H255.869L256.169 77.45L256.469 77.6L256.569 77.7L256.769 77.95L257.019 78.5L257.119 78.8L257.219 79.4V79.7L257.069 80.75V81.4L256.919 82.3L256.769 83.3V83.6L256.719 85.3L256.669 85.6L256.619 86L256.569 86.3L256.619 87.2L256.569 87.5L256.519 87.9L256.469 88.2L256.519 89.85L256.469 90.15L256.419 90.5L256.369 90.8L256.519 91.75V92.4L256.569 92.7L256.769 93.05L256.919 93.3L257.169 93.55L257.419 93.75L257.919 93.85L258.219 93.9L258.769 93.8L259.069 93.75L259.569 93.45L260.769 92.25L260.969 92L261.269 91.5L261.569 91.15L261.719 90.9L261.869 90.5L262.019 90.25L262.319 89.9L262.469 89.65L262.969 88.7L263.069 88.4L263.169 88.05L263.319 87.8L263.669 87.15L264.419 86.55L264.669 86.45H264.969L265.269 86.5L265.519 86.6L265.769 86.75L266.119 86.95L266.269 87.15L266.419 87.4L266.469 87.7L266.369 88.35L266.319 88.65L265.969 89.7L265.819 90L265.619 90.35L265.469 90.65L265.369 90.9L265.219 91.15L264.669 92.05L264.219 92.8L263.669 93.65L263.519 93.9L263.369 94.2L263.219 94.45L262.119 95.65L261.919 95.85L261.519 96.05L261.069 96.5L260.819 96.7L260.319 97.05L260.019 97.2L259.619 97.45L259.319 97.55L258.019 97.85L257.719 97.9L257.019 97.95H256.719L256.319 97.85L256.019 97.8L255.719 97.65L255.219 97.35L255.019 97.1L254.769 96.85L254.619 96.65L254.369 96.25L254.219 96.05L253.969 95.7L253.669 95.2L253.569 94.9L253.519 94.45L253.419 94.15L253.319 94.05L253.119 93.95L252.869 94.05L252.619 94.2L251.219 96L251.019 96.2L250.169 96.8L249.969 96.95L249.719 97.1L249.419 97.2L247.869 97.85L247.569 97.9L246.019 98.05H245.719ZM248.019 93.9L248.419 93.75L248.719 93.6L249.469 93.15L249.719 92.95L249.869 92.7L250.069 92.5L250.719 91.8L250.919 91.6L251.119 91.2L251.269 90.95L252.169 88.6L252.269 88.3L252.519 87.1L252.569 86.8L252.719 85.75L252.769 85.45L252.869 85.15L252.919 84.85V84.5L253.019 83.9V83.3L252.969 83L252.819 82.5L252.669 82.25L252.319 81.9L252.069 81.75L251.669 81.6L251.369 81.5L250.419 81.35H250.119L249.419 81.4H249.119L248.519 81.5L248.219 81.6L247.869 81.75L247.569 81.9L246.719 82.4L246.469 82.6L246.219 82.85L246.019 83.1L245.419 83.9L245.269 84.15L244.069 86.25L243.969 86.55L243.669 87.5L243.619 87.8L243.519 88.2L243.469 88.5L243.369 88.8L243.319 89.1L243.369 90.85L243.419 91.15L243.519 91.45L243.569 91.75L243.669 92.15L243.769 92.45L244.069 92.95L244.769 93.7L244.969 93.85L245.369 94.1L245.619 94.2H245.819L246.119 94.25L247.719 93.95L248.019 93.9ZM297.687 86.35L299.037 86.8L299.337 87.3L299.437 88.4L298.787 90.1L297.987 91.45L297.687 92.25L297.237 92.85L296.837 93.55L296.337 94L295.937 94.55L293.737 96.85L292.337 97.65L291.587 97.85H289.687L288.587 97.6L287.937 97.35L287.387 96.7L286.987 96L286.437 94.6L286.187 94.1L285.587 94.45L283.437 96.5L282.687 97L281.987 97.2L281.337 97.6L280.737 97.9L279.837 98L277.637 97.9L277.037 97.7L276.487 97.3L276.037 96.65L275.587 96.15L275.337 95.5L274.937 95L274.337 95.2L273.787 95.8L273.237 96.35L272.787 96.85L272.137 97.25L269.387 98L268.687 98.05L267.237 97.85L266.537 97.65L265.687 97.2L265.137 96.65L264.037 95.05L263.837 94.4L263.537 93.75L263.487 92.95L263.387 92.15L263.437 90L263.637 89.25V88.4L263.787 87.6L263.987 86.95V86.05L264.237 85.25L264.587 81.8L264.387 80.75L263.387 80.6L262.337 80.3L261.987 79.6L262.337 78.6L263.087 77.85L263.787 77.45L264.337 77.35L265.837 77.25L266.587 77.4L267.237 77.75L267.837 78.05L268.437 78.7L268.587 79.45L268.737 80.55L268.787 82.5L268.287 84.55V85.3L267.987 86.2L268.037 86.75L267.637 88.25L267.437 90.3L267.637 92.5L267.787 93.2L268.237 93.75L268.837 94.15L269.487 94.35L270.587 94.1L271.537 93.7L272.787 92.8L273.287 92.2L274.337 90.3L274.987 86.55L275.287 85.85L275.387 85.2L275.487 82.85L275.287 78.75L275.537 77.8L276.087 77.6L276.937 77.4L277.637 77.45L278.437 77.6L278.887 78.55L279.087 79.75L279.137 80.45L279.237 81.05L279.187 81.85L279.237 82.55L279.187 83.3L279.237 84.05L279.087 84.7V85.6L278.887 87.65L278.637 88.2V89.1L278.237 90.9L278.087 92.95L278.537 93.7L279.587 93.95L280.637 93.75L281.137 93.45L281.787 93.2L283.387 91.6L283.737 91L284.187 90.45L285.287 88.4L285.737 87.1L286.087 85.3L286.187 84L286.387 83.35V82.6L286.587 81.75L286.537 81L286.987 79.15L287.587 78.3L288.237 78L289.037 77.95L290.487 78.45L290.687 79.6L290.587 80.6L290.637 81.3L290.437 82.25L290.387 83L290.237 83.6L289.637 88.95L289.687 89.7L289.637 91.35L289.687 92.75L289.937 93.55L290.837 93.95L291.687 93.85L292.337 93.7L292.887 93.15L293.487 92.65L294.437 91.5L294.737 90.75L295.987 88.75L296.237 88.05L296.837 87.05L297.687 86.35ZM305.193 98.45L304.393 98.35L303.143 98.1L302.493 97.85L301.993 97.6L301.293 97.35L299.743 96.25L299.243 95.75L298.093 94.2L297.943 93.55L297.493 92.95L296.893 90.45V89.85L296.693 88.85L296.843 87.85L296.743 87.15L297.193 85.3L297.243 84.6L297.543 84.05L297.743 83.4L298.043 82.85L298.593 81.6L298.943 81.1L299.893 80.05L300.893 79.2L301.993 78.5L302.543 78.25L303.043 77.95L304.343 77.55L306.743 77.4L307.593 77.45L308.693 77.7L309.643 78.05L310.793 78.75L311.293 79.2L311.843 80L312.243 80.9L312.643 82.2L312.543 83.8L312.293 85.1L311.993 86.05L311.693 86.6L311.243 87.1L310.893 87.6L309.893 88.55L308.793 89.25L306.943 89.9L306.393 90L304.393 90.05L303.093 89.85L301.793 89.35L301.293 89.45L301.043 89.95L301.143 90.55L301.293 91.15L301.643 91.8L302.043 92.25L302.293 92.8L302.793 93.2L303.243 93.7L303.793 94L304.393 94.25L305.593 94.55L307.843 94.5L308.793 94.3L310.643 93.65L311.693 93.05L313.243 91.75L314.443 90.15L316.293 87.1L316.793 86.45H317.443L317.993 86.65L318.543 87L318.893 87.5L318.543 89.25L318.243 89.8L318.043 90.4L317.743 91.05L316.743 92.75L316.293 93.25L315.993 93.85L313.743 96.2L311.393 97.45L309.593 98.05L308.343 98.3L306.093 98.5L305.193 98.45ZM302.093 86.25L302.743 86.45L304.743 86.75L306.143 86.6L306.693 86.4L307.243 86.1L307.793 85.65L308.543 84.6L308.643 83.55L308.593 82.6L308.343 82.05L308.043 81.6L306.843 81.05L305.993 81.1L304.993 81.3L304.493 81.5L303.243 82.2L302.493 83.2L302.143 83.8L301.843 84.35L301.643 85L301.743 85.75L302.093 86.25ZM348.828 86.3L349.628 86.35L350.228 86.65L350.678 87.25V88.3L350.428 89.35L350.128 90.05L349.728 90.6L349.078 92.05L348.628 92.6L347.928 93.85L347.378 94.55L346.828 95L346.378 95.65L344.678 97.05L343.928 97.3L343.328 97.65L341.528 97.95L340.478 97.75L339.928 97.5L339.278 97.05L338.678 96.5L338.278 95.95L337.428 94.1L337.228 93.2L337.178 92.6L336.978 91.85L336.878 90.35L336.678 90.05L336.478 90.3L335.828 91.7L335.378 92.4L335.078 93.15L334.428 93.6L333.978 94.2L332.678 95.05L331.528 95.1L330.428 94.85L329.278 94.25L328.878 93.65L328.528 93.05L328.028 91.6L327.678 91L327.528 90.3L327.278 89.85L326.778 91.7L326.478 92.3L326.328 93.05L324.828 95.75L323.928 96.85L323.028 97.65L322.078 98.1L320.978 98.2L319.878 98.15L319.278 98L318.628 97.65L318.028 97.25L317.028 96.25L316.628 95.35L316.028 93.4L315.828 91.85L315.878 90.3L316.278 87.5L316.878 86.55L317.528 86.3L318.328 86.55L318.828 87.1L319.078 88.25L318.928 89.25V89.95L318.878 90.65L319.028 91.4V92.15L319.328 93.6L319.778 94.15L320.628 94.4L321.528 94.15L321.928 93.8L322.278 93.5L322.728 92.8L323.278 91.6L323.678 90.95L323.878 90.2L324.178 89.45L324.328 88.6L324.828 87.25L325.478 84.9L325.728 83.25L326.178 81.75L326.528 79.55L326.928 78.45L327.428 77.55L328.128 77.35L328.828 77.3L329.478 77.4L330.028 77.9L330.328 78.85L330.378 80.05L330.228 80.8L330.278 81.55L330.078 83.2L330.178 83.8L330.078 85.3L330.228 86.15V87.05L330.428 89.15L330.928 90.55L331.678 91.15L332.478 91L332.978 90.55L333.378 90.1L333.728 89.55L334.028 88.7L334.678 87.5L334.978 86.75L335.278 85.15L335.528 84.25L335.778 83.7L335.928 82.85L336.178 82.1L336.728 79.5L337.278 78.55L337.928 78.15L338.678 78.05L339.478 78.45L339.978 78.75L340.328 79.8L340.378 82.4L340.278 83.2V84L340.428 84.75V85.5L340.278 86.25L340.228 87.05L340.328 87.7L340.378 88.55L340.428 89.25L340.378 89.95L340.428 90.65L340.628 91.55L340.678 92.25L340.878 92.9L341.178 93.6L342.228 93.9L343.128 94L343.728 93.5L344.328 93.1L344.928 92.6L345.328 92.05L346.528 90.15L346.878 89.4L347.328 88.8L348.178 86.95L348.828 86.3ZM370.013 86.45L370.763 86.6L371.363 87.2V88.35L371.063 89.55L370.763 90.25L370.313 90.95L370.013 91.7L369.113 93L368.413 94.35L367.913 95L367.513 95.65L363.563 100.1L363.163 101.2L363.063 102.8L362.913 103.65L362.463 105.2L362.063 106L361.663 106.7L361.313 107.45L359.663 109.3L358.963 109.65L358.363 110.05L357.563 110.35L356.763 110.55L355.663 110.6L354.463 110.55L353.763 110.3L352.913 109.95L352.413 109.45L351.413 108.3L351.163 107.55L351.063 106.8L351.113 106V105.35L352.063 103.25L352.513 102.65L354.363 101.1L356.463 99.85L357.163 99.5L358.513 98.7L359.213 97.9L359.713 96.8L359.913 95.1L359.763 94.6L359.263 94.8L357.513 96.5L356.863 96.95L355.313 97.65L354.463 97.95L353.363 98.05L352.163 98L351.313 97.8L350.563 97.55L349.963 97.2L349.413 96.8L348.313 95.5L347.763 94.1L347.463 92.5V91.25L347.713 88.45L347.963 87.6L348.613 83.65L348.663 81.65L348.463 80.75L347.313 80.65L346.413 80.35L346.063 79.6L346.513 78.65L347.263 77.8L347.913 77.5L348.763 77.3L349.513 77.25L350.963 77.6L351.763 78.05L352.263 78.6L352.713 79.25L352.913 80.45L352.863 81.55L352.613 82.75L352.513 83.9L352.313 84.7L352.163 86.35L351.963 87.15L351.813 88V88.75L351.663 89.65L351.763 92.75L352.113 93.45L352.563 94L353.713 94.15L354.963 94.1L356.363 93.45L356.913 92.95L357.563 92.45L358.463 91.15L359.613 88.9L360.363 85.05L360.463 83.5L361.263 78.5L361.813 77.65L362.563 77.5L363.363 77.55L364.013 77.75L364.713 78.15L364.863 79.15L364.963 80.25L363.913 91.65L363.713 92.5L363.613 94.15L363.913 94.75L364.413 94.6L366.063 92.05L366.613 91.4L367.213 90.1L367.613 89.4L368.363 87.95L369.063 87.05L370.013 86.45ZM356.813 106.8L357.463 106.35L358.363 105.15L359.013 103.65L359.213 102.9L359.063 102.25L358.513 102.3L357.713 102.7L356.113 103.9L355.363 104.85L355.063 105.65L354.963 106.4L355.813 106.9L356.813 106.8ZM410.4 86.3L411.2 86.35L411.8 86.65L412.25 87.25V88.3L412 89.35L411.7 90.05L411.3 90.6L410.65 92.05L410.2 92.6L409.5 93.85L408.95 94.55L408.4 95L407.95 95.65L406.25 97.05L405.5 97.3L404.9 97.65L403.1 97.95L402.05 97.75L401.5 97.5L400.85 97.05L400.25 96.5L399.85 95.95L399 94.1L398.8 93.2L398.75 92.6L398.55 91.85L398.45 90.35L398.25 90.05L398.05 90.3L397.4 91.7L396.95 92.4L396.65 93.15L396 93.6L395.55 94.2L394.25 95.05L393.1 95.1L392 94.85L390.85 94.25L390.45 93.65L390.1 93.05L389.6 91.6L389.25 91L389.1 90.3L388.85 89.85L388.35 91.7L388.05 92.3L387.9 93.05L386.4 95.75L385.5 96.85L384.6 97.65L383.65 98.1L382.55 98.2L381.45 98.15L380.85 98L380.2 97.65L379.6 97.25L378.6 96.25L378.2 95.35L377.6 93.4L377.4 91.85L377.45 90.3L377.85 87.5L378.45 86.55L379.1 86.3L379.9 86.55L380.4 87.1L380.65 88.25L380.5 89.25V89.95L380.45 90.65L380.6 91.4V92.15L380.9 93.6L381.35 94.15L382.2 94.4L383.1 94.15L383.5 93.8L383.85 93.5L384.3 92.8L384.85 91.6L385.25 90.95L385.45 90.2L385.75 89.45L385.9 88.6L386.4 87.25L387.05 84.9L387.3 83.25L387.75 81.75L388.1 79.55L388.5 78.45L389 77.55L389.7 77.35L390.4 77.3L391.05 77.4L391.6 77.9L391.9 78.85L391.95 80.05L391.8 80.8L391.85 81.55L391.65 83.2L391.75 83.8L391.65 85.3L391.8 86.15V87.05L392 89.15L392.5 90.55L393.25 91.15L394.05 91L394.55 90.55L394.95 90.1L395.3 89.55L395.6 88.7L396.25 87.5L396.55 86.75L396.85 85.15L397.1 84.25L397.35 83.7L397.5 82.85L397.75 82.1L398.3 79.5L398.85 78.55L399.5 78.15L400.25 78.05L401.05 78.45L401.55 78.75L401.9 79.8L401.95 82.4L401.85 83.2V84L402 84.75V85.5L401.85 86.25L401.8 87.05L401.9 87.7L401.95 88.55L402 89.25L401.95 89.95L402 90.65L402.2 91.55L402.25 92.25L402.45 92.9L402.75 93.6L403.8 93.9L404.7 94L405.3 93.5L405.9 93.1L406.5 92.6L406.9 92.05L408.1 90.15L408.45 89.4L408.9 88.8L409.75 86.95L410.4 86.3ZM413.785 98L412.985 97.8L412.335 97.55L410.985 96.65L410.535 96.05L410.135 95.4L409.335 93.2L409.235 92.45L409.435 90.1L409.385 89.3L409.535 87.75L409.785 87V86.2L409.935 85.4L410.235 84.7L410.435 83.85L410.535 81.9L410.485 80.9L409.335 80.7L408.335 80.4L407.935 79.7L408.335 78.6L408.985 77.8L409.785 77.45L410.535 77.3L411.335 77.25L412.235 77.35L412.935 77.7L413.585 78.1L414.135 78.55L414.485 79.25L414.635 80.5L414.335 84.15L413.885 86.55L413.685 87.3V88.1L413.485 88.95L413.385 89.75L413.435 90.5V91.75L413.635 92.85L413.885 93.55L414.435 94L415.485 94.15L416.635 94.1L417.385 93.8L418.685 92.95L419.735 91.9L420.135 91.2L420.485 90.5L420.935 89.75L421.885 86.6L422.035 85.4V84.25L422.535 81.1L422.485 80.25L422.985 78.4L423.685 77.6L424.485 77.55L425.285 77.65L425.985 78.05L426.485 79L426.535 80.2L426.435 81L426.235 81.8L426.285 82.5L426.185 83.3L425.985 84.1L425.635 88.75L425.735 89.6L425.585 90.35V91.1L425.685 91.9L425.885 92.7L426.135 93.4L426.985 93.9L428.035 93.8L428.735 93.45L429.285 92.95L430.385 91.65L430.735 90.95L431.285 90.3L431.685 89.6L431.985 88.85L432.985 87.15L433.735 86.45L434.485 86.5L435.085 86.8L435.585 87.35L435.485 88.4L434.485 90.95L434.085 91.65L433.585 92.35L433.285 93.1L432.335 94.45L430.685 96.15L428.635 97.55L427.935 97.8L427.085 97.95L425.835 97.9L424.835 97.65L424.085 97.2L423.535 96.55L422.885 95.05L422.685 94.25L422.235 93.75L421.785 93.95L420.885 95.25L418.935 96.8L418.335 97.2L417.635 97.5L416.885 97.75L413.785 98ZM455.527 86.45L456.227 86.5L456.927 86.85L457.427 87.4L457.377 88.5L457.077 89.5L455.477 92.35L454.527 93.7L453.477 94.9L451.677 96.3L450.927 96.65L450.177 96.9L448.927 97.1L447.377 97.05L446.277 96.8H445.327L444.227 97.15L442.877 97.85L441.527 98.35L440.027 98.7L437.627 98.65L436.777 98.9L436.277 99.7L435.877 103.65L435.727 104.4L435.677 105.2L435.327 108.45L435.027 109.5L434.277 110.4L433.427 110.5L432.577 110.45L431.777 110.2L431.377 109.25L431.677 105.8L431.927 105.05L432.027 104.3L431.977 103.5L432.027 102.7L432.227 101.95L432.277 101.2L432.427 100.3L432.527 98.75L432.627 97.95V97.1L432.877 95.55V94.7L432.977 93.9L432.927 93.1L433.027 92.35V91.5L433.127 89.9L432.977 84.3L432.827 83.5V81.85L432.527 80.25L432.477 79.05L432.827 78.1L433.477 77.7L434.277 77.45L434.977 77.5L435.627 77.7L436.277 78.65L436.477 80.75L436.927 81.35L437.377 81.15L439.827 78.95L441.977 77.9L444.377 77.55L445.977 77.7L447.377 78.25L448.027 78.7L449.177 79.8L450.077 81.15L450.377 81.85L450.727 83.8L450.627 86.6L450.277 88.2L449.977 88.95L449.827 89.65L449.477 90.5L449.277 91.25L448.777 91.9L448.477 92.6L448.327 93.35L449.277 93.65L450.327 93.25L450.977 92.85L451.627 92.35L452.027 91.7L452.627 91.1L452.977 90.4L453.477 89.6L454.177 88.15L454.827 87.15L455.527 86.45ZM437.927 94.9L438.727 95L439.677 94.95L441.177 94.6L441.877 94.25L442.577 93.4L443.527 91.5L444.127 91L445.077 90.3L445.727 89.45L446.077 88.65L446.477 87.05L446.577 84.2L446.377 83L446.077 82.35L445.577 81.75L444.827 81.35L444.227 81.2L442.627 81.45L440.577 82.65L439.427 83.85L438.077 85.95L437.327 87.45L437.077 88.55L436.977 92L436.777 93.5L437.227 94.35L437.927 94.9ZM476.751 86.45L477.501 86.6L478.101 87.2V88.35L477.801 89.55L477.501 90.25L477.051 90.95L476.751 91.7L475.851 93L475.151 94.35L474.651 95L474.251 95.65L470.301 100.1L469.901 101.2L469.801 102.8L469.651 103.65L469.201 105.2L468.801 106L468.401 106.7L468.051 107.45L466.401 109.3L465.701 109.65L465.101 110.05L464.301 110.35L463.501 110.55L462.401 110.6L461.201 110.55L460.501 110.3L459.651 109.95L459.151 109.45L458.151 108.3L457.901 107.55L457.801 106.8L457.851 106V105.35L458.801 103.25L459.251 102.65L461.101 101.1L463.201 99.85L463.901 99.5L465.251 98.7L465.951 97.9L466.451 96.8L466.651 95.1L466.501 94.6L466.001 94.8L464.251 96.5L463.601 96.95L462.051 97.65L461.201 97.95L460.101 98.05L458.901 98L458.051 97.8L457.301 97.55L456.701 97.2L456.151 96.8L455.051 95.5L454.501 94.1L454.201 92.5V91.25L454.451 88.45L454.701 87.6L455.351 83.65L455.401 81.65L455.201 80.75L454.051 80.65L453.151 80.35L452.801 79.6L453.251 78.65L454.001 77.8L454.651 77.5L455.501 77.3L456.251 77.25L457.701 77.6L458.501 78.05L459.001 78.6L459.451 79.25L459.651 80.45L459.601 81.55L459.351 82.75L459.251 83.9L459.051 84.7L458.901 86.35L458.701 87.15L458.551 88V88.75L458.401 89.65L458.501 92.75L458.851 93.45L459.301 94L460.451 94.15L461.701 94.1L463.101 93.45L463.651 92.95L464.301 92.45L465.201 91.15L466.351 88.9L467.101 85.05L467.201 83.5L468.001 78.5L468.551 77.65L469.301 77.5L470.101 77.55L470.751 77.75L471.451 78.15L471.601 79.15L471.701 80.25L470.651 91.65L470.451 92.5L470.351 94.15L470.651 94.75L471.151 94.6L472.801 92.05L473.351 91.4L473.951 90.1L474.351 89.4L475.101 87.95L475.801 87.05L476.751 86.45ZM463.551 106.8L464.201 106.35L465.101 105.15L465.751 103.65L465.951 102.9L465.801 102.25L465.251 102.3L464.451 102.7L462.851 103.9L462.101 104.85L461.801 105.65L461.701 106.4L462.551 106.9L463.551 106.8ZM485.587 89.15L484.987 89.5L484.137 89.55L483.487 89.4L482.887 89L482.437 88.05L482.487 86.85L482.437 86.05L482.537 85.2V84.4L482.487 83.6L482.537 82.8V79.65L482.637 78.85L482.587 77.2L482.687 76.4L482.537 74.9L482.687 73.25L482.537 71.65L482.487 70L482.587 69.2L482.487 68.4V67.6L482.287 66.05L482.237 64L482.687 62.95L483.337 62.5L483.987 62.3H484.837L485.637 62.55L486.137 63.4L486.587 64.4L486.637 65V65.7L486.887 67.2L486.787 71.15L486.887 72.05L486.837 72.75V73.6L486.737 74.45L486.687 78.6L486.487 80.3L486.587 81.05L486.487 81.95V82.75L486.337 83.6L486.287 85.35L486.187 86.15L486.237 87L485.937 88.15L485.587 89.15ZM483.137 98.15L482.437 97.65L481.887 97L481.787 95.75L481.937 94.55L482.387 93.9L483.087 93.4L484.287 93.2L485.437 93.35L486.137 93.9L486.637 94.6L486.787 95.8L486.687 96.95L486.137 97.65L485.337 98.15L484.287 98.3L483.137 98.15Z" fill="#2E2124"/>
</svg>
