<svg width="285" height="104" viewBox="0 0 285 104" fill="none" xmlns="http://www.w3.org/2000/svg">
<path d="M28.5873 3.07L27.8373 3.58L27.1773 4.57L26.6073 4.93L26.1273 4.84L25.6173 4.54L25.4673 3.94L25.6473 3.25L26.1273 2.41L27.1773 1.39L27.5973 1.12L28.0473 0.91L28.4373 0.789999L28.9173 0.699999L29.5773 0.669999L30.2973 0.76L30.8073 0.939999L31.5273 1.39L32.1273 2.14L32.3073 2.53L32.6373 3.88L32.6073 4.36L32.6373 4.87V5.35L31.5573 11.5L31.4073 11.95L31.1073 13.39L31.0473 13.9L30.9573 14.35V14.83L30.8373 15.31L30.7773 15.76L30.8073 18.22L30.9573 18.73L31.5273 19.39L31.9473 19.57H32.6673L33.2073 19.48L33.9573 19.15L34.6773 18.64L35.3073 17.98L35.8773 17.26L37.0473 15.16L37.1673 14.71L37.4073 14.32L37.6173 13.81L37.7073 13.33L37.9473 12.91L38.0673 12.46L38.2773 11.98L38.4273 11.47L38.6373 11.02L38.6973 10.51L38.9973 9.52L39.1173 9.04L39.2973 8.59L39.3273 8.11L39.5073 7.63L39.6273 7.12L39.6573 6.61L39.7773 6.1L39.9273 5.65L40.0773 5.14V4.63L40.3173 3.97L40.6773 3.37L41.1273 3.19L41.6073 3.22L42.0573 3.43L42.4473 3.73L42.5673 4.39L41.7573 10.36L41.7873 10.9L41.6373 14.26L41.6673 14.71V15.22L41.7573 15.73L41.7273 16.21L41.8173 16.69L41.8473 17.14L41.9973 17.62L42.0273 18.07L42.4173 19L42.6873 19.42L43.3473 19.57L44.0073 19.51L44.3673 19.33L44.7573 19.03L45.1173 18.67L45.8973 17.44L46.6173 16.06L47.0373 15.46L47.5473 15.04L47.9973 15.16L48.4173 15.46L48.4473 16.15L48.3573 16.81L47.0373 19.36L46.7373 19.75L46.3773 20.08L45.7773 20.83L45.0573 21.37L44.1873 21.76L43.7073 21.91L43.0473 21.97L42.3873 21.94L41.4573 21.64L40.7673 21.01L40.5273 20.65L40.3173 20.2L40.2273 19.78L40.0473 19.33L39.8073 18.34L39.7773 17.86L39.6873 17.35L39.5973 15.88L39.6273 15.37L39.5973 14.86L39.4773 14.59L39.2673 14.8L39.0873 15.25L38.9673 15.7L38.7273 16.12L38.3673 17.02L38.1273 17.44L37.9173 17.89L37.6173 18.28L37.3773 18.7L36.5373 19.87L35.8473 20.59L34.6473 21.4L34.2573 21.61L33.2673 21.91L32.6073 21.97L31.4073 21.91L30.0873 21.58L29.6973 21.37L29.1573 20.77L28.8873 20.41L28.6173 19.81L28.3173 18.73V18.22L28.2573 17.77V17.29L28.3773 15.85L28.4673 15.37L28.6773 13.36L28.8873 12.43L28.9773 11.41L29.3373 9.97L29.5173 8.53L29.7573 7.51L29.8173 7.03L29.9673 6.31L30.0273 5.62L30.1473 5.17L30.1773 4.72L30.0873 4.27L29.8473 3.4L29.2473 3.1L28.5873 3.07ZM71.9413 14.98L72.4213 15.01L72.7813 15.19L73.0513 15.55V16.18L72.9013 16.81L72.7213 17.23L72.4813 17.56L72.0913 18.43L71.8213 18.76L71.4013 19.51L71.0713 19.93L70.7413 20.2L70.4713 20.59L69.4513 21.43L69.0013 21.58L68.6413 21.79L67.5613 21.97L66.9313 21.85L66.6013 21.7L66.2113 21.43L65.8513 21.1L65.6113 20.77L65.1013 19.66L64.9813 19.12L64.9513 18.76L64.8313 18.31L64.7713 17.41L64.6513 17.23L64.5313 17.38L64.1413 18.22L63.8713 18.64L63.6913 19.09L63.3013 19.36L63.0313 19.72L62.2513 20.23L61.5613 20.26L60.9013 20.11L60.2113 19.75L59.9713 19.39L59.7613 19.03L59.4613 18.16L59.2513 17.8L59.1613 17.38L59.0113 17.11L58.7113 18.22L58.5313 18.58L58.4413 19.03L57.5413 20.65L57.0013 21.31L56.4613 21.79L55.8913 22.06L55.2313 22.12L54.5713 22.09L54.2113 22L53.8213 21.79L53.4613 21.55L52.8613 20.95L52.6213 20.41L52.2613 19.24L52.1413 18.31L52.1713 17.38L52.4113 15.7L52.7713 15.13L53.1613 14.98L53.6413 15.13L53.9413 15.46L54.0913 16.15L54.0013 16.75V17.17L53.9713 17.59L54.0613 18.04V18.49L54.2413 19.36L54.5113 19.69L55.0213 19.84L55.5613 19.69L55.8013 19.48L56.0113 19.3L56.2813 18.88L56.6113 18.16L56.8513 17.77L56.9713 17.32L57.1513 16.87L57.2413 16.36L57.5413 15.55L57.9313 14.14L58.0813 13.15L58.3513 12.25L58.5613 10.93L58.8013 10.27L59.1013 9.73L59.5213 9.61L59.9413 9.58L60.3313 9.64L60.6613 9.94L60.8413 10.51L60.8713 11.23L60.7813 11.68L60.8113 12.13L60.6913 13.12L60.7513 13.48L60.6913 14.38L60.7813 14.89V15.43L60.9013 16.69L61.2013 17.53L61.6513 17.89L62.1313 17.8L62.4313 17.53L62.6713 17.26L62.8813 16.93L63.0613 16.42L63.4513 15.7L63.6313 15.25L63.8113 14.29L63.9613 13.75L64.1113 13.42L64.2013 12.91L64.3513 12.46L64.6813 10.9L65.0113 10.33L65.4013 10.09L65.8513 10.03L66.3313 10.27L66.6313 10.45L66.8413 11.08L66.8713 12.64L66.8113 13.12V13.6L66.9013 14.05V14.5L66.8113 14.95L66.7813 15.43L66.8413 15.82L66.8713 16.33L66.9013 16.75L66.8713 17.17L66.9013 17.59L67.0213 18.13L67.0513 18.55L67.1713 18.94L67.3513 19.36L67.9813 19.54L68.5213 19.6L68.8813 19.3L69.2413 19.06L69.6013 18.76L69.8413 18.43L70.5613 17.29L70.7713 16.84L71.0413 16.48L71.5513 15.37L71.9413 14.98ZM75.0821 22.12H74.6921L74.1821 22.03L73.3421 21.7L72.9221 21.46L72.2621 20.77L72.0521 20.38L71.7821 20.02L71.5121 19.15L71.4521 18.73L71.6021 15.4L71.7221 14.92L71.9021 13.6L72.0821 13.12L72.2321 12.19L72.8921 10.24L73.2821 9.76L73.7021 9.58L74.1521 9.67L74.6621 9.82L74.9021 10.03L74.9621 10.75L74.8721 11.35L74.7221 11.8L74.6321 12.28L74.4521 12.67L74.2721 13.18L74.0621 14.11V14.47L74.1521 14.8L74.4821 14.65L74.8421 14.38L76.1321 13.81L77.6021 13.78L77.9921 13.93L78.4721 13.96L79.2521 14.35L80.1521 15.34L80.6321 16.63L80.6621 17.92L80.5421 18.4L80.6321 18.94L80.9921 19.12L81.5321 19.06L81.9221 18.88L82.2821 18.61L82.6421 18.22L82.9121 17.83L83.1221 17.44L83.3921 17.05L83.8721 14.8V13.87L83.9921 13.36L84.1421 11.59L84.2321 11.11V10.78L84.4721 10.09L84.8621 9.61L85.2821 9.52L85.6421 9.58L86.0621 9.7L86.4221 10L86.6021 10.57V11.17L86.5121 11.62V12.07L86.3321 13.06V13.42L86.2421 13.96V14.35L86.1221 15.37V15.76L86.0621 16.21L85.9721 16.6L86.0021 17.14L85.9721 17.59L86.0321 18.07V18.58L86.1521 18.94L86.4221 19.39L86.9622 19.51L87.5621 19.48L87.9521 19.36L88.2221 19.09L88.5521 18.82L89.2121 18.07L90.5921 15.34L91.1021 15.04H91.5221L91.9421 15.25L92.1521 15.55L92.1221 16.27L91.9721 16.84L91.3421 18.13L91.0421 18.58L90.8321 18.97L90.5622 19.27L90.3221 19.69L90.0821 20.02L89.4221 20.74L89.0321 21.01L88.7321 21.37L87.0521 22L86.3621 21.97L85.6421 21.85L85.3121 21.76L84.8921 21.55L84.5621 21.25L84.1721 20.41L83.7221 19.78H83.3621L82.7321 20.47L81.8621 20.89L81.5021 20.92L81.1121 21.07L80.2121 21.1L79.8221 20.98L79.2821 21.07L78.6521 21.28L76.9721 22.03L76.5521 22.06L75.8321 22.18L75.0821 22.12ZM76.5221 19.93L77.3321 19.51L77.5421 19L77.7821 17.95L78.1121 17.32L78.2621 16.81L78.1121 16.42L77.8421 16.09L77.5421 15.85L77.1521 15.67H76.5221L75.4121 15.73L74.9921 15.97L74.0321 16.9L73.7321 17.44L73.7021 18.07L73.7921 18.58L73.9121 18.91L74.4521 19.6L74.8721 19.84L75.9821 19.99L76.5221 19.93ZM110.075 15.04L110.465 15.07L110.885 15.31L111.125 15.67L111.155 16.27L110.945 16.84L110.705 17.26L110.525 17.77L110.105 18.58L109.835 18.82L109.565 19.15L109.295 19.63L108.995 19.99L108.275 20.5L107.945 20.71L107.525 20.92L107.045 21.07L105.275 21.04L104.855 20.95L104.315 20.86L102.185 21.91L101.705 22.03L99.965 22L99.575 21.82L99.185 21.79L98.075 21.19L97.745 20.92L97.025 19.87L96.365 18.19L96.185 16.39L96.095 16L96.035 14.98L96.095 14.53L96.035 13.66L96.125 13.27L96.095 12.25L96.185 11.83L96.485 9.49V9.13L96.605 8.65L96.635 8.2L96.785 7.84L96.875 6.91L97.235 5.53L97.775 3.85L98.015 3.46L98.135 3.07L98.345 2.62L98.885 1.93L99.515 1.33L99.935 1.06L100.325 0.879998L100.955 0.699999L101.555 0.669999L102.035 0.579999L103.295 0.999999L103.625 1.18L104.255 1.81L104.555 2.62L104.675 3.1L104.645 3.46L104.675 3.97V4.36L104.525 4.87L104.495 5.32L104.405 5.77L103.565 7.96L103.325 8.38L102.785 9.07V9.46L103.175 9.67L104.375 9.94L104.825 10.21L105.215 10.39L105.515 10.69L106.085 11.41L106.295 11.86L106.565 12.7L106.775 13.63L106.805 13.96V14.83L106.715 15.34V15.7L106.625 16.24L106.415 17.17L106.235 17.5L106.115 17.95L105.935 18.31V18.76L106.415 19L107.015 18.91L107.795 18.52L108.065 18.16L108.605 17.29L108.755 16.9L109.025 16.48L109.235 16.03L109.625 15.49L110.075 15.04ZM98.705 9.79L98.675 10.33L98.615 10.75L98.735 11.11L99.035 11.02L99.335 10.78L99.575 10.39L99.845 10.12L100.085 9.7L100.355 9.37L101.015 8.17L101.885 6.1L102.125 5.23L102.185 4.72L102.215 3.94L102.125 3.46L101.915 3.13L101.405 3.07L100.865 3.25L100.115 4.48L99.665 5.8L99.455 6.16L99.425 6.67L99.275 7.06L98.705 9.79ZM101.495 19.66L102.305 19.42L102.605 18.88L102.905 17.89L103.355 17.38L103.715 17.11L104.075 16.69L104.345 15.85L104.435 15.34V14.08L104.315 13.15L104.135 12.76L103.865 12.46L103.565 12.04L103.175 11.92L102.605 11.83L101.915 11.77L101.195 12.01L100.805 12.25L100.385 12.34L100.085 12.58L99.755 12.97L99.455 13.24L99.185 13.6L98.975 14.05L98.705 14.38L98.405 15.73V16.15L98.465 16.6L98.765 17.95L99.155 18.85L99.485 19.27L99.845 19.54L100.865 19.72L101.495 19.66ZM129.129 14.98L129.609 15.01L129.969 15.19L130.239 15.55V16.18L130.089 16.81L129.909 17.23L129.669 17.56L129.279 18.43L129.009 18.76L128.589 19.51L128.259 19.93L127.929 20.2L127.659 20.59L126.639 21.43L126.189 21.58L125.829 21.79L124.749 21.97L124.119 21.85L123.789 21.7L123.399 21.43L123.039 21.1L122.799 20.77L122.289 19.66L122.169 19.12L122.139 18.76L122.019 18.31L121.959 17.41L121.839 17.23L121.719 17.38L121.329 18.22L121.059 18.64L120.879 19.09L120.489 19.36L120.219 19.72L119.439 20.23L118.749 20.26L118.089 20.11L117.399 19.75L117.159 19.39L116.949 19.03L116.649 18.16L116.439 17.8L116.349 17.38L116.199 17.11L115.899 18.22L115.719 18.58L115.629 19.03L114.729 20.65L114.189 21.31L113.649 21.79L113.079 22.06L112.419 22.12L111.759 22.09L111.399 22L111.009 21.79L110.649 21.55L110.049 20.95L109.809 20.41L109.449 19.24L109.329 18.31L109.359 17.38L109.599 15.7L109.959 15.13L110.349 14.98L110.829 15.13L111.129 15.46L111.279 16.15L111.189 16.75V17.17L111.159 17.59L111.249 18.04V18.49L111.429 19.36L111.699 19.69L112.209 19.84L112.749 19.69L112.989 19.48L113.199 19.3L113.469 18.88L113.799 18.16L114.039 17.77L114.159 17.32L114.339 16.87L114.429 16.36L114.729 15.55L115.119 14.14L115.269 13.15L115.539 12.25L115.749 10.93L115.989 10.27L116.289 9.73L116.709 9.61L117.129 9.58L117.519 9.64L117.849 9.94L118.029 10.51L118.059 11.23L117.969 11.68L117.999 12.13L117.879 13.12L117.939 13.48L117.879 14.38L117.969 14.89V15.43L118.089 16.69L118.389 17.53L118.839 17.89L119.319 17.8L119.619 17.53L119.859 17.26L120.069 16.93L120.249 16.42L120.639 15.7L120.819 15.25L120.999 14.29L121.149 13.75L121.299 13.42L121.389 12.91L121.539 12.46L121.869 10.9L122.199 10.33L122.589 10.09L123.039 10.03L123.519 10.27L123.819 10.45L124.029 11.08L124.059 12.64L123.999 13.12V13.6L124.089 14.05V14.5L123.999 14.95L123.969 15.43L124.029 15.82L124.059 16.33L124.089 16.75L124.059 17.17L124.089 17.59L124.209 18.13L124.239 18.55L124.359 18.94L124.539 19.36L125.169 19.54L125.709 19.6L126.069 19.3L126.429 19.06L126.789 18.76L127.029 18.43L127.749 17.29L127.959 16.84L128.229 16.48L128.739 15.37L129.129 14.98ZM133.71 22.27L133.23 22.21L132.48 22.06L132.09 21.91L131.79 21.76L131.37 21.61L130.44 20.95L130.14 20.65L129.45 19.72L129.36 19.33L129.09 18.97L128.73 17.47V17.11L128.61 16.51L128.7 15.91L128.64 15.49L128.91 14.38L128.94 13.96L129.12 13.63L129.24 13.24L129.42 12.91L129.75 12.16L129.96 11.86L130.53 11.23L131.13 10.72L131.79 10.3L132.12 10.15L132.42 9.97L133.2 9.73L134.64 9.64L135.15 9.67L135.81 9.82L136.38 10.03L137.07 10.45L137.37 10.72L137.7 11.2L137.94 11.74L138.18 12.52L138.12 13.48L137.97 14.26L137.79 14.83L137.61 15.16L137.34 15.46L137.13 15.76L136.53 16.33L135.87 16.75L134.76 17.14L134.43 17.2L133.23 17.23L132.45 17.11L131.67 16.81L131.37 16.87L131.22 17.17L131.28 17.53L131.37 17.89L131.58 18.28L131.82 18.55L131.97 18.88L132.27 19.12L132.54 19.42L132.87 19.6L133.23 19.75L133.95 19.93L135.3 19.9L135.87 19.78L136.98 19.39L137.61 19.03L138.54 18.25L139.26 17.29L140.37 15.46L140.67 15.07H141.06L141.39 15.19L141.72 15.4L141.93 15.7L141.72 16.75L141.54 17.08L141.42 17.44L141.24 17.83L140.64 18.85L140.37 19.15L140.19 19.51L138.84 20.92L137.43 21.67L136.35 22.03L135.6 22.18L134.25 22.3L133.71 22.27ZM131.85 14.95L132.24 15.07L133.44 15.25L134.28 15.16L134.61 15.04L134.94 14.86L135.27 14.59L135.72 13.96L135.78 13.33L135.75 12.76L135.6 12.43L135.42 12.16L134.7 11.83L134.19 11.86L133.59 11.98L133.29 12.1L132.54 12.52L132.09 13.12L131.88 13.48L131.7 13.81L131.58 14.2L131.64 14.65L131.85 14.95ZM152.481 15.07L152.931 15.1L153.261 15.28L153.561 15.61L153.591 16.15L153.231 17.11L153.051 17.41L152.931 17.77L152.301 18.79L152.031 19.12L151.881 19.42L151.371 20.02L151.041 20.29L150.621 20.68L150.171 21.04L149.811 21.22L149.151 21.64L148.011 22L146.871 22.21L145.911 22.3L143.781 21.97L143.391 21.85L143.001 21.67L142.731 21.43L142.311 21.22L141.471 20.41L141.291 20.08L141.051 19.78L140.841 19.39L140.751 19.03L140.601 18.64L140.481 18.31L140.331 16.51L140.421 15.58V15.16L140.601 14.05L141.291 12.58L141.471 12.28L141.711 11.98L141.891 11.65L142.131 11.35L142.941 10.57L144.351 9.88L145.041 9.67L145.491 9.61L147.021 9.7L147.381 9.79L147.741 9.91L148.701 10.48L148.941 10.78L149.211 11.02L149.361 11.35L149.481 11.74L149.631 12.1L149.661 12.49L149.451 13.78L149.151 14.23L148.431 14.47H148.071L147.741 14.38L147.411 14.14L147.321 13.63L147.291 13.06L147.201 12.67L147.021 12.34L146.691 12.1L146.121 11.95H145.551L145.251 11.98L144.861 12.13L144.591 12.37L144.231 12.61L144.021 12.91L143.781 13.18L143.361 13.84L143.241 14.23L143.151 14.53L143.031 14.92L142.881 15.7L142.941 17.26L143.121 18.01L143.271 18.37L143.721 19L144.051 19.3L144.651 19.69L144.981 19.84L145.341 19.93L145.911 19.96L146.931 19.9L147.231 19.81L147.681 19.75L148.401 19.45L149.331 18.88L150.741 17.59L150.891 17.26L151.161 16.93L151.401 16.42L151.761 15.94L152.031 15.4L152.481 15.07ZM172.181 15.04L172.691 15.1L173.021 15.31L173.261 15.61V16.24L172.871 17.32L172.361 18.16L172.241 18.55L171.911 18.97L171.671 19.42L171.071 20.14L170.081 21.13L169.661 21.37L168.851 21.79L168.161 21.94L167.471 21.97L166.991 21.91L166.541 21.73L166.181 21.52L165.581 20.86L165.341 19.96L165.161 19.51V19.06L165.071 18.58V17.14L165.221 16.15V15.7L165.311 14.29L165.431 13.57V12.88L165.221 12.49L164.861 12.22L164.441 12.13L163.781 12.37L163.061 12.7L162.041 13.66L161.741 14.08L161.501 14.53L160.961 16.84L160.781 18.67L160.811 19.6L160.931 20.05L160.961 21.16L160.751 21.73L160.361 21.94L159.971 22.03L159.521 22L159.041 21.85L158.621 21.28L158.531 20.65L158.441 19.72L158.501 17.8L158.651 16.84V16.39L158.801 15.91L158.861 15.37L159.161 14.23L159.221 13.54L158.921 13.12L158.591 12.94L158.171 12.91L157.121 13.39L156.521 13.78L155.801 14.5L155.231 15.31L154.871 16.18L154.601 16.63L154.331 17.86L154.211 19.09L154.301 20.59L154.241 21.28L153.971 21.88L153.521 22.06H152.591L152.111 21.91L151.811 21.31L151.691 20.65L151.811 19.72L151.871 16.39L151.961 15.94L152.111 13.09L152.231 12.58L152.351 11.2L152.501 10.51L152.921 9.97L153.401 9.85L153.911 9.82L154.451 9.97L154.691 10.51L154.781 11.23L154.571 12.7L154.661 13L154.991 12.85L155.201 12.46L155.861 11.74L157.151 10.99L157.601 10.78L159.041 10.63L159.581 10.69L160.031 10.87L160.481 11.14L160.691 11.5L161.081 11.71L161.441 11.62L162.881 10.36L163.811 9.97L164.231 9.85L164.921 9.76L165.611 9.79L166.061 9.88L166.931 10.33L167.231 10.6L167.531 10.99L167.891 11.83L167.981 12.28L167.951 13.45L167.441 16.51L167.471 16.99L167.351 17.5L167.441 18.94L167.651 19.33L168.191 19.57L168.881 19.51L169.421 19.09L169.871 18.58L171.191 16.54L171.341 16.06L171.731 15.46L172.181 15.04ZM176.717 22.27L176.237 22.21L175.487 22.06L175.097 21.91L174.797 21.76L174.377 21.61L173.447 20.95L173.147 20.65L172.457 19.72L172.367 19.33L172.097 18.97L171.737 17.47V17.11L171.617 16.51L171.707 15.91L171.647 15.49L171.917 14.38L171.947 13.96L172.127 13.63L172.247 13.24L172.427 12.91L172.757 12.16L172.967 11.86L173.537 11.23L174.137 10.72L174.797 10.3L175.127 10.15L175.427 9.97L176.207 9.73L177.647 9.64L178.157 9.67L178.817 9.82L179.387 10.03L180.077 10.45L180.377 10.72L180.707 11.2L180.947 11.74L181.187 12.52L181.127 13.48L180.977 14.26L180.797 14.83L180.617 15.16L180.347 15.46L180.137 15.76L179.537 16.33L178.877 16.75L177.767 17.14L177.437 17.2L176.237 17.23L175.457 17.11L174.677 16.81L174.377 16.87L174.227 17.17L174.287 17.53L174.377 17.89L174.587 18.28L174.827 18.55L174.977 18.88L175.277 19.12L175.547 19.42L175.877 19.6L176.237 19.75L176.957 19.93L178.307 19.9L178.877 19.78L179.987 19.39L180.617 19.03L181.547 18.25L182.267 17.29L183.377 15.46L183.677 15.07H184.067L184.397 15.19L184.727 15.4L184.937 15.7L184.727 16.75L184.547 17.08L184.427 17.44L184.247 17.83L183.647 18.85L183.377 19.15L183.197 19.51L181.847 20.92L180.437 21.67L179.357 22.03L178.607 22.18L177.257 22.3L176.717 22.27ZM174.857 14.95L175.247 15.07L176.447 15.25L177.287 15.16L177.617 15.04L177.947 14.86L178.277 14.59L178.727 13.96L178.787 13.33L178.757 12.76L178.607 12.43L178.427 12.16L177.707 11.83L177.197 11.86L176.597 11.98L176.297 12.1L175.547 12.52L175.097 13.12L174.887 13.48L174.707 13.81L174.587 14.2L174.647 14.65L174.857 14.95ZM201.779 15.19L202.199 14.95L202.619 14.98L202.979 15.25L203.279 15.61L203.219 16.21L203.069 16.78L202.439 18.04L201.509 19.51L201.119 19.9L200.489 20.44L200.099 20.71L199.649 20.89L199.229 20.98L198.599 21.01L196.559 20.89L195.989 21.13L194.789 21.76L193.229 22.06H192.749L191.639 21.94L190.799 21.61L190.049 21.04L189.359 20.14L188.999 19.51L188.879 19.09L188.729 18.76L188.609 16.87V16.15L188.759 15.46V15.04L188.939 14.68L188.999 14.14L189.359 13.39L189.479 13L189.719 12.67L189.869 12.19L190.229 11.92L190.469 11.47L191.849 10.33L192.269 10.12L192.629 10.03L193.019 9.82L193.499 9.85L193.889 9.7L194.609 9.64L195.209 9.7L195.959 10.03V9.76L195.779 9.31L195.509 9.01L194.699 7.9L194.039 6.73L193.529 5.44V4.93L193.379 4.54V3.58L193.499 2.68L193.709 2.26L193.979 1.87L194.309 1.54L194.669 1.27L195.449 0.939999L196.829 0.969999L197.309 1.06L197.759 0.999999L198.689 1.06L199.139 0.91L199.769 0.879998L200.429 1.06L200.669 1.48L200.759 1.87L200.609 2.38L200.159 2.71L199.649 3.01L198.779 3.22L198.329 3.25L196.439 3.1L195.899 3.37L195.809 3.7V4.21L195.899 4.72L196.049 5.14L196.139 5.59L196.319 6.07L196.619 6.43L196.769 6.79L197.459 7.99L197.789 8.29L198.029 8.77L198.119 9.22L198.629 10.36L198.719 10.87L198.839 11.29L198.899 11.8L199.019 12.16L199.109 12.61L199.079 13.15L199.139 13.45L199.079 13.93V14.44L198.869 16.3L198.449 17.62L198.359 17.98L198.179 18.49L198.089 18.94L198.629 19.12L199.259 18.94L200.219 18.04L200.489 17.68L200.759 17.23L201.149 16.39L201.419 16.06L201.779 15.19ZM193.619 19.75L194.009 19.63L194.339 19.36L194.699 18.88L194.849 18.43L194.939 18.01L195.089 17.62L195.449 17.38L195.959 17.08L196.409 16.18L196.559 15.49L196.409 13.3L196.289 12.85L196.019 12.46L195.629 12.16L195.329 12.04L194.609 11.92H193.889L193.499 12.04L192.449 12.79L192.239 13.21L191.969 13.45L191.609 14.29L191.489 14.77L191.279 15.19L191.069 16.9V17.86L191.369 18.76L191.609 19.15L191.879 19.39L192.329 19.66L192.959 19.75H193.619ZM214.847 15.07L215.297 15.16L215.657 15.52V16.21L215.477 16.93L215.297 17.35L215.027 17.77L214.847 18.22L214.307 19L213.887 19.81L213.587 20.2L213.347 20.59L210.977 23.26L210.737 23.92L210.677 24.88L210.587 25.39L210.317 26.32L210.077 26.8L209.837 27.22L209.627 27.67L208.637 28.78L208.217 28.99L207.857 29.23L207.377 29.41L206.897 29.53L206.237 29.56L205.517 29.53L205.097 29.38L204.587 29.17L204.287 28.87L203.687 28.18L203.537 27.73L203.477 27.28L203.507 26.8V26.41L204.077 25.15L204.347 24.79L205.457 23.86L206.717 23.11L207.137 22.9L207.947 22.42L208.367 21.94L208.667 21.28L208.787 20.26L208.697 19.96L208.397 20.08L207.347 21.1L206.957 21.37L206.027 21.79L205.517 21.97L204.857 22.03L204.137 22L203.627 21.88L203.177 21.73L202.817 21.52L202.487 21.28L201.827 20.5L201.497 19.66L201.317 18.7V17.95L201.467 16.27L201.617 15.76L202.007 13.39L202.037 12.19L201.917 11.65L201.227 11.59L200.687 11.41L200.477 10.96L200.747 10.39L201.197 9.88L201.587 9.7L202.097 9.58L202.547 9.55L203.417 9.76L203.897 10.03L204.197 10.36L204.467 10.75L204.587 11.47L204.557 12.13L204.407 12.85L204.347 13.54L204.227 14.02L204.137 15.01L204.017 15.49L203.927 16V16.45L203.837 16.99L203.897 18.85L204.107 19.27L204.377 19.6L205.067 19.69L205.817 19.66L206.657 19.27L206.987 18.97L207.377 18.67L207.917 17.89L208.607 16.54L209.057 14.23L209.117 13.3L209.597 10.3L209.927 9.79L210.377 9.7L210.857 9.73L211.247 9.85L211.667 10.09L211.757 10.69L211.817 11.35L211.187 18.19L211.067 18.7L211.007 19.69L211.187 20.05L211.487 19.96L212.477 18.43L212.807 18.04L213.167 17.26L213.407 16.84L213.857 15.97L214.277 15.43L214.847 15.07ZM206.927 27.28L207.317 27.01L207.857 26.29L208.247 25.39L208.367 24.94L208.277 24.55L207.947 24.58L207.467 24.82L206.507 25.54L206.057 26.11L205.877 26.59L205.817 27.04L206.327 27.34L206.927 27.28ZM227.809 15.01L228.319 15.19L228.709 15.49V16.12L228.589 16.84L228.289 17.32L228.139 17.74L227.839 18.13L227.659 18.58L227.389 19L227.179 19.39L226.069 20.95L225.709 21.34L225.469 21.73L224.329 22.78L223.939 23.32L223.639 24.37V24.88L223.069 26.74L222.859 27.19L222.559 27.64L221.989 28.39L221.599 28.72L221.179 29.02L220.819 29.2L220.369 29.38L219.919 29.5L218.449 29.53L217.579 29.14L216.919 28.57L216.649 28.15L216.469 27.73L216.439 26.8L216.499 26.35L217.069 25.09L218.089 24.07L218.449 23.8L220.519 22.66L220.969 22.45L221.419 21.97L221.629 21.16L221.749 20.38L221.569 20.08L221.269 20.14L220.999 20.47L220.399 20.89L219.349 21.43L218.509 21.64L217.789 21.7L217.099 21.64L216.649 21.58L216.229 21.4L215.509 20.92L215.119 20.56L214.369 19.45L213.979 18.07L213.919 17.59L213.949 17.08L213.919 16.66L214.039 16.18L214.219 14.74L214.699 13.36L214.939 12.94L215.149 12.46L215.479 12.07L215.689 11.68L216.469 10.96L216.859 10.69L217.219 10.42L218.149 10.03L219.139 9.82L220.579 9.76L222.049 10.03L222.409 10.24L222.919 10.39L223.399 10.57L224.209 11.11L224.539 11.68L224.629 12.37V13.24L224.509 13.72L224.419 15.64L224.329 16.09V16.54L224.239 17.02L224.179 17.47L224.209 17.95L224.089 18.4V18.91L223.999 19.81L224.119 20.08L224.389 19.99L224.719 19.6L224.899 19.27L225.229 18.88L225.739 18.07L225.919 17.65L226.159 17.26L226.429 16.84L226.669 16.45L227.269 15.4L227.809 15.01ZM219.229 19.27L219.649 19.12L220.009 18.88L220.429 18.55L220.759 18.25L221.239 17.44L221.389 16.99L221.809 16.09L221.959 15.16L222.019 14.68L222.109 14.17L222.169 13.3L221.929 12.67L221.479 12.25L221.059 12.04L220.639 11.98L220.159 11.95L219.649 11.98L218.779 12.31L218.359 12.58L217.999 12.88L217.369 13.6L216.589 15.37L216.289 16.75L216.409 17.68L216.499 18.13L216.679 18.52L216.979 18.88L217.399 19.18L217.759 19.36H218.479L219.229 19.27ZM219.919 27.31L220.309 27.1L220.609 26.8L220.879 26.38L221.419 24.97L221.209 24.58H220.879L220.429 24.88L219.529 25.69L219.049 26.2L218.839 26.62V27.07L219.349 27.37L219.919 27.31ZM232.206 22.27L231.726 22.21L230.976 22.06L230.586 21.91L230.286 21.76L229.866 21.61L228.936 20.95L228.636 20.65L227.946 19.72L227.856 19.33L227.586 18.97L227.226 17.47V17.11L227.106 16.51L227.196 15.91L227.136 15.49L227.406 14.38L227.436 13.96L227.616 13.63L227.736 13.24L227.916 12.91L228.246 12.16L228.456 11.86L229.026 11.23L229.626 10.72L230.286 10.3L230.616 10.15L230.916 9.97L231.696 9.73L233.136 9.64L233.646 9.67L234.306 9.82L234.876 10.03L235.566 10.45L235.866 10.72L236.196 11.2L236.436 11.74L236.676 12.52L236.616 13.48L236.466 14.26L236.286 14.83L236.106 15.16L235.836 15.46L235.626 15.76L235.026 16.33L234.366 16.75L233.256 17.14L232.926 17.2L231.726 17.23L230.946 17.11L230.166 16.81L229.866 16.87L229.716 17.17L229.776 17.53L229.866 17.89L230.076 18.28L230.316 18.55L230.466 18.88L230.766 19.12L231.036 19.42L231.366 19.6L231.726 19.75L232.446 19.93L233.796 19.9L234.366 19.78L235.476 19.39L236.106 19.03L237.036 18.25L237.756 17.29L238.866 15.46L239.166 15.07H239.556L239.886 15.19L240.216 15.4L240.426 15.7L240.216 16.75L240.036 17.08L239.916 17.44L239.736 17.83L239.136 18.85L238.866 19.15L238.686 19.51L237.336 20.92L235.926 21.67L234.846 22.03L234.096 22.18L232.746 22.3L232.206 22.27ZM230.346 14.95L230.736 15.07L231.936 15.25L232.776 15.16L233.106 15.04L233.436 14.86L233.766 14.59L234.216 13.96L234.276 13.33L234.246 12.76L234.096 12.43L233.916 12.16L233.196 11.83L232.686 11.86L232.086 11.98L231.786 12.1L231.036 12.52L230.586 13.12L230.376 13.48L230.196 13.81L230.076 14.2L230.136 14.65L230.346 14.95ZM259.047 15.04L259.557 15.1L259.887 15.31L260.127 15.61V16.24L259.737 17.32L259.227 18.16L259.107 18.55L258.777 18.97L258.537 19.42L257.937 20.14L256.947 21.13L256.527 21.37L255.717 21.79L255.027 21.94L254.337 21.97L253.857 21.91L253.407 21.73L253.047 21.52L252.447 20.86L252.207 19.96L252.027 19.51V19.06L251.937 18.58V17.14L252.087 16.15V15.7L252.177 14.29L252.297 13.57V12.88L252.087 12.49L251.727 12.22L251.307 12.13L250.647 12.37L249.927 12.7L248.907 13.66L248.607 14.08L248.367 14.53L247.827 16.84L247.647 18.67L247.677 19.6L247.797 20.05L247.827 21.16L247.617 21.73L247.227 21.94L246.837 22.03L246.387 22L245.907 21.85L245.487 21.28L245.397 20.65L245.307 19.72L245.367 17.8L245.517 16.84V16.39L245.667 15.91L245.727 15.37L246.027 14.23L246.087 13.54L245.787 13.12L245.457 12.94L245.037 12.91L243.987 13.39L243.387 13.78L242.667 14.5L242.097 15.31L241.737 16.18L241.467 16.63L241.197 17.86L241.077 19.09L241.167 20.59L241.107 21.28L240.837 21.88L240.387 22.06H239.457L238.977 21.91L238.677 21.31L238.557 20.65L238.677 19.72L238.737 16.39L238.827 15.94L238.977 13.09L239.097 12.58L239.217 11.2L239.367 10.51L239.787 9.97L240.267 9.85L240.777 9.82L241.317 9.97L241.557 10.51L241.647 11.23L241.437 12.7L241.527 13L241.857 12.85L242.067 12.46L242.727 11.74L244.017 10.99L244.467 10.78L245.907 10.63L246.447 10.69L246.897 10.87L247.347 11.14L247.557 11.5L247.947 11.71L248.307 11.62L249.747 10.36L250.677 9.97L251.097 9.85L251.787 9.76L252.477 9.79L252.927 9.88L253.797 10.33L254.097 10.6L254.397 10.99L254.757 11.83L254.847 12.28L254.817 13.45L254.307 16.51L254.337 16.99L254.217 17.5L254.307 18.94L254.517 19.33L255.057 19.57L255.747 19.51L256.287 19.09L256.737 18.58L258.057 16.54L258.207 16.06L258.597 15.46L259.047 15.04ZM14.3084 52.01L14.8184 52.19L15.2084 52.49V53.12L15.0884 53.84L14.7884 54.32L14.6384 54.74L14.3384 55.13L14.1584 55.58L13.8884 56L13.6784 56.39L12.5684 57.95L12.2084 58.34L11.9684 58.73L10.8284 59.78L10.4384 60.32L10.1384 61.37V61.88L9.56836 63.74L9.35836 64.19L9.05836 64.64L8.48836 65.39L8.09836 65.72L7.67836 66.02L7.31836 66.2L6.86836 66.38L6.41836 66.5L4.94836 66.53L4.07836 66.14L3.41836 65.57L3.14836 65.15L2.96836 64.73L2.93836 63.8L2.99836 63.35L3.56836 62.09L4.58836 61.07L4.94836 60.8L7.01836 59.66L7.46836 59.45L7.91836 58.97L8.12836 58.16L8.24836 57.38L8.06836 57.08L7.76836 57.14L7.49836 57.47L6.89836 57.89L5.84836 58.43L5.00836 58.64L4.28836 58.7L3.59836 58.64L3.14836 58.58L2.72836 58.4L2.00836 57.92L1.61836 57.56L0.868359 56.45L0.478359 55.07L0.418359 54.59L0.448359 54.08L0.418359 53.66L0.538359 53.18L0.718359 51.74L1.19836 50.36L1.43836 49.94L1.64836 49.46L1.97836 49.07L2.18836 48.68L2.96836 47.96L3.35836 47.69L3.71836 47.42L4.64836 47.03L5.63836 46.82L7.07836 46.76L8.54836 47.03L8.90836 47.24L9.41836 47.39L9.89836 47.57L10.7084 48.11L11.0384 48.68L11.1284 49.37V50.24L11.0084 50.72L10.9184 52.64L10.8284 53.09V53.54L10.7384 54.02L10.6784 54.47L10.7084 54.95L10.5884 55.4V55.91L10.4984 56.81L10.6184 57.08L10.8884 56.99L11.2184 56.6L11.3984 56.27L11.7284 55.88L12.2384 55.07L12.4184 54.65L12.6584 54.26L12.9284 53.84L13.1684 53.45L13.7684 52.4L14.3084 52.01ZM5.72836 56.27L6.14836 56.12L6.50836 55.88L6.92836 55.55L7.25836 55.25L7.73836 54.44L7.88836 53.99L8.30836 53.09L8.45836 52.16L8.51836 51.68L8.60836 51.17L8.66836 50.3L8.42836 49.67L7.97836 49.25L7.55836 49.04L7.13836 48.98L6.65836 48.95L6.14836 48.98L5.27836 49.31L4.85836 49.58L4.49836 49.88L3.86836 50.6L3.08836 52.37L2.78836 53.75L2.90836 54.68L2.99836 55.13L3.17836 55.52L3.47836 55.88L3.89836 56.18L4.25836 56.36H4.97836L5.72836 56.27ZM6.41836 64.31L6.80836 64.1L7.10836 63.8L7.37836 63.38L7.91836 61.97L7.70836 61.58H7.37836L6.92836 61.88L6.02836 62.69L5.54836 63.2L5.33836 63.62V64.07L5.84836 64.37L6.41836 64.31ZM17.4148 59.03L17.2348 58.97H17.0548L16.7848 58.94L16.6048 58.91L16.3648 58.88L16.1848 58.82L15.5548 58.46L15.4048 58.37L15.0448 58.13L14.6548 57.74L14.5048 57.53L14.3248 57.23L14.2348 57.05L14.1448 56.9L14.0548 56.72L13.7548 55.79L13.7248 55.61L13.6948 55.4L13.6648 55.22L13.5448 53.81V53.63L13.5748 53.06L13.6048 52.88L13.6648 52.64L13.7248 52.46L13.7548 52.25L13.7848 52.07L14.1748 50.75L14.2348 50.57L14.3248 50.42L14.3848 50.24L14.8948 49.4L14.9848 49.25L15.1048 49.04L15.2248 48.92L15.6148 48.47L15.7348 48.35L16.4848 47.69L16.6348 47.6L17.3548 47.24L17.5348 47.18L18.3148 46.88L18.4948 46.85L19.8748 46.82H20.0548L20.2648 46.85L20.4448 46.91L21.2248 47.15L21.4048 47.18L21.8248 47.27L21.9748 47.21L22.1548 47L22.2748 46.88L22.5448 46.67L22.6948 46.61L23.3248 46.64H23.5048L23.6848 46.67L23.8648 46.76L23.9248 46.82L24.0448 46.97L24.1948 47.3L24.2548 47.48L24.3148 47.84V48.02L24.2248 48.65V49.04L24.1348 49.58L24.0448 50.18V50.36L24.0148 51.38L23.9848 51.56L23.9548 51.8L23.9248 51.98L23.9548 52.52L23.9248 52.7L23.8948 52.94L23.8648 53.12L23.8948 54.11L23.8648 54.29L23.8348 54.5L23.8048 54.68L23.8948 55.25V55.64L23.9248 55.82L24.0448 56.03L24.1348 56.18L24.2848 56.33L24.4348 56.45L24.7348 56.51L24.9148 56.54L25.2448 56.48L25.4248 56.45L25.7248 56.27L26.4448 55.55L26.5648 55.4L26.7448 55.1L26.9248 54.89L27.0148 54.74L27.1048 54.5L27.1948 54.35L27.3748 54.14L27.4648 53.99L27.7648 53.42L27.8248 53.24L27.8848 53.03L27.9748 52.88L28.1848 52.49L28.6348 52.13L28.7848 52.07H28.9648L29.1448 52.1L29.2948 52.16L29.4448 52.25L29.6548 52.37L29.7448 52.49L29.8348 52.64L29.8648 52.82L29.8048 53.21L29.7748 53.39L29.5648 54.02L29.4748 54.2L29.3548 54.41L29.2648 54.59L29.2048 54.74L29.1148 54.89L28.7848 55.43L28.5148 55.88L28.1848 56.39L28.0948 56.54L28.0048 56.72L27.9148 56.87L27.2548 57.59L27.1348 57.71L26.8948 57.83L26.6248 58.1L26.4748 58.22L26.1748 58.43L25.9948 58.52L25.7548 58.67L25.5748 58.73L24.7948 58.91L24.6148 58.94L24.1948 58.97H24.0148L23.7748 58.91L23.5948 58.88L23.4148 58.79L23.1148 58.61L22.9948 58.46L22.8448 58.31L22.7548 58.19L22.6048 57.95L22.5148 57.83L22.3648 57.62L22.1848 57.32L22.1248 57.14L22.0948 56.87L22.0348 56.69L21.9748 56.63L21.8548 56.57L21.7048 56.63L21.5548 56.72L20.7148 57.8L20.5948 57.92L20.0848 58.28L19.9648 58.37L19.8148 58.46L19.6348 58.52L18.7048 58.91L18.5248 58.94L17.5948 59.03H17.4148ZM18.7948 56.54L19.0348 56.45L19.2148 56.36L19.6648 56.09L19.8148 55.97L19.9048 55.82L20.0248 55.7L20.4148 55.28L20.5348 55.16L20.6548 54.92L20.7448 54.77L21.2848 53.36L21.3448 53.18L21.4948 52.46L21.5248 52.28L21.6148 51.65L21.6448 51.47L21.7048 51.29L21.7348 51.11V50.9L21.7948 50.54V50.18L21.7648 50L21.6748 49.7L21.5848 49.55L21.3748 49.34L21.2248 49.25L20.9848 49.16L20.8048 49.1L20.2348 49.01H20.0548L19.6348 49.04H19.4548L19.0948 49.1L18.9148 49.16L18.7048 49.25L18.5248 49.34L18.0148 49.64L17.8648 49.76L17.7148 49.91L17.5948 50.06L17.2348 50.54L17.1448 50.69L16.4248 51.95L16.3648 52.13L16.1848 52.7L16.1548 52.88L16.0948 53.12L16.0648 53.3L16.0048 53.48L15.9748 53.66L16.0048 54.71L16.0348 54.89L16.0948 55.07L16.1248 55.25L16.1848 55.49L16.2448 55.67L16.4248 55.97L16.8448 56.42L16.9648 56.51L17.2048 56.66L17.3548 56.72H17.4748L17.6548 56.75L18.6148 56.57L18.7948 56.54ZM41.8153 52.07L42.2353 52.1L42.6553 52.31L42.9553 52.64L42.9253 53.3L42.7453 53.9L41.7853 55.61L41.2153 56.42L40.5853 57.14L39.5053 57.98L39.0553 58.19L38.6053 58.34L37.8553 58.46L36.9253 58.43L36.2653 58.28H35.6953L35.0353 58.49L34.2253 58.91L33.4153 59.21L32.5153 59.42L31.0753 59.39L30.5653 59.54L30.2653 60.02L30.0253 62.39L29.9353 62.84L29.9053 63.32L29.6953 65.27L29.5153 65.9L29.0653 66.44L28.5553 66.5L28.0453 66.47L27.5653 66.32L27.3253 65.75L27.5053 63.68L27.6553 63.23L27.7153 62.78L27.6853 62.3L27.7153 61.82L27.8353 61.37L27.8653 60.92L27.9553 60.38L28.0153 59.45L28.0753 58.97V58.46L28.2253 57.53V57.02L28.2853 56.54L28.2553 56.06L28.3153 55.61V55.1L28.3753 54.14L28.2853 50.78L28.1953 50.3V49.31L28.0153 48.35L27.9853 47.63L28.1953 47.06L28.5853 46.82L29.0653 46.67L29.4853 46.7L29.8753 46.82L30.2653 47.39L30.3853 48.65L30.6553 49.01L30.9253 48.89L32.3953 47.57L33.6853 46.94L35.1253 46.73L36.0853 46.82L36.9253 47.15L37.3153 47.42L38.0053 48.08L38.5453 48.89L38.7253 49.31L38.9353 50.48L38.8753 52.16L38.6653 53.12L38.4853 53.57L38.3953 53.99L38.1853 54.5L38.0653 54.95L37.7653 55.34L37.5853 55.76L37.4953 56.21L38.0653 56.39L38.6953 56.15L39.0853 55.91L39.4753 55.61L39.7153 55.22L40.0753 54.86L40.2853 54.44L40.5853 53.96L41.0053 53.09L41.3953 52.49L41.8153 52.07ZM31.2553 57.14L31.7353 57.2L32.3053 57.17L33.2053 56.96L33.6253 56.75L34.0453 56.24L34.6153 55.1L34.9753 54.8L35.5453 54.38L35.9353 53.87L36.1453 53.39L36.3853 52.43L36.4453 50.72L36.3253 50L36.1453 49.61L35.8453 49.25L35.3953 49.01L35.0353 48.92L34.0753 49.07L32.8453 49.79L32.1553 50.51L31.3453 51.77L30.8953 52.67L30.7453 53.33L30.6853 55.4L30.5653 56.3L30.8353 56.81L31.2553 57.14ZM43.8696 59L43.3896 58.88L42.9996 58.73L42.1896 58.19L41.9196 57.83L41.6796 57.44L41.1996 56.12L41.1396 55.67L41.2596 54.26L41.2296 53.78L41.3196 52.85L41.4696 52.4V51.92L41.5596 51.44L41.7396 51.02L41.8596 50.51L41.9196 49.34L41.8896 48.74L41.1996 48.62L40.5996 48.44L40.3596 48.02L40.5996 47.36L40.9896 46.88L41.4696 46.67L41.9196 46.58L42.3996 46.55L42.9396 46.61L43.3596 46.82L43.7496 47.06L44.0796 47.33L44.2896 47.75L44.3796 48.5L44.1996 50.69L43.9296 52.13L43.8096 52.58V53.06L43.6896 53.57L43.6296 54.05L43.6596 54.5V55.25L43.7796 55.91L43.9296 56.33L44.2596 56.6L44.8896 56.69L45.5796 56.66L46.0296 56.48L46.8096 55.97L47.4396 55.34L47.6796 54.92L47.8896 54.5L48.1596 54.05L48.7296 52.16L48.8196 51.44V50.75L49.1196 48.86L49.0896 48.35L49.3896 47.24L49.8096 46.76L50.2896 46.73L50.7696 46.79L51.1896 47.03L51.4896 47.6L51.5196 48.32L51.4596 48.8L51.3396 49.28L51.3696 49.7L51.3096 50.18L51.1896 50.66L50.9796 53.45L51.0396 53.96L50.9496 54.41V54.86L51.0096 55.34L51.1296 55.82L51.2796 56.24L51.7896 56.54L52.4196 56.48L52.8396 56.27L53.1696 55.97L53.8296 55.19L54.0396 54.77L54.3696 54.38L54.6096 53.96L54.7896 53.51L55.3896 52.49L55.8396 52.07L56.2896 52.1L56.6496 52.28L56.9496 52.61L56.8896 53.24L56.2896 54.77L56.0496 55.19L55.7496 55.61L55.5696 56.06L54.9996 56.87L54.0096 57.89L52.7796 58.73L52.3596 58.88L51.8496 58.97L51.0996 58.94L50.4996 58.79L50.0496 58.52L49.7196 58.13L49.3296 57.23L49.2096 56.75L48.9396 56.45L48.6696 56.57L48.1296 57.35L46.9596 58.28L46.5996 58.52L46.1796 58.7L45.7296 58.85L43.8696 59ZM75.5749 52.04L76.0849 52.1L76.4149 52.31L76.6549 52.61V53.24L76.2649 54.32L75.7549 55.16L75.6349 55.55L75.3049 55.97L75.0649 56.42L74.4649 57.14L73.4749 58.13L73.0549 58.37L72.2449 58.79L71.5549 58.94L70.8649 58.97L70.3849 58.91L69.9349 58.73L69.5749 58.52L68.9749 57.86L68.7349 56.96L68.5549 56.51V56.06L68.4649 55.58V54.14L68.6149 53.15V52.7L68.7049 51.29L68.8249 50.57V49.88L68.6149 49.49L68.2549 49.22L67.8349 49.13L67.1749 49.37L66.4549 49.7L65.4349 50.66L65.1349 51.08L64.8949 51.53L64.3549 53.84L64.1749 55.67L64.2049 56.6L64.3249 57.05L64.3549 58.16L64.1449 58.73L63.7549 58.94L63.3649 59.03L62.9149 59L62.4349 58.85L62.0149 58.28L61.9249 57.65L61.8349 56.72L61.8949 54.8L62.0449 53.84V53.39L62.1949 52.91L62.2549 52.37L62.5549 51.23L62.6149 50.54L62.3149 50.12L61.9849 49.94L61.5649 49.91L60.5149 50.39L59.9149 50.78L59.1949 51.5L58.6249 52.31L58.2649 53.18L57.9949 53.63L57.7249 54.86L57.6049 56.09L57.6949 57.59L57.6349 58.28L57.3649 58.88L56.9149 59.06H55.9849L55.5049 58.91L55.2049 58.31L55.0849 57.65L55.2049 56.72L55.2649 53.39L55.3549 52.94L55.5049 50.09L55.6249 49.58L55.7449 48.2L55.8949 47.51L56.3149 46.97L56.7949 46.85L57.3049 46.82L57.8449 46.97L58.0849 47.51L58.1749 48.23L57.9649 49.7L58.0549 50L58.3849 49.85L58.5949 49.46L59.2549 48.74L60.5449 47.99L60.9949 47.78L62.4349 47.63L62.9749 47.69L63.4249 47.87L63.8749 48.14L64.0849 48.5L64.4749 48.71L64.8349 48.62L66.2749 47.36L67.2049 46.97L67.6249 46.85L68.3149 46.76L69.0049 46.79L69.4549 46.88L70.3249 47.33L70.6249 47.6L70.9249 47.99L71.2849 48.83L71.3749 49.28L71.3449 50.45L70.8349 53.51L70.8649 53.99L70.7449 54.5L70.8349 55.94L71.0449 56.33L71.5849 56.57L72.2749 56.51L72.8149 56.09L73.2649 55.58L74.5849 53.54L74.7349 53.06L75.1249 52.46L75.5749 52.04ZM87.851 52.19L88.181 52.1L88.571 52.07L88.961 52.22L89.261 52.49L89.291 53.15L89.051 53.87L88.241 55.55L87.941 55.82L87.701 56.18L86.351 57.53L85.511 57.95L84.401 58.07L83.831 58.01H83.321L82.781 57.95L81.461 58.73L81.011 58.91L80.351 59L78.311 59.09L76.901 58.73L76.571 58.37L76.151 58.19L75.581 57.44L75.251 56.6L75.041 55.61L74.981 54.86L75.071 53.75L75.041 53.36L75.071 52.91L75.461 51.02L75.491 50.51L76.121 48.35L76.181 47.93L76.511 47.24L76.931 46.79L77.381 46.61L77.831 46.64L78.221 46.76L78.551 47.09L78.581 47.72L78.461 48.41L78.281 48.8L77.831 50.6L77.681 50.99L77.561 51.5L77.681 51.8L78.041 51.71L78.401 51.35L78.881 51.17L79.361 50.96L79.751 50.87L81.641 50.9L83.201 51.71L83.531 52.04L83.741 52.43L84.221 53.57L84.251 54.53L84.191 55.01L84.071 55.4L84.131 55.85L84.611 56.09L85.211 55.94L85.901 55.4L86.171 55.13L86.441 54.65L86.711 54.32L87.551 52.58L87.851 52.19ZM79.751 56.96L80.111 56.9L80.891 56.6L81.101 56L81.281 55.34L81.761 54.32L81.881 53.81L81.731 53.45L81.461 53.09L81.101 52.76L80.741 52.64H79.481L79.061 52.76L78.611 53.06L78.221 53.21L77.921 53.51L77.441 54.44L77.351 55.13L77.381 55.61L77.531 55.91L77.831 56.33L78.461 56.87L78.881 57.05H79.271L79.751 56.96ZM105.21 52.07L105.66 52.1L105.99 52.28L106.29 52.61L106.32 53.15L105.96 54.11L105.78 54.41L105.66 54.77L105.03 55.79L104.76 56.12L104.61 56.42L104.1 57.02L103.77 57.29L103.35 57.68L102.9 58.04L102.54 58.22L101.88 58.64L100.74 59L99.6 59.21L98.64 59.3L96.51 58.97L96.12 58.85L95.73 58.67L95.46 58.43L95.04 58.22L94.2 57.41L94.02 57.08L93.78 56.78L93.57 56.39L93.48 56.03L93.33 55.64L93.21 55.31L93.06 53.51L93.15 52.58V52.16L93.33 51.05L94.02 49.58L94.2 49.28L94.44 48.98L94.62 48.65L94.86 48.35L95.67 47.57L97.08 46.88L97.77 46.67L98.22 46.61L99.75 46.7L100.11 46.79L100.47 46.91L101.43 47.48L101.67 47.78L101.94 48.02L102.09 48.35L102.21 48.74L102.36 49.1L102.39 49.49L102.18 50.78L101.88 51.23L101.16 51.47H100.8L100.47 51.38L100.14 51.14L100.05 50.63L100.02 50.06L99.93 49.67L99.75 49.34L99.42 49.1L98.85 48.95H98.28L97.98 48.98L97.59 49.13L97.32 49.37L96.96 49.61L96.75 49.91L96.51 50.18L96.09 50.84L95.97 51.23L95.88 51.53L95.76 51.92L95.61 52.7L95.67 54.26L95.85 55.01L96 55.37L96.45 56L96.78 56.3L97.38 56.69L97.71 56.84L98.07 56.93L98.64 56.96L99.66 56.9L99.96 56.81L100.41 56.75L101.13 56.45L102.06 55.88L103.47 54.59L103.62 54.26L103.89 53.93L104.13 53.42L104.49 52.94L104.76 52.4L105.21 52.07ZM116.991 52.04H117.411L117.771 52.19L118.011 52.49L118.041 53.15L117.861 53.81L117.471 54.71L117.261 55.01L117.081 55.43L116.061 56.93L115.071 57.95L114.741 58.22L114.321 58.43L113.931 58.67L113.511 58.82L113.151 59L112.731 58.97L111.381 59.21L110.871 59.15L110.481 59.06L110.091 58.85L109.641 58.67L109.281 58.37L108.981 58.07L108.741 57.68L108.471 57.32L108.201 56.54L107.991 55.58L107.871 54.32L107.931 53.87L108.051 53.48L108.201 52.67L108.501 51.8L108.681 51.44L108.801 50.96L109.041 50.6L109.401 49.79L109.611 49.46L109.671 49.07L109.221 48.92L108.831 48.95L108.411 48.92L107.901 49.01L107.601 49.4L107.481 49.88L107.331 50.27L107.301 50.72L107.091 51.2L106.941 51.71L106.251 53.39L105.921 53.96L105.411 54.32L104.991 54.26L104.661 54.05L104.421 53.6L104.511 52.97L104.691 52.4L104.931 51.98L105.201 51.05L105.411 50.69L105.531 50.24L105.711 49.88L105.801 48.86L105.951 48.47L105.741 47.09L105.561 46.61L105.591 46.19L105.741 45.74L105.981 45.44L106.431 45.26L106.911 45.32L107.331 45.5L107.571 45.92L108.471 46.79L109.941 46.97H110.421L111.051 46.7L111.681 46.34L112.131 46.13L112.551 46.04L113.031 46.25L113.331 46.46L113.631 46.88V47.24L112.911 48.47L112.611 48.8L112.281 49.13L112.071 49.58L111.771 49.88L111.531 50.36L111.381 50.78L111.171 51.08L110.841 51.98L110.691 52.46L110.541 52.88L110.511 53.36L110.361 53.87L110.301 54.26L110.331 54.98L110.511 55.67L110.961 56.45L111.351 56.69L112.011 56.81L112.671 56.75L113.061 56.57L113.451 56.45L113.811 56.27L114.531 55.61L114.771 55.25L115.101 54.92L115.371 54.59L116.511 52.43L116.991 52.04ZM120.188 59.03L120.008 58.97H119.828L119.558 58.94L119.378 58.91L119.138 58.88L118.958 58.82L118.328 58.46L118.178 58.37L117.818 58.13L117.428 57.74L117.278 57.53L117.098 57.23L117.008 57.05L116.918 56.9L116.828 56.72L116.528 55.79L116.498 55.61L116.468 55.4L116.438 55.22L116.318 53.81V53.63L116.348 53.06L116.378 52.88L116.438 52.64L116.498 52.46L116.528 52.25L116.558 52.07L116.948 50.75L117.008 50.57L117.098 50.42L117.158 50.24L117.668 49.4L117.758 49.25L117.878 49.04L117.998 48.92L118.388 48.47L118.508 48.35L119.258 47.69L119.408 47.6L120.128 47.24L120.308 47.18L121.088 46.88L121.268 46.85L122.648 46.82H122.828L123.038 46.85L123.218 46.91L123.998 47.15L124.178 47.18L124.598 47.27L124.748 47.21L124.928 47L125.048 46.88L125.318 46.67L125.468 46.61L126.098 46.64H126.278L126.458 46.67L126.638 46.76L126.698 46.82L126.818 46.97L126.968 47.3L127.028 47.48L127.088 47.84V48.02L126.998 48.65V49.04L126.908 49.58L126.818 50.18V50.36L126.788 51.38L126.758 51.56L126.728 51.8L126.698 51.98L126.728 52.52L126.698 52.7L126.668 52.94L126.638 53.12L126.668 54.11L126.638 54.29L126.608 54.5L126.578 54.68L126.668 55.25V55.64L126.698 55.82L126.818 56.03L126.908 56.18L127.058 56.33L127.208 56.45L127.508 56.51L127.688 56.54L128.018 56.48L128.198 56.45L128.498 56.27L129.218 55.55L129.338 55.4L129.518 55.1L129.698 54.89L129.788 54.74L129.878 54.5L129.968 54.35L130.148 54.14L130.238 53.99L130.538 53.42L130.598 53.24L130.658 53.03L130.748 52.88L130.958 52.49L131.408 52.13L131.558 52.07H131.738L131.918 52.1L132.068 52.16L132.218 52.25L132.428 52.37L132.518 52.49L132.608 52.64L132.638 52.82L132.578 53.21L132.548 53.39L132.338 54.02L132.248 54.2L132.128 54.41L132.038 54.59L131.978 54.74L131.888 54.89L131.558 55.43L131.288 55.88L130.958 56.39L130.868 56.54L130.778 56.72L130.688 56.87L130.028 57.59L129.908 57.71L129.668 57.83L129.398 58.1L129.248 58.22L128.948 58.43L128.768 58.52L128.528 58.67L128.348 58.73L127.568 58.91L127.388 58.94L126.968 58.97H126.788L126.548 58.91L126.368 58.88L126.188 58.79L125.888 58.61L125.768 58.46L125.618 58.31L125.528 58.19L125.378 57.95L125.288 57.83L125.138 57.62L124.958 57.32L124.898 57.14L124.868 56.87L124.808 56.69L124.748 56.63L124.628 56.57L124.478 56.63L124.328 56.72L123.488 57.8L123.368 57.92L122.858 58.28L122.738 58.37L122.588 58.46L122.408 58.52L121.478 58.91L121.298 58.94L120.368 59.03H120.188ZM121.568 56.54L121.808 56.45L121.988 56.36L122.438 56.09L122.588 55.97L122.678 55.82L122.798 55.7L123.188 55.28L123.308 55.16L123.428 54.92L123.518 54.77L124.058 53.36L124.118 53.18L124.268 52.46L124.298 52.28L124.388 51.65L124.418 51.47L124.478 51.29L124.508 51.11V50.9L124.568 50.54V50.18L124.538 50L124.448 49.7L124.358 49.55L124.148 49.34L123.998 49.25L123.758 49.16L123.578 49.1L123.008 49.01H122.828L122.408 49.04H122.228L121.868 49.1L121.688 49.16L121.478 49.25L121.298 49.34L120.788 49.64L120.638 49.76L120.488 49.91L120.368 50.06L120.008 50.54L119.918 50.69L119.198 51.95L119.138 52.13L118.958 52.7L118.928 52.88L118.868 53.12L118.838 53.3L118.778 53.48L118.748 53.66L118.778 54.71L118.808 54.89L118.868 55.07L118.898 55.25L118.958 55.49L119.018 55.67L119.198 55.97L119.618 56.42L119.738 56.51L119.978 56.66L120.128 56.72H120.248L120.428 56.75L121.388 56.57L121.568 56.54ZM143.179 52.07L143.629 52.1L143.959 52.28L144.259 52.61L144.289 53.15L143.929 54.11L143.749 54.41L143.629 54.77L142.999 55.79L142.729 56.12L142.579 56.42L142.069 57.02L141.739 57.29L141.319 57.68L140.869 58.04L140.509 58.22L139.849 58.64L138.709 59L137.569 59.21L136.609 59.3L134.479 58.97L134.089 58.85L133.699 58.67L133.429 58.43L133.009 58.22L132.169 57.41L131.989 57.08L131.749 56.78L131.539 56.39L131.449 56.03L131.299 55.64L131.179 55.31L131.029 53.51L131.119 52.58V52.16L131.299 51.05L131.989 49.58L132.169 49.28L132.409 48.98L132.589 48.65L132.829 48.35L133.639 47.57L135.049 46.88L135.739 46.67L136.189 46.61L137.719 46.7L138.079 46.79L138.439 46.91L139.399 47.48L139.639 47.78L139.909 48.02L140.059 48.35L140.179 48.74L140.329 49.1L140.359 49.49L140.149 50.78L139.849 51.23L139.129 51.47H138.769L138.439 51.38L138.109 51.14L138.019 50.63L137.989 50.06L137.899 49.67L137.719 49.34L137.389 49.1L136.819 48.95H136.249L135.949 48.98L135.559 49.13L135.289 49.37L134.929 49.61L134.719 49.91L134.479 50.18L134.059 50.84L133.939 51.23L133.849 51.53L133.729 51.92L133.579 52.7L133.639 54.26L133.819 55.01L133.969 55.37L134.419 56L134.749 56.3L135.349 56.69L135.679 56.84L136.039 56.93L136.609 56.96L137.629 56.9L137.929 56.81L138.379 56.75L139.099 56.45L140.029 55.88L141.439 54.59L141.589 54.26L141.859 53.93L142.099 53.42L142.459 52.94L142.729 52.4L143.179 52.07ZM162.88 52.04L163.39 52.1L163.72 52.31L163.96 52.61V53.24L163.57 54.32L163.06 55.16L162.94 55.55L162.61 55.97L162.37 56.42L161.77 57.14L160.78 58.13L160.36 58.37L159.55 58.79L158.86 58.94L158.17 58.97L157.69 58.91L157.24 58.73L156.88 58.52L156.28 57.86L156.04 56.96L155.86 56.51V56.06L155.77 55.58V54.14L155.92 53.15V52.7L156.01 51.29L156.13 50.57V49.88L155.92 49.49L155.56 49.22L155.14 49.13L154.48 49.37L153.76 49.7L152.74 50.66L152.44 51.08L152.2 51.53L151.66 53.84L151.48 55.67L151.51 56.6L151.63 57.05L151.66 58.16L151.45 58.73L151.06 58.94L150.67 59.03L150.22 59L149.74 58.85L149.32 58.28L149.23 57.65L149.14 56.72L149.2 54.8L149.35 53.84V53.39L149.5 52.91L149.56 52.37L149.86 51.23L149.92 50.54L149.62 50.12L149.29 49.94L148.87 49.91L147.82 50.39L147.22 50.78L146.5 51.5L145.93 52.31L145.57 53.18L145.3 53.63L145.03 54.86L144.91 56.09L145 57.59L144.94 58.28L144.67 58.88L144.22 59.06H143.29L142.81 58.91L142.51 58.31L142.39 57.65L142.51 56.72L142.57 53.39L142.66 52.94L142.81 50.09L142.93 49.58L143.05 48.2L143.2 47.51L143.62 46.97L144.1 46.85L144.61 46.82L145.15 46.97L145.39 47.51L145.48 48.23L145.27 49.7L145.36 50L145.69 49.85L145.9 49.46L146.56 48.74L147.85 47.99L148.3 47.78L149.74 47.63L150.28 47.69L150.73 47.87L151.18 48.14L151.39 48.5L151.78 48.71L152.14 48.62L153.58 47.36L154.51 46.97L154.93 46.85L155.62 46.76L156.31 46.79L156.76 46.88L157.63 47.33L157.93 47.6L158.23 47.99L158.59 48.83L158.68 49.28L158.65 50.45L158.14 53.51L158.17 53.99L158.05 54.5L158.14 55.94L158.35 56.33L158.89 56.57L159.58 56.51L160.12 56.09L160.57 55.58L161.89 53.54L162.04 53.06L162.43 52.46L162.88 52.04ZM175.156 52.19L175.486 52.1L175.876 52.07L176.266 52.22L176.566 52.49L176.596 53.15L176.356 53.87L175.546 55.55L175.246 55.82L175.006 56.18L173.656 57.53L172.816 57.95L171.706 58.07L171.136 58.01H170.626L170.086 57.95L168.766 58.73L168.316 58.91L167.656 59L165.616 59.09L164.206 58.73L163.876 58.37L163.456 58.19L162.886 57.44L162.556 56.6L162.346 55.61L162.286 54.86L162.376 53.75L162.346 53.36L162.376 52.91L162.766 51.02L162.796 50.51L163.426 48.35L163.486 47.93L163.816 47.24L164.236 46.79L164.686 46.61L165.136 46.64L165.526 46.76L165.856 47.09L165.886 47.72L165.766 48.41L165.586 48.8L165.136 50.6L164.986 50.99L164.866 51.5L164.986 51.8L165.346 51.71L165.706 51.35L166.186 51.17L166.666 50.96L167.056 50.87L168.946 50.9L170.506 51.71L170.836 52.04L171.046 52.43L171.526 53.57L171.556 54.53L171.496 55.01L171.376 55.4L171.436 55.85L171.916 56.09L172.516 55.94L173.206 55.4L173.476 55.13L173.746 54.65L174.016 54.32L174.856 52.58L175.156 52.19ZM167.056 56.96L167.416 56.9L168.196 56.6L168.406 56L168.586 55.34L169.066 54.32L169.186 53.81L169.036 53.45L168.766 53.09L168.406 52.76L168.046 52.64H166.786L166.366 52.76L165.916 53.06L165.526 53.21L165.226 53.51L164.746 54.44L164.656 55.13L164.686 55.61L164.836 55.91L165.136 56.33L165.766 56.87L166.186 57.05H166.576L167.056 56.96ZM179.984 59.27L179.504 59.21L178.754 59.06L178.364 58.91L178.064 58.76L177.644 58.61L176.714 57.95L176.414 57.65L175.724 56.72L175.634 56.33L175.364 55.97L175.004 54.47V54.11L174.884 53.51L174.974 52.91L174.914 52.49L175.184 51.38L175.214 50.96L175.394 50.63L175.514 50.24L175.694 49.91L176.024 49.16L176.234 48.86L176.804 48.23L177.404 47.72L178.064 47.3L178.394 47.15L178.694 46.97L179.474 46.73L180.914 46.64L181.424 46.67L182.084 46.82L182.654 47.03L183.344 47.45L183.644 47.72L183.974 48.2L184.214 48.74L184.454 49.52L184.394 50.48L184.244 51.26L184.064 51.83L183.884 52.16L183.614 52.46L183.404 52.76L182.804 53.33L182.144 53.75L181.034 54.14L180.704 54.2L179.504 54.23L178.724 54.11L177.944 53.81L177.644 53.87L177.494 54.17L177.554 54.53L177.644 54.89L177.854 55.28L178.094 55.55L178.244 55.88L178.544 56.12L178.814 56.42L179.144 56.6L179.504 56.75L180.224 56.93L181.574 56.9L182.144 56.78L183.254 56.39L183.884 56.03L184.814 55.25L185.534 54.29L186.644 52.46L186.944 52.07H187.334L187.664 52.19L187.994 52.4L188.204 52.7L187.994 53.75L187.814 54.08L187.694 54.44L187.514 54.83L186.914 55.85L186.644 56.15L186.464 56.51L185.114 57.92L183.704 58.67L182.624 59.03L181.874 59.18L180.524 59.3L179.984 59.27ZM178.124 51.95L178.514 52.07L179.714 52.25L180.554 52.16L180.884 52.04L181.214 51.86L181.544 51.59L181.994 50.96L182.054 50.33L182.024 49.76L181.874 49.43L181.694 49.16L180.974 48.83L180.464 48.86L179.864 48.98L179.564 49.1L178.814 49.52L178.364 50.12L178.154 50.48L177.974 50.81L177.854 51.2L177.914 51.65L178.124 51.95ZM205.916 51.98L206.336 52.1L206.756 52.31L206.996 52.61L206.966 53.24L206.636 54.26L206.396 54.65L206.126 55.07L205.946 55.46L205.496 56.21L205.226 56.51L204.986 56.93L204.746 57.26L203.816 58.22L202.646 58.79L202.016 58.94L200.846 58.91L200.456 58.82L200.036 58.61L199.676 58.34L198.926 56.72L198.776 54.47L198.566 54.02L198.206 53.78L197.726 53.84L197.246 53.78L195.956 53.87L194.996 53.84L194.576 54.05L194.366 54.56L194.276 55.46L194.336 55.91L194.216 57.29L194.276 57.65L194.156 58.31L193.916 58.91L193.526 59.03L193.076 59.12L192.626 59.09L192.146 58.91L191.876 58.37L191.756 57.32L191.816 56.87V55.37L191.876 54.92L191.846 54.53L192.146 51.32L192.116 50.87L192.176 50.45L192.146 50L192.266 49.52L192.296 48.62L192.446 47.51L192.776 47L193.196 46.88L193.676 46.85L194.126 46.88L194.546 47.03L194.756 47.51L194.696 49.04L194.636 49.43L194.576 49.91L194.546 50.63L194.456 51.17L194.696 51.62L195.146 51.77H195.596L196.076 51.68L196.946 51.77L197.396 51.68L198.296 51.71L198.806 51.5L199.106 51.05L199.076 50.57L199.166 50.12L199.286 48.8L199.586 47.69L199.916 47.06L200.336 46.88L200.816 46.79L201.296 46.91L201.626 47.15L201.836 47.93L201.416 51.77L201.236 52.67V53.15L201.176 53.63V54.56L201.116 54.92L201.146 55.82L201.296 56.39L201.896 56.54L202.496 56.57L202.826 56.27L203.186 56.09L204.296 54.62L204.446 54.2L204.926 53.33L205.076 52.88L205.916 51.98ZM209.134 59.03L208.954 58.97H208.774L208.504 58.94L208.324 58.91L208.084 58.88L207.904 58.82L207.274 58.46L207.124 58.37L206.764 58.13L206.374 57.74L206.224 57.53L206.044 57.23L205.954 57.05L205.864 56.9L205.774 56.72L205.474 55.79L205.444 55.61L205.414 55.4L205.384 55.22L205.264 53.81V53.63L205.294 53.06L205.324 52.88L205.384 52.64L205.444 52.46L205.474 52.25L205.504 52.07L205.894 50.75L205.954 50.57L206.044 50.42L206.104 50.24L206.614 49.4L206.704 49.25L206.824 49.04L206.944 48.92L207.334 48.47L207.454 48.35L208.204 47.69L208.354 47.6L209.074 47.24L209.254 47.18L210.034 46.88L210.214 46.85L211.594 46.82H211.774L211.984 46.85L212.164 46.91L212.944 47.15L213.124 47.18L213.544 47.27L213.694 47.21L213.874 47L213.994 46.88L214.264 46.67L214.414 46.61L215.044 46.64H215.224L215.404 46.67L215.584 46.76L215.644 46.82L215.764 46.97L215.914 47.3L215.974 47.48L216.034 47.84V48.02L215.944 48.65V49.04L215.854 49.58L215.764 50.18V50.36L215.734 51.38L215.704 51.56L215.674 51.8L215.644 51.98L215.674 52.52L215.644 52.7L215.614 52.94L215.584 53.12L215.614 54.11L215.584 54.29L215.554 54.5L215.524 54.68L215.614 55.25V55.64L215.644 55.82L215.764 56.03L215.854 56.18L216.004 56.33L216.154 56.45L216.454 56.51L216.634 56.54L216.964 56.48L217.144 56.45L217.444 56.27L218.164 55.55L218.284 55.4L218.464 55.1L218.644 54.89L218.734 54.74L218.824 54.5L218.914 54.35L219.094 54.14L219.184 53.99L219.484 53.42L219.544 53.24L219.604 53.03L219.694 52.88L219.904 52.49L220.354 52.13L220.504 52.07H220.684L220.864 52.1L221.014 52.16L221.164 52.25L221.374 52.37L221.464 52.49L221.554 52.64L221.584 52.82L221.524 53.21L221.494 53.39L221.284 54.02L221.194 54.2L221.074 54.41L220.984 54.59L220.924 54.74L220.834 54.89L220.504 55.43L220.234 55.88L219.904 56.39L219.814 56.54L219.724 56.72L219.634 56.87L218.974 57.59L218.854 57.71L218.614 57.83L218.344 58.1L218.194 58.22L217.894 58.43L217.714 58.52L217.474 58.67L217.294 58.73L216.514 58.91L216.334 58.94L215.914 58.97H215.734L215.494 58.91L215.314 58.88L215.134 58.79L214.834 58.61L214.714 58.46L214.564 58.31L214.474 58.19L214.324 57.95L214.234 57.83L214.084 57.62L213.904 57.32L213.844 57.14L213.814 56.87L213.754 56.69L213.694 56.63L213.574 56.57L213.424 56.63L213.274 56.72L212.434 57.8L212.314 57.92L211.804 58.28L211.684 58.37L211.534 58.46L211.354 58.52L210.424 58.91L210.244 58.94L209.314 59.03H209.134ZM210.514 56.54L210.754 56.45L210.934 56.36L211.384 56.09L211.534 55.97L211.624 55.82L211.744 55.7L212.134 55.28L212.254 55.16L212.374 54.92L212.464 54.77L213.004 53.36L213.064 53.18L213.214 52.46L213.244 52.28L213.334 51.65L213.364 51.47L213.424 51.29L213.454 51.11V50.9L213.514 50.54V50.18L213.484 50L213.394 49.7L213.304 49.55L213.094 49.34L212.944 49.25L212.704 49.16L212.524 49.1L211.954 49.01H211.774L211.354 49.04H211.174L210.814 49.1L210.634 49.16L210.424 49.25L210.244 49.34L209.734 49.64L209.584 49.76L209.434 49.91L209.314 50.06L208.954 50.54L208.864 50.69L208.144 51.95L208.084 52.13L207.904 52.7L207.874 52.88L207.814 53.12L207.784 53.3L207.724 53.48L207.694 53.66L207.724 54.71L207.754 54.89L207.814 55.07L207.844 55.25L207.904 55.49L207.964 55.67L208.144 55.97L208.564 56.42L208.684 56.51L208.924 56.66L209.074 56.72H209.194L209.374 56.75L210.334 56.57L210.514 56.54ZM240.314 52.01L241.124 52.28L241.304 52.58L241.364 53.24L240.974 54.26L240.494 55.07L240.314 55.55L240.044 55.91L239.804 56.33L239.504 56.6L239.264 56.93L237.944 58.31L237.104 58.79L236.654 58.91H235.514L234.854 58.76L234.464 58.61L234.134 58.22L233.894 57.8L233.564 56.96L233.414 56.66L233.054 56.87L231.764 58.1L231.314 58.4L230.894 58.52L230.504 58.76L230.144 58.94L229.604 59L228.284 58.94L227.924 58.82L227.594 58.58L227.324 58.19L227.054 57.89L226.904 57.5L226.664 57.2L226.304 57.32L225.974 57.68L225.644 58.01L225.374 58.31L224.984 58.55L223.334 59L222.914 59.03L222.044 58.91L221.624 58.79L221.114 58.52L220.784 58.19L220.124 57.23L220.004 56.84L219.824 56.45L219.794 55.97L219.734 55.49L219.764 54.2L219.884 53.75V53.24L219.974 52.76L220.094 52.37V51.83L220.244 51.35L220.454 49.28L220.334 48.65L219.734 48.56L219.104 48.38L218.894 47.96L219.104 47.36L219.554 46.91L219.974 46.67L220.304 46.61L221.204 46.55L221.654 46.64L222.044 46.85L222.404 47.03L222.764 47.42L222.854 47.87L222.944 48.53L222.974 49.7L222.674 50.93V51.38L222.494 51.92L222.524 52.25L222.284 53.15L222.164 54.38L222.284 55.7L222.374 56.12L222.644 56.45L223.004 56.69L223.394 56.81L224.054 56.66L224.624 56.42L225.374 55.88L225.674 55.52L226.304 54.38L226.694 52.13L226.874 51.71L226.934 51.32L226.994 49.91L226.874 47.45L227.024 46.88L227.354 46.76L227.864 46.64L228.284 46.67L228.764 46.76L229.034 47.33L229.154 48.05L229.184 48.47L229.244 48.83L229.214 49.31L229.244 49.73L229.214 50.18L229.244 50.63L229.154 51.02V51.56L229.034 52.79L228.884 53.12V53.66L228.644 54.74L228.554 55.97L228.824 56.42L229.454 56.57L230.084 56.45L230.384 56.27L230.774 56.12L231.734 55.16L231.944 54.8L232.214 54.47L232.874 53.24L233.144 52.46L233.354 51.38L233.414 50.6L233.534 50.21V49.76L233.654 49.25L233.624 48.8L233.894 47.69L234.254 47.18L234.644 47L235.124 46.97L235.994 47.27L236.114 47.96L236.054 48.56L236.084 48.98L235.964 49.55L235.934 50L235.844 50.36L235.484 53.57L235.514 54.02L235.484 55.01L235.514 55.85L235.664 56.33L236.204 56.57L236.714 56.51L237.104 56.42L237.434 56.09L237.794 55.79L238.364 55.1L238.544 54.65L239.294 53.45L239.444 53.03L239.804 52.43L240.314 52.01ZM244.818 59.27L244.338 59.21L243.588 59.06L243.198 58.91L242.898 58.76L242.478 58.61L241.548 57.95L241.248 57.65L240.558 56.72L240.468 56.33L240.198 55.97L239.838 54.47V54.11L239.718 53.51L239.808 52.91L239.748 52.49L240.018 51.38L240.048 50.96L240.228 50.63L240.348 50.24L240.528 49.91L240.858 49.16L241.068 48.86L241.638 48.23L242.238 47.72L242.898 47.3L243.228 47.15L243.528 46.97L244.308 46.73L245.748 46.64L246.258 46.67L246.918 46.82L247.488 47.03L248.178 47.45L248.478 47.72L248.808 48.2L249.048 48.74L249.288 49.52L249.228 50.48L249.078 51.26L248.898 51.83L248.718 52.16L248.448 52.46L248.238 52.76L247.638 53.33L246.978 53.75L245.868 54.14L245.538 54.2L244.338 54.23L243.558 54.11L242.778 53.81L242.478 53.87L242.328 54.17L242.388 54.53L242.478 54.89L242.688 55.28L242.928 55.55L243.078 55.88L243.378 56.12L243.648 56.42L243.978 56.6L244.338 56.75L245.058 56.93L246.408 56.9L246.978 56.78L248.088 56.39L248.718 56.03L249.648 55.25L250.368 54.29L251.478 52.46L251.778 52.07H252.168L252.498 52.19L252.828 52.4L253.038 52.7L252.828 53.75L252.648 54.08L252.528 54.44L252.348 54.83L251.748 55.85L251.478 56.15L251.298 56.51L249.948 57.92L248.538 58.67L247.458 59.03L246.708 59.18L245.358 59.3L244.818 59.27ZM242.958 51.95L243.348 52.07L244.548 52.25L245.388 52.16L245.718 52.04L246.048 51.86L246.378 51.59L246.828 50.96L246.888 50.33L246.858 49.76L246.708 49.43L246.528 49.16L245.808 48.83L245.298 48.86L244.698 48.98L244.398 49.1L243.648 49.52L243.198 50.12L242.988 50.48L242.808 50.81L242.688 51.2L242.748 51.65L242.958 51.95ZM270.999 51.98L271.479 52.01L271.839 52.19L272.109 52.55V53.18L271.959 53.81L271.779 54.23L271.539 54.56L271.149 55.43L270.879 55.76L270.459 56.51L270.129 56.93L269.799 57.2L269.529 57.59L268.509 58.43L268.059 58.58L267.699 58.79L266.619 58.97L265.989 58.85L265.659 58.7L265.269 58.43L264.909 58.1L264.669 57.77L264.159 56.66L264.039 56.12L264.009 55.76L263.889 55.31L263.829 54.41L263.709 54.23L263.589 54.38L263.199 55.22L262.929 55.64L262.749 56.09L262.359 56.36L262.089 56.72L261.309 57.23L260.619 57.26L259.959 57.11L259.269 56.75L259.029 56.39L258.819 56.03L258.519 55.16L258.309 54.8L258.219 54.38L258.069 54.11L257.769 55.22L257.589 55.58L257.499 56.03L256.599 57.65L256.059 58.31L255.519 58.79L254.949 59.06L254.289 59.12L253.629 59.09L253.269 59L252.879 58.79L252.519 58.55L251.919 57.95L251.679 57.41L251.319 56.24L251.199 55.31L251.229 54.38L251.469 52.7L251.829 52.13L252.219 51.98L252.699 52.13L252.999 52.46L253.149 53.15L253.059 53.75V54.17L253.029 54.59L253.119 55.04V55.49L253.299 56.36L253.569 56.69L254.079 56.84L254.619 56.69L254.859 56.48L255.069 56.3L255.339 55.88L255.669 55.16L255.909 54.77L256.029 54.32L256.209 53.87L256.299 53.36L256.599 52.55L256.989 51.14L257.139 50.15L257.409 49.25L257.619 47.93L257.859 47.27L258.159 46.73L258.579 46.61L258.999 46.58L259.389 46.64L259.719 46.94L259.899 47.51L259.929 48.23L259.839 48.68L259.869 49.13L259.749 50.12L259.809 50.48L259.749 51.38L259.839 51.89V52.43L259.959 53.69L260.259 54.53L260.709 54.89L261.189 54.8L261.489 54.53L261.729 54.26L261.939 53.93L262.119 53.42L262.509 52.7L262.689 52.25L262.869 51.29L263.019 50.75L263.169 50.42L263.259 49.91L263.409 49.46L263.739 47.9L264.069 47.33L264.459 47.09L264.909 47.03L265.389 47.27L265.689 47.45L265.899 48.08L265.929 49.64L265.869 50.12V50.6L265.959 51.05V51.5L265.869 51.95L265.839 52.43L265.899 52.82L265.929 53.33L265.959 53.75L265.929 54.17L265.959 54.59L266.079 55.13L266.109 55.55L266.229 55.94L266.409 56.36L267.039 56.54L267.579 56.6L267.939 56.3L268.299 56.06L268.659 55.76L268.899 55.43L269.619 54.29L269.829 53.84L270.099 53.48L270.609 52.37L270.999 51.98ZM283.71 52.07L284.16 52.16L284.52 52.52V53.21L284.34 53.93L284.16 54.35L283.89 54.77L283.71 55.22L283.17 56L282.75 56.81L282.45 57.2L282.21 57.59L279.84 60.26L279.6 60.92L279.54 61.88L279.45 62.39L279.18 63.32L278.94 63.8L278.7 64.22L278.49 64.67L277.5 65.78L277.08 65.99L276.72 66.23L276.24 66.41L275.76 66.53L275.1 66.56L274.38 66.53L273.96 66.38L273.45 66.17L273.15 65.87L272.55 65.18L272.4 64.73L272.34 64.28L272.37 63.8V63.41L272.94 62.15L273.21 61.79L274.32 60.86L275.58 60.11L276 59.9L276.81 59.42L277.23 58.94L277.53 58.28L277.65 57.26L277.56 56.96L277.26 57.08L276.21 58.1L275.82 58.37L274.89 58.79L274.38 58.97L273.72 59.03L273 59L272.49 58.88L272.04 58.73L271.68 58.52L271.35 58.28L270.69 57.5L270.36 56.66L270.18 55.7V54.95L270.33 53.27L270.48 52.76L270.87 50.39L270.9 49.19L270.78 48.65L270.09 48.59L269.55 48.41L269.34 47.96L269.61 47.39L270.06 46.88L270.45 46.7L270.96 46.58L271.41 46.55L272.28 46.76L272.76 47.03L273.06 47.36L273.33 47.75L273.45 48.47L273.42 49.13L273.27 49.85L273.21 50.54L273.09 51.02L273 52.01L272.88 52.49L272.79 53V53.45L272.7 53.99L272.76 55.85L272.97 56.27L273.24 56.6L273.93 56.69L274.68 56.66L275.52 56.27L275.85 55.97L276.24 55.67L276.78 54.89L277.47 53.54L277.92 51.23L277.98 50.3L278.46 47.3L278.79 46.79L279.24 46.7L279.72 46.73L280.11 46.85L280.53 47.09L280.62 47.69L280.68 48.35L280.05 55.19L279.93 55.7L279.87 56.69L280.05 57.05L280.35 56.96L281.34 55.43L281.67 55.04L282.03 54.26L282.27 53.84L282.72 52.97L283.14 52.43L283.71 52.07ZM275.79 64.28L276.18 64.01L276.72 63.29L277.11 62.39L277.23 61.94L277.14 61.55L276.81 61.58L276.33 61.82L275.37 62.54L274.92 63.11L274.74 63.59L274.68 64.04L275.19 64.34L275.79 64.28ZM127.547 88.98L128.027 89.01L128.387 89.19L128.657 89.55V90.18L128.507 90.81L128.327 91.23L128.087 91.56L127.697 92.43L127.427 92.76L127.007 93.51L126.677 93.93L126.347 94.2L126.077 94.59L125.057 95.43L124.607 95.58L124.247 95.79L123.167 95.97L122.537 95.85L122.207 95.7L121.817 95.43L121.457 95.1L121.217 94.77L120.707 93.66L120.587 93.12L120.557 92.76L120.437 92.31L120.377 91.41L120.257 91.23L120.137 91.38L119.747 92.22L119.477 92.64L119.297 93.09L118.907 93.36L118.637 93.72L117.857 94.23L117.167 94.26L116.507 94.11L115.817 93.75L115.577 93.39L115.367 93.03L115.067 92.16L114.857 91.8L114.767 91.38L114.617 91.11L114.317 92.22L114.137 92.58L114.047 93.03L113.147 94.65L112.607 95.31L112.067 95.79L111.497 96.06L110.837 96.12L110.177 96.09L109.817 96L109.427 95.79L109.067 95.55L108.467 94.95L108.227 94.41L107.867 93.24L107.747 92.31L107.777 91.38L108.017 89.7L108.377 89.13L108.767 88.98L109.247 89.13L109.547 89.46L109.697 90.15L109.607 90.75V91.17L109.577 91.59L109.667 92.04V92.49L109.847 93.36L110.117 93.69L110.627 93.84L111.167 93.69L111.407 93.48L111.617 93.3L111.887 92.88L112.217 92.16L112.457 91.77L112.577 91.32L112.757 90.87L112.847 90.36L113.147 89.55L113.537 88.14L113.687 87.15L113.957 86.25L114.167 84.93L114.407 84.27L114.707 83.73L115.127 83.61L115.547 83.58L115.937 83.64L116.267 83.94L116.447 84.51L116.477 85.23L116.387 85.68L116.417 86.13L116.297 87.12L116.357 87.48L116.297 88.38L116.387 88.89V89.43L116.507 90.69L116.807 91.53L117.257 91.89L117.737 91.8L118.037 91.53L118.277 91.26L118.487 90.93L118.667 90.42L119.057 89.7L119.237 89.25L119.417 88.29L119.567 87.75L119.717 87.42L119.807 86.91L119.957 86.46L120.287 84.9L120.617 84.33L121.007 84.09L121.457 84.03L121.937 84.27L122.237 84.45L122.447 85.08L122.477 86.64L122.417 87.12V87.6L122.507 88.05V88.5L122.417 88.95L122.387 89.43L122.447 89.82L122.477 90.33L122.507 90.75L122.477 91.17L122.507 91.59L122.627 92.13L122.657 92.55L122.777 92.94L122.957 93.36L123.587 93.54L124.127 93.6L124.487 93.3L124.847 93.06L125.207 92.76L125.447 92.43L126.167 91.29L126.377 90.84L126.647 90.48L127.157 89.37L127.547 88.98ZM129.578 96L129.098 95.88L128.708 95.73L127.898 95.19L127.628 94.83L127.388 94.44L126.908 93.12L126.848 92.67L126.968 91.26L126.938 90.78L127.028 89.85L127.178 89.4V88.92L127.268 88.44L127.448 88.02L127.568 87.51L127.628 86.34L127.598 85.74L126.908 85.62L126.308 85.44L126.068 85.02L126.308 84.36L126.698 83.88L127.178 83.67L127.628 83.58L128.108 83.55L128.648 83.61L129.068 83.82L129.458 84.06L129.788 84.33L129.998 84.75L130.088 85.5L129.908 87.69L129.638 89.13L129.518 89.58V90.06L129.398 90.57L129.338 91.05L129.368 91.5V92.25L129.488 92.91L129.638 93.33L129.968 93.6L130.598 93.69L131.288 93.66L131.738 93.48L132.518 92.97L133.148 92.34L133.388 91.92L133.598 91.5L133.868 91.05L134.438 89.16L134.528 88.44V87.75L134.828 85.86L134.798 85.35L135.098 84.24L135.518 83.76L135.998 83.73L136.478 83.79L136.898 84.03L137.198 84.6L137.228 85.32L137.168 85.8L137.048 86.28L137.078 86.7L137.018 87.18L136.898 87.66L136.688 90.45L136.748 90.96L136.658 91.41V91.86L136.718 92.34L136.838 92.82L136.988 93.24L137.498 93.54L138.128 93.48L138.548 93.27L138.878 92.97L139.538 92.19L139.748 91.77L140.078 91.38L140.318 90.96L140.498 90.51L141.098 89.49L141.548 89.07L141.998 89.1L142.358 89.28L142.658 89.61L142.598 90.24L141.998 91.77L141.758 92.19L141.458 92.61L141.278 93.06L140.708 93.87L139.718 94.89L138.488 95.73L138.068 95.88L137.558 95.97L136.808 95.94L136.208 95.79L135.758 95.52L135.428 95.13L135.038 94.23L134.918 93.75L134.648 93.45L134.378 93.57L133.838 94.35L132.668 95.28L132.308 95.52L131.888 95.7L131.438 95.85L129.578 96ZM154.623 89.07L155.043 89.1L155.463 89.31L155.763 89.64L155.733 90.3L155.553 90.9L154.593 92.61L154.023 93.42L153.393 94.14L152.313 94.98L151.863 95.19L151.413 95.34L150.663 95.46L149.733 95.43L149.073 95.28H148.503L147.843 95.49L147.033 95.91L146.223 96.21L145.323 96.42L143.883 96.39L143.373 96.54L143.073 97.02L142.833 99.39L142.743 99.84L142.713 100.32L142.503 102.27L142.323 102.9L141.873 103.44L141.363 103.5L140.853 103.47L140.373 103.32L140.133 102.75L140.313 100.68L140.463 100.23L140.523 99.78L140.493 99.3L140.523 98.82L140.643 98.37L140.673 97.92L140.763 97.38L140.823 96.45L140.883 95.97V95.46L141.033 94.53V94.02L141.093 93.54L141.063 93.06L141.123 92.61V92.1L141.183 91.14L141.093 87.78L141.003 87.3V86.31L140.823 85.35L140.793 84.63L141.003 84.06L141.393 83.82L141.873 83.67L142.293 83.7L142.683 83.82L143.073 84.39L143.193 85.65L143.463 86.01L143.733 85.89L145.203 84.57L146.493 83.94L147.933 83.73L148.893 83.82L149.733 84.15L150.123 84.42L150.813 85.08L151.353 85.89L151.533 86.31L151.743 87.48L151.683 89.16L151.473 90.12L151.293 90.57L151.203 90.99L150.993 91.5L150.873 91.95L150.573 92.34L150.393 92.76L150.303 93.21L150.873 93.39L151.503 93.15L151.893 92.91L152.283 92.61L152.523 92.22L152.883 91.86L153.093 91.44L153.393 90.96L153.813 90.09L154.203 89.49L154.623 89.07ZM144.063 94.14L144.543 94.2L145.113 94.17L146.013 93.96L146.433 93.75L146.853 93.24L147.423 92.1L147.783 91.8L148.353 91.38L148.743 90.87L148.953 90.39L149.193 89.43L149.253 87.72L149.133 87L148.953 86.61L148.653 86.25L148.203 86.01L147.843 85.92L146.883 86.07L145.653 86.79L144.963 87.51L144.153 88.77L143.703 89.67L143.553 90.33L143.493 92.4L143.373 93.3L143.643 93.81L144.063 94.14ZM167.357 89.07L167.807 89.16L168.167 89.52V90.21L167.987 90.93L167.807 91.35L167.537 91.77L167.357 92.22L166.817 93L166.397 93.81L166.097 94.2L165.857 94.59L163.487 97.26L163.247 97.92L163.187 98.88L163.097 99.39L162.827 100.32L162.587 100.8L162.347 101.22L162.137 101.67L161.147 102.78L160.727 102.99L160.367 103.23L159.887 103.41L159.407 103.53L158.747 103.56L158.027 103.53L157.607 103.38L157.097 103.17L156.797 102.87L156.197 102.18L156.047 101.73L155.987 101.28L156.017 100.8V100.41L156.587 99.15L156.857 98.79L157.967 97.86L159.227 97.11L159.647 96.9L160.457 96.42L160.877 95.94L161.177 95.28L161.297 94.26L161.207 93.96L160.907 94.08L159.857 95.1L159.467 95.37L158.537 95.79L158.027 95.97L157.367 96.03L156.647 96L156.137 95.88L155.687 95.73L155.327 95.52L154.997 95.28L154.337 94.5L154.007 93.66L153.827 92.7V91.95L153.977 90.27L154.127 89.76L154.517 87.39L154.547 86.19L154.427 85.65L153.737 85.59L153.197 85.41L152.987 84.96L153.257 84.39L153.707 83.88L154.097 83.7L154.607 83.58L155.057 83.55L155.927 83.76L156.407 84.03L156.707 84.36L156.977 84.75L157.097 85.47L157.067 86.13L156.917 86.85L156.857 87.54L156.737 88.02L156.647 89.01L156.527 89.49L156.437 90V90.45L156.347 90.99L156.407 92.85L156.617 93.27L156.887 93.6L157.577 93.69L158.327 93.66L159.167 93.27L159.497 92.97L159.887 92.67L160.427 91.89L161.117 90.54L161.567 88.23L161.627 87.3L162.107 84.3L162.437 83.79L162.887 83.7L163.367 83.73L163.757 83.85L164.177 84.09L164.267 84.69L164.327 85.35L163.697 92.19L163.577 92.7L163.517 93.69L163.697 94.05L163.997 93.96L164.987 92.43L165.317 92.04L165.677 91.26L165.917 90.84L166.367 89.97L166.787 89.43L167.357 89.07ZM159.437 101.28L159.827 101.01L160.367 100.29L160.757 99.39L160.877 98.94L160.787 98.55L160.457 98.58L159.977 98.82L159.017 99.54L158.567 100.11L158.387 100.59L158.327 101.04L158.837 101.34L159.437 101.28ZM172.659 90.69L172.299 90.9L171.789 90.93L171.399 90.84L171.039 90.6L170.769 90.03L170.799 89.31L170.769 88.83L170.829 88.32V87.84L170.799 87.36L170.829 86.88V84.99L170.889 84.51L170.859 83.52L170.919 83.04L170.829 82.14L170.919 81.15L170.829 80.19L170.799 79.2L170.859 78.72L170.799 78.24V77.76L170.679 76.83L170.649 75.6L170.919 74.97L171.309 74.7L171.699 74.58H172.209L172.689 74.73L172.989 75.24L173.259 75.84L173.289 76.2V76.62L173.439 77.52L173.379 79.89L173.439 80.43L173.409 80.85V81.36L173.349 81.87L173.319 84.36L173.199 85.38L173.259 85.83L173.199 86.37V86.85L173.109 87.36L173.079 88.41L173.019 88.89L173.049 89.4L172.869 90.09L172.659 90.69ZM171.189 96.09L170.769 95.79L170.439 95.4L170.379 94.65L170.469 93.93L170.739 93.54L171.159 93.24L171.879 93.12L172.569 93.21L172.989 93.54L173.289 93.96L173.379 94.68L173.319 95.37L172.989 95.79L172.509 96.09L171.879 96.18L171.189 96.09Z" fill="#2E2124"/>
</svg>
