<svg width="40" height="41" viewBox="0 0 40 41" fill="none" xmlns="http://www.w3.org/2000/svg">
<path d="M39.4371 31.3585H0.562934C0.237008 31.3585 0 31.086 0 30.7832V3.4404C0 3.10732 0.266638 2.86511 0.562934 2.86511H39.4371C39.763 2.86511 40 3.1376 40 3.4404V30.7832C40 31.1163 39.763 31.3585 39.4371 31.3585ZM1.12587 30.2079H38.8445V4.046H1.12587V30.2079Z" fill="black"/>
<path d="M23.6735 4.04564H16.3551C16.0291 4.04564 15.792 3.77315 15.792 3.47035V1.29013C15.792 0.957054 16.0588 0.714844 16.3551 0.714844H23.6735C23.9994 0.714844 24.2364 0.987334 24.2364 1.29013V3.47035C24.2661 3.77315 23.9994 4.04564 23.6735 4.04564ZM16.918 2.86475H23.1106V1.8655H16.918V2.86475Z" fill="black"/>
<path d="M13.4227 40.7132H9.24503C9.06725 40.7132 8.88945 40.6224 8.77093 40.471C8.65241 40.3196 8.62269 40.1379 8.68195 39.9562L11.6449 30.63C11.7338 30.3877 11.9413 30.2363 12.1783 30.2363H15.2005C15.3782 30.2363 15.5264 30.3272 15.6449 30.4483C15.7634 30.5694 15.7932 30.7511 15.7635 30.9328L13.9561 40.259C13.9561 40.5013 13.719 40.7132 13.4227 40.7132ZM10.0449 39.5323H12.9487L14.519 31.387H12.6228L10.0449 39.5323Z" fill="black"/>
<path d="M30.6673 40.7142H26.4895C26.2228 40.7142 25.9858 40.5022 25.9265 40.2297L24.1191 30.9035C24.0895 30.7218 24.1191 30.5402 24.2376 30.4191C24.3561 30.2979 24.5042 30.207 24.682 30.207H27.7043C27.9413 30.207 28.1783 30.3584 28.2376 30.6007L31.2005 39.9269C31.2598 40.1086 31.2302 40.2903 31.1117 40.4417C31.0228 40.6234 30.845 40.7142 30.6673 40.7142ZM26.9636 39.5333H29.8672L27.2895 31.388H25.3933L26.9636 39.5333Z" fill="black"/>
<path d="M13.8658 27.1804H11.5844C11.2585 27.1804 11.0215 26.9079 11.0215 26.6051V19.8526C11.0215 19.5196 11.2881 19.2773 11.5844 19.2773H13.8658C14.1917 19.2773 14.4289 19.5498 14.4289 19.8526V26.6051C14.4585 26.9079 14.1917 27.1804 13.8658 27.1804ZM12.177 25.9995H13.3029V20.3977H12.177V25.9995Z" fill="#DCC38B"/>
<path d="M18.5183 27.1789H16.2368C15.9108 27.1789 15.6738 26.9064 15.6738 26.6036V17.4288C15.6738 17.0957 15.9405 16.8535 16.2368 16.8535H18.5183C18.8442 16.8535 19.0812 17.126 19.0812 17.4288V26.6036C19.0812 26.9064 18.8442 27.1789 18.5183 27.1789ZM16.7998 25.998H17.9257V18.0042H16.7998V25.998Z" fill="#DCC38B"/>
<path d="M23.1404 27.1804H20.8588C20.5329 27.1804 20.2959 26.9079 20.2959 26.6051V15.341C20.2959 15.0079 20.5625 14.7656 20.8588 14.7656H23.1404C23.4663 14.7656 23.7033 15.0382 23.7033 15.341V26.6051C23.7329 26.9079 23.4663 27.1804 23.1404 27.1804ZM21.4514 25.9995H22.5774V15.9163H21.4514V25.9995Z" fill="#DCC38B"/>
<path d="M27.7916 27.1807H25.5102C25.1843 27.1807 24.9473 26.9082 24.9473 26.6054V13.6456C24.9473 13.3125 25.2139 13.0703 25.5102 13.0703H27.7916C28.1175 13.0703 28.3547 13.3428 28.3547 13.6456V26.6054C28.3547 26.9082 28.1175 27.1807 27.7916 27.1807ZM26.0731 25.9998H27.199V14.1907H26.0731V25.9998Z" fill="#DCC38B"/>
<path d="M11.5853 16.248C11.289 16.248 11.052 16.0361 11.0223 15.7333C10.9927 15.4002 11.2 15.1276 11.526 15.0974C18.0741 14.3404 22.9037 12.8869 26.7852 8.16328C26.9926 7.92104 27.3482 7.8907 27.5853 8.10266C27.8223 8.31462 27.8519 8.67803 27.6444 8.92027C23.5259 13.977 18.4593 15.491 11.6444 16.2782C11.6444 16.248 11.6149 16.248 11.5853 16.248Z" fill="#DCC38B"/>
<path d="M27.9113 10.8582C27.5854 10.8582 27.3482 10.5857 27.3482 10.2829V8.31472H25.4223C25.0964 8.31472 24.8594 8.04215 24.8594 7.73935C24.8594 7.40627 25.126 7.16406 25.4223 7.16406H27.9113C28.2372 7.16406 28.4742 7.43655 28.4742 7.73935V10.2829C28.4742 10.5857 28.2076 10.8582 27.9113 10.8582Z" fill="#DCC38B"/>
</svg>
