<svg width="25" height="20" viewBox="0 0 25 20" fill="none" xmlns="http://www.w3.org/2000/svg">
<path fill-rule="evenodd" clip-rule="evenodd" d="M2.79472 5.62501C2.38821 5.2841 2.33739 4.6591 2.64227 4.20456C2.94715 3.75001 3.50609 3.69317 3.91259 4.03408L12.5 11.8182L21.0874 4.03408C21.4939 3.69317 22.0529 3.75001 22.3577 4.20456C22.6626 4.6591 22.6118 5.2841 22.2053 5.62501L13.1098 13.9205C12.8049 14.2045 12.2968 14.2614 11.9411 13.9205L2.79472 5.62501ZM1.32113 0H23.6789C24.3902 0 25 0.681804 25 1.47726V18.5227C25 19.3182 24.3902 20 23.6789 20H1.32113C0.609744 20 0 19.3182 0 18.5227V1.47726C0.050813 0.624986 0.609744 0 1.32113 0Z" fill="white"/>
</svg>
