<svg width="119" height="50" viewBox="0 0 119 50" fill="none" xmlns="http://www.w3.org/2000/svg">
<path d="M16.9391 15.85L17.7391 16.1L18.3891 16.6L19.1391 16.95L19.7891 17.35L20.8891 18.3L21.3891 19L21.8891 19.8L22.3391 20.4L22.6891 21.1L23.4391 23.4L23.6391 26.1L23.5891 27.4L23.3391 28.95L23.0391 29.75L22.8891 30.55L22.6391 31.4L22.1391 31.95L21.2891 33.35L20.6391 33.85L20.1391 34.6L18.0891 36.05L17.3891 36.2L15.8891 36.9L14.3391 37.3L10.1891 37.4L9.38906 37.3L6.28906 36.5L3.58906 34.55L2.03906 32.75L1.63906 32.15L0.889063 30.6L0.639063 29.4L0.789063 28.35L1.23906 27.7L1.98906 27.3L2.68906 27.15L3.53906 27.35L4.23906 28.4L4.63906 29.45L4.98906 30.05L6.03906 31.2L7.83906 32.85L10.0891 33.45L13.2391 33.6L14.0891 33.35L14.7891 33.3L15.4891 32.85L16.2891 32.6L16.8891 32.05L17.5391 31.7L18.0891 31.05L18.5891 30.35L18.8891 29.75L19.3391 28.35L19.5391 27.45L19.6391 24.9L19.2891 23.45L18.9391 22.55L18.1391 21.25L16.2391 19.6L13.8891 18.75H13.1391L11.9391 19L9.83906 18.75L9.33906 18.2L8.93906 17.45L9.03906 16.6L9.43906 16L10.1891 15.5L11.2891 14.9L12.1391 14.3L12.7891 13.7L13.2391 13.05L14.2391 11.9L14.5891 11.1L14.9391 10.55L15.0891 9.65V7.55L14.8891 6.45L13.6891 5.4L13.0391 4.9L12.3391 4.7L11.4891 4.8L10.7391 4.75L9.83906 4.9L9.23906 5.25L8.58906 5.85L7.58906 7L7.08906 8.2L6.43906 9.15L5.63906 9.5L4.83906 9.25L4.13906 8.75L3.98906 7.8L4.03906 6.65L4.33906 5.8L4.68906 5.1L5.53906 3.75L6.18906 3.2L6.73906 2.6L7.33906 2.3L8.73906 1.4L9.53906 1.15L11.1391 1.05L11.8891 0.849998L13.5391 0.949999L14.3391 1.2L15.0391 1.5L15.7391 1.7L16.3891 2.25L17.0891 2.55L18.4891 4.45L18.8391 5.25L18.9891 5.9L19.1391 7.15L19.1891 9.25L19.0391 10.05L17.5391 13.7L16.5391 14.8L16.4391 15.55L16.9391 15.85ZM34.2297 37.05L33.9297 36.95H33.6297L33.1797 36.9L32.8797 36.85L32.4797 36.8L32.1797 36.7L31.1297 36.1L30.8797 35.95L30.2797 35.55L29.6297 34.9L29.3797 34.55L29.0797 34.05L28.9297 33.75L28.7797 33.5L28.6297 33.2L28.1297 31.65L28.0797 31.35L28.0297 31L27.9797 30.7L27.7797 28.35V28.05L27.8297 27.1L27.8797 26.8L27.9797 26.4L28.0797 26.1L28.1297 25.75L28.1797 25.45L28.8297 23.25L28.9297 22.95L29.0797 22.7L29.1797 22.4L30.0297 21L30.1797 20.75L30.3797 20.4L30.5797 20.2L31.2297 19.45L31.4297 19.25L32.6797 18.15L32.9297 18L34.1297 17.4L34.4297 17.3L35.7297 16.8L36.0297 16.75L38.3297 16.7H38.6297L38.9797 16.75L39.2797 16.85L40.5797 17.25L40.8797 17.3L41.5797 17.45L41.8297 17.35L42.1297 17L42.3297 16.8L42.7797 16.45L43.0297 16.35L44.0797 16.4H44.3797L44.6797 16.45L44.9797 16.6L45.0797 16.7L45.2797 16.95L45.5297 17.5L45.6297 17.8L45.7297 18.4V18.7L45.5797 19.75V20.4L45.4297 21.3L45.2797 22.3V22.6L45.2297 24.3L45.1797 24.6L45.1297 25L45.0797 25.3L45.1297 26.2L45.0797 26.5L45.0297 26.9L44.9797 27.2L45.0297 28.85L44.9797 29.15L44.9297 29.5L44.8797 29.8L45.0297 30.75V31.4L45.0797 31.7L45.2797 32.05L45.4297 32.3L45.6797 32.55L45.9297 32.75L46.4297 32.85L46.7297 32.9L47.2797 32.8L47.5797 32.75L48.0797 32.45L49.2797 31.25L49.4797 31L49.7797 30.5L50.0797 30.15L50.2297 29.9L50.3797 29.5L50.5297 29.25L50.8297 28.9L50.9797 28.65L51.4797 27.7L51.5797 27.4L51.6797 27.05L51.8297 26.8L52.1797 26.15L52.9297 25.55L53.1797 25.45H53.4797L53.7797 25.5L54.0297 25.6L54.2797 25.75L54.6297 25.95L54.7797 26.15L54.9297 26.4L54.9797 26.7L54.8797 27.35L54.8297 27.65L54.4797 28.7L54.3297 29L54.1297 29.35L53.9797 29.65L53.8797 29.9L53.7297 30.15L53.1797 31.05L52.7297 31.8L52.1797 32.65L52.0297 32.9L51.8797 33.2L51.7297 33.45L50.6297 34.65L50.4297 34.85L50.0297 35.05L49.5797 35.5L49.3297 35.7L48.8297 36.05L48.5297 36.2L48.1297 36.45L47.8297 36.55L46.5297 36.85L46.2297 36.9L45.5297 36.95H45.2297L44.8297 36.85L44.5297 36.8L44.2297 36.65L43.7297 36.35L43.5297 36.1L43.2797 35.85L43.1297 35.65L42.8797 35.25L42.7297 35.05L42.4797 34.7L42.1797 34.2L42.0797 33.9L42.0297 33.45L41.9297 33.15L41.8297 33.05L41.6297 32.95L41.3797 33.05L41.1297 33.2L39.7297 35L39.5297 35.2L38.6797 35.8L38.4797 35.95L38.2297 36.1L37.9297 36.2L36.3797 36.85L36.0797 36.9L34.5297 37.05H34.2297ZM36.5297 32.9L36.9297 32.75L37.2297 32.6L37.9797 32.15L38.2297 31.95L38.3797 31.7L38.5797 31.5L39.2297 30.8L39.4297 30.6L39.6297 30.2L39.7797 29.95L40.6797 27.6L40.7797 27.3L41.0297 26.1L41.0797 25.8L41.2297 24.75L41.2797 24.45L41.3797 24.15L41.4297 23.85V23.5L41.5297 22.9V22.3L41.4797 22L41.3297 21.5L41.1797 21.25L40.8297 20.9L40.5797 20.75L40.1797 20.6L39.8797 20.5L38.9297 20.35H38.6297L37.9297 20.4H37.6297L37.0297 20.5L36.7297 20.6L36.3797 20.75L36.0797 20.9L35.2297 21.4L34.9797 21.6L34.7297 21.85L34.5297 22.1L33.9297 22.9L33.7797 23.15L32.5797 25.25L32.4797 25.55L32.1797 26.5L32.1297 26.8L32.0297 27.2L31.9797 27.5L31.8797 27.8L31.8297 28.1L31.8797 29.85L31.9297 30.15L32.0297 30.45L32.0797 30.75L32.1797 31.15L32.2797 31.45L32.5797 31.95L33.2797 32.7L33.4797 32.85L33.8797 33.1L34.1297 33.2H34.3297L34.6297 33.25L36.2297 32.95L36.5297 32.9ZM65.5879 37L64.2379 36.65L61.9379 34.8L60.7879 32.7L60.0379 30.4L59.7379 29.65L59.3879 28.2L58.8379 27.75L58.3879 27.85L57.4879 29.35L57.1879 30.3L56.9379 31.55L56.9879 33.1L56.9379 33.75L56.9879 34.6L56.8879 35.75L56.3879 36.5L55.7379 37L55.1379 37.1L54.4879 36.9L53.6879 36.8L53.2379 36.05L52.9879 35.1L52.8879 32.05L52.9379 31.3L52.8379 30.65L52.8879 29.85L52.7379 28.45L52.8379 27.8L52.7879 23.25L52.9379 21.6L52.8379 20.9L52.9379 19.35L53.0879 18.75L53.3379 15.65L53.0379 15L51.8379 14.15L51.0379 13.25L50.8879 12.6L51.2379 11.85L51.6879 11.5L53.7379 11.1L54.5379 9.65L54.7379 9L54.8879 8.25L56.7879 4.95L57.5879 3.75L59.2879 2.4L59.9879 2.2L60.6879 1.75L61.2379 1.55L62.0379 1.3L62.7879 1.15L65.0379 1.25L65.8379 1.4L67.1379 2.1L67.6379 2.75L68.1379 3.2L68.5879 3.9L68.7879 4.65L69.0379 5.15L69.2379 5.95L69.1879 7.6L68.9879 8.25L68.7379 9L68.0379 10.4L67.5879 11.05L67.0879 11.5L66.6879 12.15L64.7879 13.3L64.0879 13.8L63.4379 13.9L62.0879 14.5L60.5879 14.85H60.0379L59.2879 15H58.5379L57.6379 15.45L57.2379 16.05L57.0879 18.25L56.9379 18.9V19.75L56.7879 20.45L56.7379 21.15L56.8879 22.75L56.7379 23.4V24.15L56.9379 24.65L57.4379 24.35L58.5879 22.4L60.0379 20.7L61.0879 19.85L61.5379 19.3L62.7879 18.3L64.0879 17.55L64.6379 17.05L66.0879 16.45L67.7379 16.2L68.7879 16.35L69.3879 16.75L69.7879 17.4L69.8879 17.95L69.6879 18.75L69.3879 19.4L68.4379 19.7L67.4379 19.85L65.3879 20.75L62.6379 23.25L62.3879 24.05L62.2379 25.25L62.7379 27.4L62.8379 28.1L63.0879 28.85L63.4379 29.45L63.6379 30.3L63.9879 31L64.7879 32.2L65.2379 32.8L65.8879 33.25L66.9879 33.3L67.9379 33.15L68.5379 32.9L69.1379 32.5L69.6379 31.85L70.5379 30.9L70.9879 30.25L71.3879 29.4L71.7379 28.8L72.1879 28.2L72.4879 27.45L73.4379 25.95L74.1879 25.2L74.9379 25.4L75.5379 25.65L75.9379 26.05L76.0879 27.15L75.6879 28.3L74.3379 30.95L72.0879 34.1L70.9879 35.15L69.1879 36.45L68.5379 36.8L66.6379 37.05L65.5879 37ZM59.2379 11.95L60.0379 11.7L61.0379 11.3L62.1879 10.9L64.0879 9.35L64.6879 8.6L65.0379 7.3L64.8879 6.55L64.6879 5.75L64.1879 5.35L63.0879 5L62.1379 5.2L61.4879 5.3L60.8379 5.8L60.3879 6.35L59.2379 8.3L58.9879 8.95L58.7879 9.4L58.2879 10.85L58.6379 11.55L59.2379 11.95ZM95.1934 25.45L95.9434 25.6L96.5434 26.2V27.35L96.2434 28.55L95.9434 29.25L95.4934 29.95L95.1934 30.7L94.2934 32L93.5934 33.35L93.0934 34L92.6934 34.65L88.7434 39.1L88.3434 40.2L88.2434 41.8L88.0934 42.65L87.6434 44.2L87.2434 45L86.8434 45.7L86.4934 46.45L84.8434 48.3L84.1434 48.65L83.5434 49.05L82.7434 49.35L81.9434 49.55L80.8434 49.6L79.6434 49.55L78.9434 49.3L78.0934 48.95L77.5934 48.45L76.5934 47.3L76.3434 46.55L76.2434 45.8L76.2934 45V44.35L77.2434 42.25L77.6934 41.65L79.5434 40.1L81.6434 38.85L82.3434 38.5L83.6934 37.7L84.3934 36.9L84.8934 35.8L85.0934 34.1L84.9434 33.6L84.4434 33.8L82.6934 35.5L82.0434 35.95L80.4934 36.65L79.6434 36.95L78.5434 37.05L77.3434 37L76.4934 36.8L75.7434 36.55L75.1434 36.2L74.5934 35.8L73.4934 34.5L72.9434 33.1L72.6434 31.5V30.25L72.8934 27.45L73.1434 26.6L73.7934 22.65L73.8434 20.65L73.6434 19.75L72.4934 19.65L71.5934 19.35L71.2434 18.6L71.6934 17.65L72.4434 16.8L73.0934 16.5L73.9434 16.3L74.6934 16.25L76.1434 16.6L76.9434 17.05L77.4434 17.6L77.8934 18.25L78.0934 19.45L78.0434 20.55L77.7934 21.75L77.6934 22.9L77.4934 23.7L77.3434 25.35L77.1434 26.15L76.9934 27V27.75L76.8434 28.65L76.9434 31.75L77.2934 32.45L77.7434 33L78.8934 33.15L80.1434 33.1L81.5434 32.45L82.0934 31.95L82.7434 31.45L83.6434 30.15L84.7934 27.9L85.5434 24.05L85.6434 22.5L86.4434 17.5L86.9934 16.65L87.7434 16.5L88.5434 16.55L89.1934 16.75L89.8934 17.15L90.0434 18.15L90.1434 19.25L89.0934 30.65L88.8934 31.5L88.7934 33.15L89.0934 33.75L89.5934 33.6L91.2434 31.05L91.7934 30.4L92.3934 29.1L92.7934 28.4L93.5434 26.95L94.2434 26.05L95.1934 25.45ZM81.9934 45.8L82.6434 45.35L83.5434 44.15L84.1934 42.65L84.3934 41.9L84.2434 41.25L83.6934 41.3L82.8934 41.7L81.2934 42.9L80.5434 43.85L80.2434 44.65L80.1434 45.4L80.9934 45.9L81.9934 45.8ZM109.496 37H108.946L108.246 36.85L107.646 36.55L107.246 36.25L105.996 34.7L105.846 34L105.696 33.45L105.546 32.15L105.396 31.5L105.496 30.2L105.346 29.55L105.446 28.9L105.496 27.55L105.896 24.9L105.946 21.8L105.746 21.2L105.296 20.75L104.446 20.65L103.496 20.7L102.846 20.9L102.346 21.15L101.896 21.5L101.346 21.85L100.296 22.7L99.9465 23.25L99.5465 23.75L99.0465 24.9L98.1965 27.35L97.9465 29.25L97.7965 29.85L97.8465 30.5V31.75L97.7465 32.4L97.8465 34.9L97.7965 35.85L97.3465 36.75L96.8965 37.05L96.0965 37.2L95.4465 37.25L94.8465 37.1L94.1465 36.75L93.7465 35.9L93.5965 35L93.5465 33.05L93.6965 32.4V31.15L93.7965 30.45L93.8965 29.2L93.7965 28.45L93.9965 27.8L93.9465 27.2L94.0465 26.5V25.85L93.9965 25.25L94.0465 24.55L94.1965 23.95L94.3965 21.35L94.3465 20.65L94.4965 20.05L94.5465 18.7L94.7465 17.75L95.1465 17L95.7465 16.7L96.3965 16.65H96.8965L97.5965 16.8L98.1465 17.05L98.5465 17.8L98.6465 18.75L98.4465 19.35L98.3965 20.95L98.8465 20.7L99.4465 19.55L100.846 18.2L101.446 17.8L102.596 17.2L103.796 16.8L105.396 16.55L106.346 16.65L107.646 17L108.246 17.3L108.696 17.7L109.596 18.7L109.796 19.35L110.096 20L110.146 20.65L110.096 21.35L109.696 24.7V25.3L109.446 26.75V27.35L109.196 28.7L109.246 29.35L109.146 30.05L109.246 30.7V31.4L109.346 32.05L109.746 32.65L110.496 33L111.396 32.95L111.896 32.7L112.796 32L114.296 29.85L114.646 29.25L115.046 28.75L115.196 28.15L115.646 27.5L115.796 26.85L116.346 26L116.946 25.4H117.696L118.196 25.6L118.696 26.05L118.996 26.6L118.896 27.45L118.596 28.35L117.446 30.75L117.046 31.3L116.746 31.9L116.046 33L115.546 33.5L114.996 34.35L113.796 35.4L112.946 36.05L112.146 36.45L110.546 36.95L109.496 37Z" fill="white"/>
</svg>
