<svg width="197" height="109" viewBox="0 0 197 109" fill="none" xmlns="http://www.w3.org/2000/svg">
<path d="M61.6845 0C63.1496 0 65.0424 0.0790933 67.3619 0.237807C69.6819 0.395994 72.1443 0.693912 74.7491 1.12998C77.3539 1.56605 79.9998 2.1603 82.6863 2.91327C85.3723 3.66624 87.7736 4.6375 89.89 5.82654C92.0064 7.0161 93.7368 8.44347 95.0795 10.1081C96.4228 11.7728 97.0947 13.7153 97.0947 15.9347C97.0947 18.9476 95.9139 21.3056 93.5533 23.0103C91.1927 24.7151 88.4249 25.5672 85.2505 25.5672C85.0876 25.5672 84.7215 25.5076 84.1514 25.3884C83.5813 25.2698 82.9917 25.1111 82.3804 24.9128C81.7702 24.7151 81.2413 24.4767 80.7935 24.1994C80.3458 23.922 80.1222 23.5851 80.1222 23.1886C80.1222 22.396 80.5905 21.7417 81.5261 21.226C82.4622 20.7114 83.4801 20.2753 84.5786 19.9188C85.6777 19.5613 86.695 19.1648 87.6312 18.7288C88.5673 18.2932 89.0356 17.7185 89.0356 17.0051C89.0356 15.6573 88.0383 14.5078 86.0437 13.5561C84.0496 12.6054 81.6484 11.8318 78.8401 11.2376C76.0312 10.6428 73.0804 10.2067 69.9872 9.92937C66.8941 9.65201 64.2887 9.51334 62.1723 9.51334C60.1377 9.51334 57.4517 9.65201 54.1138 9.92937C50.7764 10.2067 47.1743 10.6428 43.3075 11.2376C39.4412 11.8318 35.5137 12.6249 31.5245 13.6162C27.5358 14.6069 23.9137 15.796 20.6576 17.1833C17.4014 18.5706 14.7149 20.1762 12.5985 21.999C10.4821 23.8229 9.34236 25.8841 9.17993 28.183C9.01696 29.5308 9.91193 30.8585 11.8654 32.1667C13.8194 33.4749 16.3836 34.743 19.5585 35.9721C22.7328 37.2007 26.3355 38.3898 30.3648 39.5398C34.394 40.6893 38.4439 41.7987 42.5138 42.8691C46.5842 43.9395 50.4505 45.0099 54.1138 46.0803C57.777 47.1501 60.8296 48.1604 63.272 49.1122C65.6326 50.0634 68.1762 51.2329 70.9033 52.6207C73.6299 54.0075 76.1741 55.5931 78.5347 57.3769C80.8953 59.1602 82.8488 61.1623 84.3956 63.3822C85.9419 65.6021 86.7156 68.0598 86.7156 70.7553C86.7156 73.292 86.0643 75.4523 84.7622 77.2356C83.4595 79.02 81.7296 80.4864 79.5721 81.6353C77.415 82.7853 74.9526 83.6179 72.1849 84.1326C69.4177 84.6482 66.5681 84.9056 63.638 84.9056C57.0445 84.9056 50.634 84.2918 44.4066 83.0627C38.1797 81.8341 32.1352 80.0698 26.2738 77.7708C24.1573 76.9783 21.9191 75.9675 19.5585 74.7384C17.1979 73.5098 15.0408 72.083 13.0874 70.4579C11.1334 68.8322 9.50532 67.0489 8.20266 65.1064C6.89999 63.1644 6.2492 61.0036 6.2492 58.6255C6.2492 57.4365 6.51396 56.2474 7.04293 55.0579C7.5719 53.8688 8.34505 52.7984 9.36239 51.8472C10.3803 50.896 11.6217 50.1235 13.0874 49.5282C14.5525 48.9339 16.2618 48.6366 18.2152 48.6366C18.6224 48.6366 19.1107 48.6761 19.6808 48.7557C20.2499 48.8348 20.7388 48.993 21.1454 49.2313C21.5525 49.4691 21.7561 49.7465 21.7561 50.0634C21.7561 50.3808 21.349 50.7774 20.5352 51.253C19.1513 52.0455 17.9098 52.7194 16.8113 53.2746C15.7122 53.8293 14.7755 54.384 14.0024 54.9392C13.2292 55.4939 12.6591 56.0687 12.2931 56.6635C11.9271 57.2582 11.7441 57.9522 11.7441 58.7447C11.7441 59.9337 12.1307 61.0832 12.9038 62.1926C13.677 63.3026 14.6337 64.3334 15.7728 65.2852C16.9125 66.2359 18.0728 67.0684 19.2537 67.7819C20.4334 68.4958 21.4713 69.0505 22.3668 69.4471C28.2278 72.3804 34.5364 74.6198 41.2929 76.1658C48.0493 77.7118 54.8463 78.4848 61.6845 78.4848C62.9054 78.4848 64.5129 78.4447 66.5075 78.3651C68.5016 78.2865 70.4756 78.0086 72.4296 77.533C74.3831 77.0579 76.0517 76.344 77.4356 75.3928C78.8195 74.4415 79.5114 73.0542 79.5114 71.2303C79.5114 68.8523 78.3517 66.692 76.0312 64.75C73.7117 62.8074 70.8627 61.0241 67.4842 59.3985C64.1058 57.7734 60.5042 56.3661 56.678 55.177C52.8523 53.988 49.4743 52.9577 46.5436 52.0855C38.0779 49.707 30.8531 47.6062 24.8699 45.7829C18.8871 43.959 14.0435 42.1557 10.3397 40.3724C6.63578 38.5886 3.94977 36.7452 2.28056 34.8422C0.611896 32.9397 -0.141225 30.6803 0.021744 28.0644C0.265926 24.3381 1.54802 21.0483 3.86802 18.1941C6.18802 15.3404 9.15935 12.8827 12.7815 10.821C16.4041 8.75984 20.4535 7.03561 24.931 5.64884C29.4081 4.26102 33.8851 3.15108 38.3621 2.31901C42.8397 1.48643 47.1332 0.891645 51.2442 0.535198C55.3553 0.178751 58.835 0 61.6845 0ZM106.741 43.8799C107.88 44.1177 108.878 44.6329 109.732 45.4259C110.587 46.2189 111.299 47.0905 111.869 48.0423C112.52 47.3284 113.334 46.9318 114.311 46.8533C115.288 46.7736 116.224 46.9123 117.119 47.2693C118.015 47.6257 118.747 48.1805 119.317 48.9339C119.887 49.6874 120.091 50.5791 119.928 51.6094C119.602 53.0363 119.297 54.8201 119.012 56.9609C118.727 59.1011 118.544 61.1623 118.463 63.1444C118.381 65.1259 118.442 66.8306 118.646 68.258C118.849 69.6848 119.277 70.3983 119.928 70.3983C120.417 70.3983 121.006 69.784 121.698 68.5554C122.391 67.3258 123.083 65.8794 123.774 64.2148C124.466 62.5496 125.097 60.8849 125.667 59.2203C126.237 57.5556 126.603 56.287 126.765 55.4148C127.01 54.6223 127.417 54.0871 127.986 53.8098C128.557 53.5319 129.106 53.4528 129.635 53.5714C130.164 53.6906 130.612 53.988 130.978 54.4636C131.344 54.9392 131.406 55.5335 131.162 56.2474C130.998 56.7231 130.734 57.6147 130.368 58.9229C130.002 60.2311 129.534 61.6775 128.963 63.263C128.394 64.8491 127.722 66.4937 126.949 68.1979C126.176 69.9026 125.28 71.4091 124.262 72.7173C123.245 74.0255 122.105 75.0358 120.843 75.7497C119.582 76.4626 118.218 76.6219 116.753 76.2253C114.393 75.591 112.683 74.2037 111.624 72.0629C110.974 73.9654 110.078 75.6901 108.939 77.2356C107.799 78.7816 106.334 79.9116 104.543 80.625C102.833 81.1803 101.328 81.2984 100.025 80.982C97.6643 80.3477 95.792 78.9208 94.4076 76.701C93.0243 74.4811 92.0882 71.9042 91.5998 68.9709C91.1114 66.0381 91.0708 62.9857 91.478 59.8151C91.8846 56.644 92.7195 53.7897 93.981 51.253C95.2425 48.7162 96.9317 46.7141 99.0482 45.2477C101.165 43.7808 103.729 43.3247 106.741 43.8799ZM109.916 55.891C109.753 54.5427 109.447 53.2345 109 51.9664C108.552 50.6977 107.88 49.9843 106.985 49.8256C105.683 49.5883 104.522 50.0439 103.505 51.1934C102.487 52.3429 101.653 53.8688 101.002 55.7718C100.35 57.6743 99.882 59.7555 99.5977 62.0149C99.3129 64.2738 99.2312 66.4146 99.3535 68.4362C99.4754 70.4579 99.8013 72.1821 100.33 73.6089C100.859 75.0358 101.653 75.8288 102.711 75.9875C103.769 76.1457 104.767 75.591 105.703 74.3224C106.639 73.0542 107.453 71.4286 108.145 69.4471C108.837 67.465 109.366 65.2651 109.732 62.8475C110.099 60.4288 110.159 58.1103 109.916 55.891ZM156.07 35.3183C156.233 36.1899 156.132 37.0025 155.766 37.7554C155.399 38.5089 154.849 39.1828 154.117 39.7776C153.384 40.3724 152.529 40.8675 151.553 41.2635C150.576 41.66 149.558 41.9379 148.5 42.0961C146.465 42.3339 144.471 42.1356 142.517 41.5018C140.563 40.8675 139.464 39.718 139.22 38.0533C139.139 37.8946 139.098 37.6563 139.098 37.3394V36.983C139.261 35.5556 140.014 34.327 141.357 33.2967C142.7 32.2658 144.43 31.5524 146.546 31.1559H146.913C146.913 31.3146 146.892 31.4928 146.852 31.6911C146.81 31.8888 146.791 32.0676 146.791 32.2258C146.628 33.2566 146.14 34.1883 145.325 35.0209C144.512 35.8535 143.657 36.5073 142.761 36.983C141.866 37.4586 141.052 37.7554 140.319 37.8751C139.587 37.9932 139.18 37.8155 139.098 37.3394V36.983C139.098 36.9033 139.118 36.8638 139.16 36.8638C139.2 36.8638 139.22 36.8242 139.22 36.7452C139.546 35.477 139.77 34.1883 139.892 32.8807C140.014 31.5719 140.034 30.4224 139.953 29.4317C139.872 28.4409 139.709 27.6283 139.464 26.9935C139.22 26.3597 138.854 26.0428 138.366 26.0428C137.877 26.0428 137.45 26.3992 137.084 27.1132C136.717 27.8261 136.412 29.0156 136.168 30.6803C135.923 32.3449 135.74 34.5253 135.618 37.2208C135.496 39.9163 135.395 43.2461 135.313 47.2097C137.186 47.051 139.078 46.9519 140.991 46.9123C142.904 46.8728 144.43 46.8533 145.57 46.8533C146.302 46.7736 147.035 46.8132 147.767 46.9714C148.5 47.1301 149.131 47.4275 149.66 47.8636C150.189 48.2996 150.616 48.8348 150.943 49.4691C151.268 50.1035 151.349 50.8169 151.187 51.6094C150.861 53.0363 150.555 54.8201 150.271 56.9609C149.986 59.1011 149.802 61.1623 149.721 63.1444C149.64 65.1259 149.701 66.8306 149.904 68.258C150.108 69.6848 150.576 70.3983 151.309 70.3983C151.797 70.3983 152.387 69.784 153.079 68.5554C153.771 67.3258 154.442 65.8794 155.094 64.2148C155.745 62.5496 156.356 60.8849 156.925 59.2203C157.495 57.5556 157.861 56.287 158.024 55.4148C158.269 54.6223 158.675 54.0871 159.245 53.8098C159.815 53.5319 160.364 53.4528 160.894 53.5714C161.423 53.6906 161.871 53.988 162.237 54.4636C162.603 54.9392 162.664 55.5335 162.42 56.2474C162.257 56.7231 161.992 57.6147 161.626 58.9229C161.26 60.2311 160.792 61.6775 160.223 63.263C159.652 64.8491 158.981 66.4937 158.207 68.1979C157.434 69.9026 156.538 71.4091 155.521 72.7173C154.503 74.0255 153.384 75.0358 152.163 75.7497C150.943 76.4626 149.599 76.6219 148.134 76.2253C145.936 75.591 144.369 74.4415 143.433 72.7763C142.496 71.1117 141.947 69.1296 141.784 66.8307C141.621 64.5317 141.642 62.074 141.845 59.4581C142.049 56.8417 142.151 54.2648 142.151 51.7286C141.174 51.7286 140.096 51.7486 138.915 51.7882C137.735 51.8272 136.534 51.8868 135.313 51.9664C135.232 55.2957 135.211 59.002 135.252 63.0848C135.293 67.1676 135.354 71.7065 135.435 76.701C135.435 78.1278 134.947 79.3369 133.97 80.3282C132.993 81.3184 131.915 81.9928 130.734 82.3493C129.554 82.7062 128.475 82.7458 127.498 82.4679C126.522 82.1911 126.033 81.5367 126.033 80.5059L126.888 51.9664C125.748 51.8868 124.873 51.6294 124.262 51.1934C123.652 50.7573 123.326 50.2617 123.286 49.707C123.245 49.1522 123.53 48.6566 124.14 48.2205C124.751 47.7845 125.707 47.5266 127.01 47.4475C127.254 42.6909 127.6 38.7267 128.048 35.5556C128.495 32.385 129.146 29.8277 130.001 27.8857C130.856 25.9436 131.955 24.5558 133.298 23.7232C134.641 22.8912 136.331 22.396 138.366 22.2373C139.587 22.1577 140.726 22.396 141.784 22.9508C142.842 23.506 143.738 24.2389 144.471 25.1511C145.203 26.0623 145.794 27.0536 146.241 28.1235C146.689 29.1939 146.913 30.2047 146.913 31.1559C149.192 30.839 151.227 31.0568 153.018 31.8103C154.809 32.5632 155.826 33.7327 156.07 35.3183ZM172.432 43.8799C173.572 44.1177 174.569 44.6329 175.424 45.4259C176.279 46.2189 176.992 47.0905 177.561 48.0423C178.212 47.3284 179.026 46.9318 180.003 46.8533C180.98 46.7736 181.916 46.9123 182.811 47.2693C183.707 47.6257 184.439 48.1805 185.009 48.9339C185.579 49.6874 185.783 50.5791 185.62 51.6094C185.294 53.0363 184.988 54.8201 184.704 56.9609C184.419 59.1011 184.236 61.1623 184.155 63.1444C184.073 65.1259 184.134 66.8306 184.338 68.258C184.541 69.6848 184.969 70.3983 185.62 70.3983C186.109 70.3983 186.698 69.784 187.39 68.5554C188.082 67.3258 188.775 65.8794 189.466 64.2148C190.158 62.5496 190.789 60.8849 191.358 59.2203C191.929 57.5556 192.295 56.287 192.458 55.4148C192.701 54.6223 193.109 54.0871 193.679 53.8098C194.248 53.5319 194.798 53.4528 195.327 53.5714C195.856 53.6906 196.304 53.988 196.67 54.4636C197.037 54.9392 197.098 55.5335 196.853 56.2474C196.691 56.7231 196.426 57.6147 196.059 58.9229C195.693 60.2311 195.225 61.6775 194.655 63.263C194.086 64.8491 193.414 66.4937 192.641 68.1979C191.867 69.9026 190.972 71.4091 189.954 72.7173C188.937 74.0255 187.797 75.0358 186.536 75.7497C185.274 76.4626 183.91 76.6219 182.445 76.2253C180.085 75.591 178.375 74.2037 177.316 72.0629C176.665 73.9654 175.771 75.6901 174.63 77.2356C173.491 78.7816 172.026 79.9116 170.235 80.625C168.525 81.1803 167.019 81.2984 165.716 80.982C163.356 80.3477 161.484 78.9208 160.1 76.701C158.716 74.4811 157.78 71.9042 157.292 68.9709C156.803 66.0381 156.763 62.9857 157.169 59.8151C157.577 56.644 158.411 53.7897 159.673 51.253C160.935 48.7162 162.624 46.7141 164.74 45.2477C166.857 43.7808 169.421 43.3247 172.432 43.8799ZM175.607 55.891C175.444 54.5427 175.139 53.2345 174.692 51.9664C174.244 50.6977 173.572 49.9843 172.677 49.8256C171.374 49.5883 170.215 50.0439 169.197 51.1934C168.179 52.3429 167.345 53.8688 166.694 55.7718C166.043 57.6743 165.575 59.7555 165.29 62.0149C165.004 64.2738 164.923 66.4146 165.045 68.4362C165.167 70.4579 165.493 72.1821 166.022 73.6089C166.551 75.0358 167.345 75.8288 168.403 75.9875C169.461 76.1457 170.459 75.591 171.394 74.3224C172.331 73.0542 173.145 71.4286 173.837 69.4471C174.529 67.465 175.058 65.2651 175.424 62.8475C175.79 60.4288 175.851 58.1103 175.607 55.891Z" fill="white"/>
<path d="M58.4203 103.15L59.7116 103.326C59.5692 104.191 59.2086 104.867 58.6255 105.356C58.0423 105.846 57.3244 106.09 56.4755 106.09C55.4121 106.09 54.5561 105.751 53.9107 105.074C53.2627 104.396 52.94 103.426 52.94 102.163C52.94 101.345 53.0797 100.63 53.3574 100.017C53.6352 99.4044 54.058 98.9436 54.6292 98.6388C55.1972 98.3319 55.8149 98.1785 56.4858 98.1785C57.3293 98.1785 58.0223 98.3857 58.5578 98.8028C59.096 99.2193 59.4414 99.811 59.5914 100.577L58.3152 100.767C58.1923 100.258 57.9774 99.8748 57.6644 99.6164C57.3542 99.3606 56.9785 99.2315 56.5383 99.2315C55.8729 99.2315 55.332 99.4629 54.914 99.9259C54.4987 100.391 54.2908 101.122 54.2908 102.127C54.2908 103.146 54.4911 103.884 54.8918 104.345C55.2946 104.805 55.8171 105.037 56.4608 105.037C56.9812 105.037 57.4143 104.883 57.7597 104.574C58.1073 104.267 58.3277 103.791 58.4203 103.15ZM65.9282 104.978C65.4377 105.385 64.9644 105.671 64.5113 105.839C64.0586 106.007 63.573 106.09 63.0521 106.09C62.1967 106.09 61.5389 105.887 61.0781 105.48C60.6179 105.076 60.3873 104.557 60.3873 103.925C60.3873 103.555 60.475 103.216 60.6471 102.909C60.8231 102.602 61.0505 102.358 61.3304 102.173C61.6136 101.988 61.9287 101.846 62.2817 101.752C62.5421 101.686 62.9347 101.622 63.4582 101.559C64.5243 101.437 65.312 101.288 65.8156 101.118C65.8204 100.942 65.8231 100.83 65.8231 100.784C65.8231 100.262 65.6981 99.8943 65.4479 99.6802C65.1096 99.3896 64.6066 99.2462 63.9406 99.2462C63.318 99.2462 62.8572 99.3533 62.5622 99.5652C62.2644 99.7772 62.0462 100.153 61.9038 100.694L60.6125 100.518C60.73 99.9797 60.9227 99.5436 61.1934 99.212C61.4636 98.8803 61.854 98.6267 62.3645 98.4469C62.8724 98.2686 63.4658 98.1785 64.1361 98.1785C64.802 98.1785 65.3451 98.2544 65.7631 98.4073C66.1783 98.5613 66.4864 98.7511 66.6813 98.9826C66.8762 99.2141 67.0143 99.5067 67.0944 99.86C67.1372 100.079 67.1594 100.474 67.1594 101.042V102.748C67.1594 103.94 67.187 104.693 67.2417 105.013C67.2947 105.332 67.4046 105.636 67.5644 105.929H66.1832C66.0511 105.659 65.9655 105.342 65.9282 104.978ZM65.8231 102.127C65.3424 102.317 64.6217 102.477 63.6607 102.61C63.1155 102.685 62.7295 102.771 62.5042 102.866C62.2795 102.96 62.1068 103.1 61.9839 103.28C61.8616 103.462 61.7987 103.665 61.7987 103.889C61.7987 104.228 61.9314 104.513 62.1994 104.74C62.4669 104.966 62.8572 105.081 63.3705 105.081C63.8784 105.081 64.3315 104.974 64.7295 104.756C65.1247 104.542 65.4176 104.247 65.6028 103.874C65.7452 103.584 65.8156 103.158 65.8156 102.595L65.8231 102.127ZM69.5043 105.929V99.3337H68.3326V98.3393H69.5043V97.5346C69.5043 97.0258 69.5498 96.6477 69.6418 96.402C69.7696 96.0704 69.9899 95.7999 70.3099 95.5926C70.6277 95.3854 71.076 95.2831 71.6516 95.2831C72.0241 95.2831 72.4345 95.3269 72.8855 95.4123L72.6879 96.5381C72.4123 96.4922 72.154 96.4674 71.9093 96.4674C71.5086 96.4674 71.226 96.5502 71.0582 96.7163C70.893 96.8819 70.8107 97.1914 70.8107 97.6449V98.3393H72.3273V99.3337H70.8254V105.929H69.5043ZM78.6766 103.472L80.0431 103.648C79.8303 104.421 79.4318 105.022 78.8514 105.449C78.2705 105.875 77.5298 106.09 76.6267 106.09C75.4903 106.09 74.5893 105.749 73.9239 105.066C73.258 104.386 72.9256 103.429 72.9256 102.197C72.9256 100.925 73.2607 99.9354 73.9342 99.2341C74.6072 98.5296 75.48 98.1785 76.5542 98.1785C77.5926 98.1785 78.441 98.5217 79.0989 99.212C79.7572 99.9016 80.0875 100.872 80.0875 102.122C80.0875 102.197 80.0853 102.312 80.0799 102.463H74.2764C74.3268 103.294 74.5666 103.933 75.0019 104.374C75.4356 104.815 75.9786 105.037 76.6267 105.037C77.1097 105.037 77.5228 104.912 77.8628 104.664C78.2061 104.416 78.4757 104.018 78.6766 103.472ZM74.3517 101.41H78.6912C78.6338 100.772 78.4654 100.294 78.1931 99.9749C77.7751 99.4798 77.2293 99.2315 76.5618 99.2315C75.9559 99.2315 75.4475 99.4287 75.0349 99.8236C74.6245 100.219 74.3966 100.747 74.3517 101.41ZM75.4627 97.4034L76.4242 95.4002H78.166L76.559 97.4034H75.4627ZM92.0351 104.686C91.5998 105.154 91.1239 105.505 90.6112 105.739C90.0979 105.973 89.5424 106.09 88.9447 106.09C87.8429 106.09 86.9701 105.729 86.3242 105.008C85.8011 104.418 85.538 103.762 85.538 103.036C85.538 102.39 85.7508 101.807 86.1785 101.288C86.6068 100.767 87.2478 100.311 88.0963 99.9164C87.6084 99.3754 87.2825 98.9341 87.1201 98.5956C86.9571 98.2591 86.8748 97.9322 86.8748 97.6174C86.8748 96.9889 87.1276 96.4432 87.6355 95.9797C88.1412 95.5146 88.779 95.2831 89.55 95.2831C90.2831 95.2831 90.8862 95.5025 91.3545 95.9412C91.8223 96.3799 92.0546 96.9088 92.0546 97.523C92.0546 98.5196 91.374 99.3728 90.0102 100.077L91.9577 102.456C92.1802 102.037 92.3535 101.552 92.4753 100.998L93.8418 101.286C93.6069 102.197 93.289 102.943 92.8862 103.526C93.3789 104.162 93.9393 104.696 94.563 105.13L93.6767 106.148C93.1466 105.819 92.6009 105.329 92.0351 104.686ZM89.3323 99.2483C89.9078 98.9172 90.2782 98.6293 90.4482 98.3804C90.6187 98.1321 90.7037 97.8568 90.7037 97.5547C90.7037 97.1961 90.5863 96.904 90.3534 96.6768C90.1201 96.4505 89.8277 96.3361 89.4796 96.3361C89.1217 96.3361 88.8218 96.4479 88.5841 96.672C88.3464 96.8966 88.2262 97.1719 88.2262 97.4988C88.2262 97.6591 88.2684 97.832 88.3561 98.0103C88.4411 98.1906 88.5689 98.3804 88.7416 98.5808L89.3323 99.2483ZM91.1943 103.682L88.7866 100.755C88.0708 101.167 87.5878 101.549 87.3399 101.903C87.0897 102.256 86.9647 102.605 86.9647 102.95C86.9647 103.372 87.1374 103.811 87.4855 104.267C87.8309 104.723 88.3209 104.949 88.9544 104.949C89.3496 104.949 89.76 104.832 90.1807 104.596C90.6036 104.359 90.9414 104.055 91.1943 103.682ZM101.287 105.929H100.056V95.4582H101.377V99.1945C101.935 98.517 102.646 98.1785 103.512 98.1785C103.99 98.1785 104.445 98.2713 104.873 98.459C105.302 98.6462 105.652 98.9124 105.929 99.251C106.205 99.5927 106.422 100.001 106.577 100.482C106.735 100.959 106.813 101.473 106.813 102.02C106.813 103.316 106.482 104.321 105.824 105.027C105.164 105.737 104.373 106.09 103.449 106.09C102.531 106.09 101.811 105.717 101.287 104.974V105.929ZM101.272 102.078C101.272 102.985 101.4 103.64 101.652 104.045C102.068 104.705 102.628 105.037 103.337 105.037C103.914 105.037 104.413 104.793 104.831 104.306C105.251 103.818 105.461 103.092 105.461 102.127C105.461 101.137 105.261 100.408 104.859 99.938C104.455 99.4682 103.968 99.2315 103.397 99.2315C102.819 99.2315 102.321 99.4756 101.903 99.9623C101.482 100.45 101.272 101.154 101.272 102.078ZM113.512 104.978C113.022 105.385 112.549 105.671 112.095 105.839C111.642 106.007 111.157 106.09 110.636 106.09C109.781 106.09 109.123 105.887 108.662 105.48C108.202 105.076 107.971 104.557 107.971 103.925C107.971 103.555 108.059 103.216 108.232 102.909C108.407 102.602 108.635 102.358 108.915 102.173C109.198 101.988 109.513 101.846 109.866 101.752C110.126 101.686 110.519 101.622 111.042 101.559C112.108 101.437 112.896 101.288 113.4 101.118C113.405 100.942 113.407 100.83 113.407 100.784C113.407 100.262 113.282 99.8943 113.032 99.6802C112.694 99.3896 112.191 99.2462 111.525 99.2462C110.902 99.2462 110.441 99.3533 110.146 99.5652C109.848 99.7772 109.63 100.153 109.488 100.694L108.197 100.518C108.314 99.9797 108.507 99.5436 108.777 99.212C109.048 98.8803 109.438 98.6267 109.949 98.4469C110.457 98.2686 111.05 98.1785 111.72 98.1785C112.386 98.1785 112.929 98.2544 113.347 98.4073C113.762 98.5613 114.071 98.7511 114.265 98.9826C114.461 99.2141 114.598 99.5067 114.679 99.86C114.721 100.079 114.744 100.474 114.744 101.042V102.748C114.744 103.94 114.771 104.693 114.826 105.013C114.879 105.332 114.989 105.636 115.148 105.929H113.767C113.635 105.659 113.55 105.342 113.512 104.978ZM113.407 102.127C112.926 102.317 112.205 102.477 111.245 102.61C110.7 102.685 110.314 102.771 110.088 102.866C109.863 102.96 109.691 103.1 109.568 103.28C109.446 103.462 109.383 103.665 109.383 103.889C109.383 104.228 109.516 104.513 109.784 104.74C110.052 104.966 110.441 105.081 110.955 105.081C111.462 105.081 111.916 104.974 112.314 104.756C112.709 104.542 113.002 104.247 113.187 103.874C113.33 103.584 113.4 103.158 113.4 102.595L113.407 102.127ZM116.778 105.929V95.4582H118.099V101.422L121.223 98.3393H122.929L119.956 101.159L123.23 105.929H121.603L119.015 102.051L118.099 102.919V105.929H116.778ZM129.596 103.472L130.963 103.648C130.75 104.421 130.352 105.022 129.771 105.449C129.191 105.875 128.45 106.09 127.547 106.09C126.411 106.09 125.51 105.749 124.844 105.066C124.178 104.386 123.845 103.429 123.845 102.197C123.845 100.925 124.181 99.9354 124.854 99.2341C125.527 98.5296 126.4 98.1785 127.474 98.1785C128.513 98.1785 129.361 98.5217 130.019 99.212C130.678 99.9016 131.008 100.872 131.008 102.122C131.008 102.197 131.006 102.312 131 102.463H125.196C125.247 103.294 125.487 103.933 125.922 104.374C126.355 104.815 126.898 105.037 127.547 105.037C128.03 105.037 128.443 104.912 128.783 104.664C129.126 104.416 129.396 104.018 129.596 103.472ZM125.272 101.41H129.611C129.554 100.772 129.386 100.294 129.113 99.9749C128.695 99.4798 128.15 99.2315 127.482 99.2315C126.876 99.2315 126.368 99.4287 125.955 99.8236C125.545 100.219 125.316 100.747 125.272 101.41ZM132.617 105.929V98.3393H133.803V99.502C134.106 98.9631 134.386 98.6071 134.644 98.4368C134.902 98.2639 135.185 98.1785 135.492 98.1785C135.938 98.1785 136.391 98.315 136.851 98.5855L136.38 99.7725C136.06 99.5969 135.74 99.5093 135.42 99.5093C135.132 99.5093 134.874 99.5942 134.647 99.7624C134.419 99.9306 134.256 100.165 134.158 100.465C134.011 100.92 133.939 101.42 133.939 101.963V105.929H132.617ZM137.572 108.847L137.422 107.657C137.712 107.732 137.962 107.771 138.177 107.771C138.473 107.771 138.709 107.723 138.883 107.628C139.061 107.533 139.206 107.399 139.319 107.228C139.401 107.099 139.537 106.78 139.722 106.268C139.746 106.197 139.784 106.092 139.84 105.953L136.882 98.3393H138.293L139.92 102.722C140.132 103.275 140.32 103.86 140.488 104.474C140.64 103.896 140.821 103.326 141.031 102.766L142.692 98.3393H144.011L141.066 106.061C140.748 106.891 140.5 107.462 140.323 107.777C140.087 108.198 139.817 108.508 139.514 108.705C139.209 108.902 138.846 109 138.425 109C138.17 109 137.885 108.949 137.572 108.847Z" fill="white"/>
</svg>
