<svg width="40" height="40" viewBox="0 0 40 40" fill="none" xmlns="http://www.w3.org/2000/svg">
<path d="M29.7007 21.2128C29.3673 21.2128 29.0945 20.9401 29.0945 20.6068V1.214H10.9099C10.5765 1.214 10.3037 0.941291 10.3037 0.607978C10.3037 0.274664 10.5765 0.00195312 10.9099 0.00195312H29.7007C30.0341 0.00195312 30.3069 0.274664 30.3069 0.607978V20.6068C30.3069 20.9401 30.0341 21.2128 29.7007 21.2128Z" fill="black"/>
<path d="M29.7016 39.9999H0.606156C0.27277 39.9999 0 39.7272 0 39.3939V10.9107C0 10.5774 0.27277 10.3047 0.606156 10.3047C0.939542 10.3047 1.21231 10.5774 1.21231 10.9107V38.7878H29.0955V29.6975C29.0955 29.3642 29.3683 29.0914 29.7016 29.0914C30.035 29.0914 30.3078 29.3642 30.3078 29.6975V39.3939C30.3078 39.7272 30.035 39.9999 29.7016 39.9999Z" fill="black"/>
<path d="M10.9104 11.5169H0.605741C0.363278 11.5169 0.139 11.3715 0.0480766 11.1412C-0.0428468 10.917 0.00564642 10.6564 0.181432 10.4806L10.4861 0.178218C10.6619 0.00247136 10.9225 -0.0460104 11.1468 0.0448933C11.3711 0.135797 11.5226 0.360026 11.5226 0.602436V10.9049C11.5165 11.2442 11.2438 11.5169 10.9104 11.5169ZM2.06658 10.3049H10.3042V2.06902L2.06658 10.3049Z" fill="black"/>
<path d="M19.3974 33.9408H5.45577C5.12238 33.9408 4.84961 33.6681 4.84961 33.3347C4.84961 33.0013 5.12238 32.7285 5.45577 32.7285H19.3974C19.7307 32.7285 20.0035 33.0013 20.0035 33.3347C20.0035 33.6681 19.7307 33.9408 19.3974 33.9408Z" fill="#DCC38B"/>
<path d="M18.185 29.091H5.45577C5.12238 29.091 4.84961 28.8183 4.84961 28.4849C4.84961 28.1515 5.12238 27.8787 5.45577 27.8787H18.185C18.5184 27.8787 18.7912 28.1515 18.7912 28.4849C18.7912 28.8183 18.5184 29.091 18.185 29.091Z" fill="#DCC38B"/>
<path d="M22.4281 24.2436H5.45577C5.12238 24.2436 4.84961 23.9708 4.84961 23.6374C4.84961 23.304 5.12238 23.0312 5.45577 23.0312H22.4281C22.7615 23.0312 23.0343 23.304 23.0343 23.6374C23.0343 23.9708 22.7615 24.2436 22.4281 24.2436Z" fill="#DCC38B"/>
<path d="M20.6088 15.7592H9.69795C9.36457 15.7592 9.0918 15.4864 9.0918 15.153C9.0918 14.8196 9.36457 14.5469 9.69795 14.5469H20.6088C20.9421 14.5469 21.2149 14.8196 21.2149 15.153C21.2149 15.4864 20.9421 15.7592 20.6088 15.7592Z" fill="#DCC38B"/>
<path d="M23.9678 32.2243C23.8041 32.2243 23.6526 32.1576 23.5374 32.0485L20.9673 29.479C20.7309 29.2426 20.7309 28.8608 20.9673 28.6245L36.4001 13.1951C36.6365 12.9587 37.0183 12.9587 37.2547 13.1951L39.8248 15.7646C39.94 15.8798 40.0006 16.0313 40.0006 16.1949C40.0006 16.3585 39.934 16.51 39.8248 16.6252L24.3982 32.0485C24.283 32.1637 24.1315 32.2243 23.9678 32.2243ZM22.2585 29.0487L23.9739 30.7637L38.5459 16.1949L36.8304 14.4799L22.2585 29.0487Z" fill="black"/>
<path d="M19.6825 33.9388C19.5249 33.9388 19.3673 33.8782 19.2521 33.7631C19.0824 33.5934 19.0279 33.3328 19.1188 33.1086L20.8342 28.824C20.9069 28.6361 21.0767 28.4967 21.2767 28.4543C21.4767 28.4119 21.6828 28.4785 21.8283 28.6179L24.3984 31.1875C24.5439 31.3329 24.6045 31.539 24.5621 31.739C24.5196 31.9389 24.3802 32.1026 24.1923 32.1814L19.9068 33.8964C19.8341 33.9267 19.7613 33.9388 19.6825 33.9388ZM21.6222 30.1269L20.7736 32.248L22.8951 31.3996L21.6222 30.1269Z" fill="black"/>
</svg>
