<svg width="131" height="73" viewBox="0 0 131 73" fill="none" xmlns="http://www.w3.org/2000/svg">
<path d="M63.4 48.7L64.8 48.9L66.1 49.7L67.1 50.9L66.9 53L66.2 55.2L64.6 58.1L64 59.5L60.3 64.5L58.1 66.8L55.3 68.5L53.8 69.2L52.2 69.7L47.3 69.8L45.7 69.4L44.3 68.9L42.1 68.8L39.9 69.2L36.5 71.1L33.9 71.9L30.6 72.6L27.5 73H22.7L16.4 71.5L12.1 69.3L8.3 66.1L5.6 62.3L2.8 56.5L2.6 55.1L1.9 53.4L1.2 50.2L1.1 48.6L0.8 47L1 45.4L0.9 43.6L1.1 36.2L2.4 27.4L5 19.6L5.7 18.3L6.3 16.7L8.7 12.5L13.2 7.59999L18.5 3.89999L19.8 3.3L21.1 2.6L27.3 0.899997L31.5 0.599995L33.7 0.799999L38.7 1.59999L44.3 4.1L45.7 5.1L49 8.4L49.8 9.7L50.9 10.9L53.7 16.7L54.9 21.3L55.6 27.6L55.5 29.2L55.8 30.9L55.1 39L54.6 40.6L54.7 42.2L54.4 43.8L53.2 48.4L52.6 49.9L52.3 51.4L51.5 53.1L51 54.5L49.7 57.4L47.9 60.2V61.9L50 62.9L52.4 62.4L53.6 61.7L55 60.6L55.8 59.4L57 58L59 55.2L59.6 53.9L61.7 50.1L63.4 48.7ZM27.7 65.4L32.3 64.5L33.8 63.8L35.3 62.8L36.1 61.2L36.7 59L37.3 57.5L38 56.4L39.2 55.6L41.2 54.8L42.5 53.4L43.9 50.6L44.2 49.1L44.9 47.6L45.3 46.1L45.6 44.6L46.2 43.1L46.4 41.7L46.9 40V38.6L47.5 33.8L47.6 30.5L47.7 29V27.3L46.2 19.5L44.1 15L42 12.7L39.5 10.8L38.2 10L36.7 9.4L34.4 8.8L28.9 8.49999L25.9 9.1L21.8 11.1L19.4 12.9L17.1 15.1L16.3 16.5L14.3 19.1L13.8 20.4L12.8 21.9L12.5 23.5L11.3 26.4L10.8 28L10.6 29.5L10.2 31L9.2 39.1L9.3 40.7L9.1 42.3L9.4 47.2L11.5 54.9L13.1 57.9L14.9 60.4L16 61.6L18.5 63.6L21.3 65L22.9 65.4L25.4 65.5L27.7 65.4ZM88.8406 26.6L87.9406 27.6L82.5406 29.9L80.8406 30.2L79.5406 30.1L76.6406 29.6L75.1406 28.7L73.8406 28.3L72.9406 27.2L71.6406 26.3L70.8406 24.3L70.4406 22.4L71.2406 21.3L72.6406 20.9L74.0406 20.6L76.0406 21.8L77.6406 23.5L79.2406 23.9L82.2406 23.8L84.0406 23L87.4406 21L88.9406 20.9L89.9406 21.9L90.8406 22.9L90.1406 24.7L88.8406 26.6ZM70.0406 72L68.4406 71.6L67.1406 71.1L64.4406 69.3L63.5406 68.1L62.7406 66.8L61.1406 62.4L60.9406 60.9L61.3406 56.2L61.2406 54.6L61.5406 51.5L62.0406 50V48.4L62.3406 46.8L62.9406 45.4L63.3406 43.7L63.5406 39.8L63.4406 37.8L61.1406 37.4L59.1406 36.8L58.3406 35.4L59.1406 33.2L60.4406 31.6L62.0406 30.9L63.5406 30.6L65.1406 30.5L66.9406 30.7L68.3406 31.4L69.6406 32.2L70.7406 33.1L71.4406 34.5L71.7406 37L71.1406 44.3L70.2406 49.1L69.8406 50.6V52.2L69.4406 53.9L69.2406 55.5L69.3406 57V59.5L69.7406 61.7L70.2406 63.1L71.3406 64L73.4406 64.3L75.7406 64.2L77.2406 63.6L79.8406 61.9L81.9406 59.8L82.7406 58.4L83.4406 57L84.3406 55.5L86.2406 49.2L86.5406 46.8V44.5L87.5406 38.2L87.4406 36.5L88.4406 32.8L89.8406 31.2L91.4406 31.1L93.0406 31.3L94.4406 32.1L95.4406 34L95.5406 36.4L95.3406 38L94.9406 39.6L95.0406 41L94.8406 42.6L94.4406 44.2L93.7406 53.5L93.9406 55.2L93.6406 56.7V58.2L93.8406 59.8L94.2406 61.4L94.7406 62.8L96.4406 63.8L98.5406 63.6L99.9406 62.9L101.041 61.9L103.241 59.3L103.941 57.9L105.041 56.6L105.841 55.2L106.441 53.7L108.441 50.3L109.941 48.9L111.441 49L112.641 49.6L113.641 50.7L113.441 52.8L111.441 57.9L110.641 59.3L109.641 60.7L109.041 62.2L107.141 64.9L103.841 68.3L99.7406 71.1L98.3406 71.6L96.6406 71.9L94.1406 71.8L92.1406 71.3L90.6406 70.4L89.5406 69.1L88.2406 66.1L87.8406 64.5L86.9406 63.5L86.0406 63.9L84.2406 66.5L80.3406 69.6L79.1406 70.4L77.7406 71L76.2406 71.5L70.0406 72ZM128.391 54.3L127.191 55L125.491 55.1L124.191 54.8L122.991 54L122.091 52.1L122.191 49.7L122.091 48.1L122.291 46.4V44.8L122.191 43.2L122.291 41.6V35.3L122.491 33.7L122.391 30.4L122.591 28.8L122.291 25.8L122.591 22.5L122.291 19.3L122.191 16L122.391 14.4L122.191 12.8V11.2L121.791 8.09999L121.691 4L122.591 1.9L123.891 0.999996L125.191 0.599995H126.891L128.491 1.09999L129.491 2.8L130.391 4.79999L130.491 6V7.4L130.991 10.4L130.791 18.3L130.991 20.1L130.891 21.5V23.2L130.691 24.9L130.591 33.2L130.191 36.6L130.391 38.1L130.191 39.9V41.5L129.891 43.2L129.791 46.7L129.591 48.3L129.691 50L129.091 52.3L128.391 54.3ZM123.491 72.3L122.091 71.3L120.991 70L120.791 67.5L121.091 65.1L121.991 63.8L123.391 62.8L125.791 62.4L128.091 62.7L129.491 63.8L130.491 65.2L130.791 67.6L130.591 69.9L129.491 71.3L127.891 72.3L125.791 72.6L123.491 72.3Z" fill="#2E2124"/>
</svg>
