<svg width="14" height="14" viewBox="0 0 14 14" fill="none" xmlns="http://www.w3.org/2000/svg">
<path d="M3.19006 7.46824L8.49242 12.8083C8.61505 12.9319 8.77876 13 8.95332 13C9.12788 13 9.29159 12.9319 9.41423 12.8083L9.80471 12.4151C10.0588 12.1589 10.0588 11.7425 9.80471 11.4867L5.35219 7.00249L9.80965 2.51326C9.93229 2.38965 10 2.22487 10 2.04916C10 1.87326 9.93229 1.70848 9.80965 1.58477L9.41917 1.1917C9.29643 1.0681 9.13282 0.999999 8.95826 0.999999C8.7837 0.999999 8.61999 1.0681 8.49736 1.1917L3.19006 6.53664C3.06713 6.66064 2.99961 6.8262 3 7.0022C2.99961 7.17888 3.06713 7.34434 3.19006 7.46824Z" fill="white"/>
</svg>
